<svg id="Layer_1" data-name="Layer 1" xmlns="http://www.w3.org/2000/svg" viewBox="0 0 3001 3001"><defs><style>.cls-1{stroke:#fff;stroke-miterlimit:10;}</style></defs><path class="cls-1" d="M2748.14,0H991.29l99,1248.81L824.56,1008.33,1015.44,2591.8l-179.06-111-47.07-437.28s-183.72-25.85-227.88,35.73c-57.59,80.3,37.1,292.7,251.64,459.93,351.18,273.75,810.49,230.78,831.34,226.79,470.21-90,685.49-503.83,731.81-601.15,96.12-201.91,148.24-477.08,70.58-528.32-52.17-34.41-181-8.53-246.18,64.75l-187.83,805.08-43-468,210.65-687.19-575.57,130.61L1743.3,676.41,1284.21,506.17,1413.76,1903l-323-368L1175.1,2230l-120.23,71.38L953,1228.67l287.19,341.4L1156,314.79l743.69,244.6-172.25,809.39,593.37-178.29L2237,1548.7c99.35-73.56,242.19-114.27,314.29-57.63,150.93,118.62,45.73,706.61-293.72,1063.42-321,337.34-734.28,345.05-789.18,345.14-389.82.78-747-204.52-921.45-435.7-112-148.43-213.35-431.26-131.77-531.32,71.78-88,276.91-41.26,365.66,7.28L672.29,728.21,936.85,949.4,843.75,0H251.86C112.76,0,0,112.76,0,251.86V2748.14C0,2887.24,112.76,3000,251.86,3000H2748.14c139.1,0,251.86-112.76,251.86-251.86V251.86C3000,112.76,2887.24,0,2748.14,0Z" transform="translate(0.5 0.5)"/></svg>