<?xml version="1.0" encoding="UTF-8"?>
<svg version="1.1" xmlns="http://www.w3.org/2000/svg" width="512" height="512">
<path d="M0 0 C3.52689662 3.099394 6.82105491 6.39013288 7.30078125 11.203125 C7.32527344 12.14671875 7.34976563 13.0903125 7.375 14.0625 C7.43107422 15.46242188 7.43107422 15.46242188 7.48828125 16.890625 C6.64895938 22.65037506 2.35108045 26.75028821 -1.30200195 31.0625 C-13.00117494 44.92197706 -22.51847008 60.26737277 -29.9375 76.8125 C-30.27233398 77.55516113 -30.60716797 78.29782227 -30.95214844 79.06298828 C-36.93905305 92.57427959 -40.92355703 106.3587735 -43.9375 120.8125 C-44.11684082 121.66859863 -44.29618164 122.52469727 -44.48095703 123.40673828 C-54.16000802 172.07112277 -42.31399065 225.95308248 -15.16015625 267.15234375 C-12.87123258 270.47152146 -10.43800643 273.65009481 -7.9375 276.8125 C-7.27492187 277.68261719 -6.61234375 278.55273438 -5.9296875 279.44921875 C-0.65231327 286.25425395 5.16899853 292.54395753 11.0625 298.8125 C11.64515625 299.44929688 12.2278125 300.08609375 12.828125 300.7421875 C18.07369001 306.27917279 24.19629707 310.83572757 30.25683594 315.43359375 C31.89720489 316.68627139 33.51631099 317.96667056 35.1328125 319.25 C67.78836795 344.1304232 109.70100249 356.0273355 150.375 356.0625 C151.08047974 356.06317474 151.78595947 356.06384949 152.51281738 356.06454468 C184.49035332 356.01620339 215.94190971 348.12738325 244.0625 332.8125 C244.96258789 332.33127686 244.96258789 332.33127686 245.88085938 331.84033203 C258.54827497 325.04040256 270.01873541 316.8880604 280.80102539 307.39135742 C286.44618798 302.45376784 289.92703396 301.35931859 297.3671875 301.48828125 C301.10981661 301.93848156 303.25398466 303.35504908 306.0625 305.8125 C306.59617187 306.20050781 307.12984375 306.58851563 307.6796875 306.98828125 C311.23647943 311.68043331 309.7967304 320.25548962 309.0625 325.8125 C300.36237431 366.843625 272.55231257 405.08265206 244.0625 434.8125 C243.28261719 435.63363281 242.50273437 436.45476562 241.69921875 437.30078125 C236.19490686 442.96152118 230.23077585 447.89562976 224.0625 452.8125 C222.98162109 453.72902344 222.98162109 453.72902344 221.87890625 454.6640625 C191.52518802 480.09409382 154.02205506 496.96511636 115.5625 505.5625 C114.73484131 505.74917236 113.90718262 505.93584473 113.05444336 506.12817383 C95.14213129 509.89464715 77.39806688 511.33755516 59.125 511.1875 C57.61786942 511.18101944 57.61786942 511.18101944 56.08029175 511.17440796 C41.54427663 511.10121321 27.36001099 510.62910402 13.0625 507.8125 C11.74523926 507.57901855 11.74523926 507.57901855 10.40136719 507.34082031 C-31.15280712 499.95570455 -69.86054505 481.83477519 -102.9375 455.8125 C-103.89914063 455.06484375 -104.86078125 454.3171875 -105.8515625 453.546875 C-133.94328461 431.17293703 -156.04993947 403.40608552 -172.9375 371.8125 C-173.28022949 371.17763672 -173.62295898 370.54277344 -173.97607422 369.88867188 C-193.52067319 333.40043063 -202.39391324 292.23334183 -202.3125 251.0625 C-202.31195618 250.02680878 -202.31141235 248.99111755 -202.31085205 247.92404175 C-202.27067191 231.2478368 -201.40683687 215.17699765 -197.9375 198.8125 C-197.72319336 197.78801758 -197.50888672 196.76353516 -197.28808594 195.70800781 C-187.84924215 152.00355063 -167.86897978 111.13827131 -137.9375 77.8125 C-137.24744873 77.0400293 -137.24744873 77.0400293 -136.54345703 76.25195312 C-127.3098656 65.93786895 -117.80039998 56.42350807 -106.9375 47.8125 C-105.86511957 46.93843877 -104.79352952 46.0634071 -103.72265625 45.1875 C-83.15911897 28.50669307 -59.71815771 15.12679611 -34.9375 5.8125 C-34.05078613 5.47814941 -33.16407227 5.14379883 -32.25048828 4.79931641 C-29.48871365 3.77548398 -26.71700789 2.78707471 -23.9375 1.8125 C-23.1014624 1.50916748 -22.2654248 1.20583496 -21.40405273 0.89331055 C-14.52422124 -1.42402753 -6.91153187 -2.79402352 0 0 Z M-54.9375 50.8125 C-69.13719006 58.66654102 -81.79924249 68.07768186 -93.9375 78.8125 C-94.73897461 79.51922852 -94.73897461 79.51922852 -95.55664062 80.24023438 C-101.78279761 85.75870241 -107.60592768 91.41231513 -112.9375 97.8125 C-113.72125 98.68519531 -114.505 99.55789062 -115.3125 100.45703125 C-155.06666201 145.09185839 -173.58545824 205.34349244 -170.81298828 264.46777344 C-168.18040021 309.0283216 -151.888239 352.31530182 -124.9375 387.8125 C-124.27234375 388.69035156 -123.6071875 389.56820313 -122.921875 390.47265625 C-117.63314224 397.25556351 -111.85698911 403.58186318 -105.9375 409.8125 C-105.43057617 410.34810547 -104.92365234 410.88371094 -104.40136719 411.43554688 C-97.00986136 419.1913253 -89.2701674 426.12678664 -80.67285156 432.52148438 C-79.54228336 433.36257113 -78.41635704 434.20994514 -77.29589844 435.06445312 C-30.63858793 470.64241437 29.62970018 485.34300479 87.53710938 478.22070312 C134.06645283 471.92539207 177.05276944 452.01368709 212.0625 420.8125 C212.85744873 420.11012207 212.85744873 420.11012207 213.66845703 419.39355469 C219.89955065 413.87195134 225.72713276 408.21724041 231.0625 401.8125 C231.84625 400.93980469 232.63 400.06710937 233.4375 399.16796875 C239.4300489 392.43524226 244.61855391 385.3076549 249.625 377.8125 C250.23287354 376.90411377 250.84074707 375.99572754 251.46704102 375.05981445 C254.1047164 371.048591 256.38567694 367.33059272 258.0625 362.8125 C253.65116263 364.19396269 249.56339982 365.92594266 245.375 367.875 C190.41597505 392.36403695 126.31872588 395.01047578 69.85546875 373.71484375 C30.2381669 358.20043261 -6.08308735 332.91641867 -31.64648438 298.54785156 C-32.48757113 297.41728336 -33.33494514 296.29135704 -34.18945312 295.17089844 C-70.13223928 248.03515273 -85.09884515 186.05891591 -77.32666016 127.52294922 C-73.87915613 103.51153787 -67.38017444 79.14858893 -56.1862793 57.50585938 C-55.38969675 55.96480141 -54.65583767 54.39154857 -53.9375 52.8125 C-54.4325 51.8225 -54.4325 51.8225 -54.9375 50.8125 Z " fill="#000000" transform="translate(202.9375,1.1875)"/>
<path d="M0 0 C0.98097656 -0.00128906 1.96195312 -0.00257812 2.97265625 -0.00390625 C7.43245758 0.84809796 10.53996035 2.56199291 13.18579102 6.34936523 C14.44174542 8.55061671 15.57383673 10.78601072 16.6875 13.0625 C17.11812744 13.89257568 17.54875488 14.72265137 17.99243164 15.57788086 C20.24207352 19.95375617 22.29275651 24.34833582 24.13671875 28.91015625 C29.57407236 41.89824997 35.36339139 47.02022113 48.25683594 52.40429688 C53.08279112 54.48939081 57.71510847 56.94679985 62.375 59.375 C63.26872314 59.81980713 64.16244629 60.26461426 65.08325195 60.72290039 C70.81501872 63.65136728 74.8113134 66.1839402 76.9375 72.5625 C77.44731092 77.41824006 77.46982283 81.38695375 75.4375 85.875 C70.95012712 90.69892585 65.83653502 93.31130787 59.72445679 95.56881714 C42.44421917 101.9646767 31.42261371 108.54219583 23.41033936 125.66818237 C21.34352867 130.29342823 19.31425858 134.9415025 17.5446167 139.6895752 C15.22725748 145.70207526 11.92589149 150.96869121 6.125 154.0625 C0.54071428 154.93846639 -4.08440526 154.45458194 -9.25 152.125 C-15.04107869 146.84868386 -18.01862648 139.985332 -20.59375 132.69140625 C-26.859996 116.08334262 -33.73408845 107.41682238 -50.06616211 99.74386597 C-55.02269982 97.51008871 -60.00583409 95.31261358 -65.08572388 93.37315369 C-70.24296193 91.31533967 -72.88718311 89.15302735 -76.0625 84.5625 C-77.88965217 79.08104349 -77.70323426 74.28083279 -75.6875 68.875 C-71.3646341 62.34883095 -62.79245602 59.35622709 -55.875 56.36328125 C-37.3827662 48.62600451 -37.3827662 48.62600451 -25.8034668 32.99487305 C-25.1798281 31.37576393 -24.57984631 29.74735136 -24.00341797 28.11083984 C-22.29395416 23.48100506 -20.05857418 19.10773823 -17.875 14.6875 C-17.30313965 13.43030151 -17.30313965 13.43030151 -16.71972656 12.14770508 C-13.1924666 4.73818839 -8.70201671 -0.19490683 0 0 Z M-1.0625 52.5625 C-1.52398437 53.57570312 -1.98546875 54.58890625 -2.4609375 55.6328125 C-6.59081151 64.2623358 -9.95236599 69.64514237 -19.0625 73.5625 C-20.27345968 74.18239603 -21.48230148 74.80647625 -22.6875 75.4375 C-23.47125 75.80875 -24.255 76.18 -25.0625 76.5625 C-22.47371538 79.65087463 -19.52315824 80.72150954 -15.875 82.3125 C-7.52856998 86.61641973 -4.6349163 93.17649558 -1.0625 101.5625 C-0.4025 101.5625 0.2575 101.5625 0.9375 101.5625 C1.37320313 100.68207031 1.80890625 99.80164063 2.2578125 98.89453125 C8.00932224 87.67784234 13.70928963 83.3763954 24.9375 77.5625 C21.95556672 75.16993707 18.93428931 73.5373675 15.5 71.875 C10.04129353 68.93513814 7.54852131 66.09293096 4.9375 60.5625 C4.54820312 59.80710937 4.15890625 59.05171875 3.7578125 58.2734375 C2.78967266 56.38389561 1.85957182 54.47494526 0.9375 52.5625 C0.2775 52.5625 -0.3825 52.5625 -1.0625 52.5625 Z " fill="#000000" transform="translate(323.0625,111.4375)"/>
<path d="M0 0 C4.43943754 2.26249708 6.76702721 4.94081405 9.01171875 9.3046875 C9.48297521 12.94651102 9.39080879 16.51551629 9.26171875 20.1796875 C9.24367188 21.15421875 9.225625 22.12875 9.20703125 23.1328125 C9.16013609 25.52446557 9.09452782 27.91405347 9.01171875 30.3046875 C9.6164502 30.28374023 10.22118164 30.26279297 10.84423828 30.24121094 C13.60822646 30.15759805 16.37194788 30.10588696 19.13671875 30.0546875 C20.08804688 30.02117188 21.039375 29.98765625 22.01953125 29.953125 C27.88567339 29.8716508 31.42597983 30.24863045 36.01171875 34.3046875 C39.38256646 38.82871995 40.74192623 42.35912285 40.4609375 48.02734375 C39.42755033 53.2661674 36.86910221 57.04636753 32.48046875 60.01953125 C27.77816491 61.76171364 23.60268639 61.63032783 18.63671875 61.4921875 C17.70988281 61.47865234 16.78304687 61.46511719 15.828125 61.45117188 C13.55537877 61.41602631 11.28386028 61.36682882 9.01171875 61.3046875 C9.03790283 61.90418213 9.06408691 62.50367676 9.09106445 63.12133789 C9.19578094 65.86968175 9.26027497 68.61760489 9.32421875 71.3671875 C9.36611328 72.31013672 9.40800781 73.25308594 9.45117188 74.22460938 C9.56854158 80.96163058 8.59655901 84.30062382 4.01171875 89.3046875 C-0.73810138 92.03143609 -4.54745902 92.97285865 -9.98828125 92.3046875 C-15.34841862 90.61201254 -18.47700478 88.53919573 -21.21411133 83.43334961 C-22.70437387 79.33571507 -22.39934983 75.16957702 -22.23828125 70.8671875 C-22.22023438 69.94486328 -22.2021875 69.02253906 -22.18359375 68.07226562 C-22.13681726 65.81530017 -22.07129996 63.56056138 -21.98828125 61.3046875 C-22.55748291 61.32563477 -23.12668457 61.34658203 -23.71313477 61.36816406 C-26.32549941 61.45199744 -28.93758009 61.50355568 -31.55078125 61.5546875 C-32.89366211 61.60496094 -32.89366211 61.60496094 -34.26367188 61.65625 C-40.41393506 61.74636375 -44.00721696 60.99508539 -48.98828125 57.3046875 C-51.80874424 53.87630517 -52.86687866 50.15450563 -53.48828125 45.8046875 C-52.66490715 40.04106882 -50.86957262 35.99844508 -46.51953125 32.08203125 C-41.62927425 29.62067402 -37.49941647 29.86493206 -32.11328125 30.0546875 C-31.13875 30.07273437 -30.16421875 30.09078125 -29.16015625 30.109375 C-26.76850318 30.15627016 -24.37891528 30.22187843 -21.98828125 30.3046875 C-22.00922852 29.73548584 -22.03017578 29.16628418 -22.05175781 28.57983398 C-22.13559119 25.96746934 -22.18714943 23.35538866 -22.23828125 20.7421875 C-22.27179688 19.84693359 -22.3053125 18.95167969 -22.33984375 18.02929688 C-22.43009883 11.86938776 -21.63662155 8.31707632 -17.98828125 3.3046875 C-12.70070517 -1.11147687 -6.57461077 -2.29917626 0 0 Z " fill="#000000" transform="translate(451.98828125,21.6953125)"/>
</svg>
