<?xml version="1.0" encoding="utf-8"?>
<!-- Generator: Adobe Illustrator 24.1.2, SVG Export Plug-In . SVG Version: 6.00 Build 0)  -->
<svg version="1.1" id="Layer_1" xmlns="http://www.w3.org/2000/svg" xmlns:xlink="http://www.w3.org/1999/xlink" x="0px" y="0px"
	 viewBox="0 0 512 512" style="enable-background:new 0 0 512 512;" xml:space="preserve">
<style type="text/css">
	.st0{fill:#FFFFFF;stroke:#000000;stroke-miterlimit:10;}
</style>
<path class="st0" d="M336.6,155.1c22,18.8,36.5,41.1,44.4,68.9c0.3,1.2,0.7,2.4,1,3.6c7.5,31.9,1.2,67.9-15.7,95.7
	C355.9,340,341.9,354.7,325,365c-1.1,0.7-2.1,1.4-3.3,2.1c-27.9,17-63.4,21.9-95.1,14.8c-7.8-2-15.3-4.6-22.6-7.8
	c-0.7-0.3-1.3-0.6-2-0.9c-30.1-13.3-53.8-38.9-65.9-69.3c-2-5.2-3.6-10.5-5.1-15.8c-0.3-1.2-0.7-2.4-1-3.6
	c-7.5-31.9-1.2-67.9,15.7-95.7c18.3-29.1,45.5-48.4,78.4-57.7c1.2-0.3,2.4-0.7,3.6-1C264.7,121.2,307.2,130.9,336.6,155.1z"/>
<path class="st0" d="M431.7,69.7c6.4,3.7,10.2,8.7,12.6,15.6c1.8,7.1,1.5,13.9-1.9,20.4c-2.9,4.6-6.6,8.4-10.4,12.2
	c-1.1,1.1-2.1,2.2-3.2,3.3c-8.3,8.6-15.3,15.6-27.9,16c-7.5-0.1-13.1-2-18.7-7c-6.3-6.9-7.7-13.1-7.4-22.2
	c0.8-9.6,6.2-14.9,12.7-21.5c1.6-1.6,3.1-3.2,4.6-4.9C403.2,70,415.5,62.3,431.7,69.7z"/>
<path class="st0" d="M412.9,376.6c4.6,3,8.5,6.9,12.5,10.8c1.6,1.6,3.2,3.1,4.9,4.6c7.7,7.3,14.7,14.8,15.1,26
	c-0.1,7.7-2.3,14-7.4,19.8c-5.5,5-11.9,7.3-19.3,7.8c-11.8-0.7-20.3-8.4-28.1-16.5c-0.9-0.9-1.7-1.7-2.6-2.6
	c-9.1-9.3-13.4-16-13.3-29.1c0.7-6.8,3.7-12.2,8.7-16.8C391.7,374.3,403.1,372.2,412.9,376.6z"/>
<path class="st0" d="M107.9,71.1c5.2,3.2,9.3,7.4,13.6,11.8c0.9,0.9,1.7,1.7,2.6,2.6c9.1,9.3,13.4,16,13.3,29.1
	c-0.7,6.8-3.7,12.2-8.7,16.8c-8.2,6.2-15.8,6.6-25.8,5.3c-6.6-1.8-11.5-7.5-16.2-12.2c-1.6-1.5-3.2-3-4.8-4.5
	c-7.9-7.4-14.9-15.3-15.4-26.7c0.5-8.2,3.4-15.3,9.6-20.9C86.4,64.9,96.8,65.3,107.9,71.1z"/>
<path class="st0" d="M125.8,378.4c5.3,3.8,9.7,9.1,11.2,15.6c0.8,9.1,0.7,16.5-5.2,23.7c-2.3,2.6-4.7,5.2-7.2,7.7
	c-1.6,1.6-3.1,3.2-4.6,4.9c-7.6,8-15,14.7-26.6,15.1c-7.4-0.1-13.7-2.5-19.3-7.4c-5-5.5-7.3-11.9-7.8-19.3
	c0.7-11.8,8.4-20.3,16.5-28.1c0.9-0.9,1.7-1.7,2.6-2.6C96.9,376.8,110.3,369.5,125.8,378.4z"/>
<path class="st0" d="M268.5,437.1c7.4,4.3,11.1,9.8,13.5,17.9c0.4,2.9,0.4,5.7,0.4,8.6c0,0.8,0,1.6,0,2.4c0,1.7,0,3.3,0,5
	c0,2.5,0,5,0,7.6c0,1.6,0,3.2,0,4.9c0,1.1,0,1.1,0,2.3c-0.1,8.2-2.8,14.6-8.4,20.6c-6.4,5.7-13.2,6.5-21.6,6.2
	c-7.6-1-13.3-4.5-18.2-10.3c-3.6-6.1-4.7-11.7-4.7-18.7c0-0.8,0-1.6,0-2.4c0-1.7,0-3.3,0-5c0-2.5,0-5-0.1-7.5
	c0-10.2,1-17.1,6.6-25.8C245,434.2,257.1,431.9,268.5,437.1z"/>
<path class="st0" d="M463.6,229.6c1.2,0,1.2,0,2.4,0c1.7,0,3.3,0,5,0c2.5,0,5,0,7.6,0c1.6,0,3.2,0,4.9,0c1.1,0,1.1,0,2.3,0
	c8.2,0.1,14.6,2.8,20.6,8.4c5.7,6.4,6.5,13.2,6.2,21.6c-1,7.6-4.5,13.3-10.3,18.2c-6.1,3.6-11.7,4.7-18.7,4.7c-1.2,0-1.2,0-2.4,0
	c-1.7,0-3.3,0-5,0c-2.5,0-5,0-7.5,0.1c-10.2,0-17.1-1-25.8-6.6c-5.7-5.9-8.1-11.7-8.4-19.9c0.3-8.3,2.8-14.7,8.9-20.4
	C449.2,230.6,456.2,229.5,463.6,229.6z"/>
<path class="st0" d="M28.6,229.6c0.8,0,1.6,0,2.4,0c1.7,0,3.3,0,5,0c2.5,0,5,0,7.5-0.1c10.2,0,17.1,1,25.8,6.6
	c5.7,5.9,8.1,11.7,8.4,19.9c-0.3,8.3-2.8,14.7-8.9,20.4c-5.9,5-12.9,6-20.3,6c-1.2,0-1.2,0-2.4,0c-1.7,0-3.3,0-5,0c-2.5,0-5,0-7.6,0
	c-1.6,0-3.2,0-4.9,0c-1.1,0-1.1,0-2.3,0c-8.2-0.1-14.6-2.8-20.6-8.4c-5.7-6.4-6.5-13.2-6.2-21.6c1-7.6,4.5-13.3,10.3-18.2
	C16,230.7,21.6,229.5,28.6,229.6z"/>
<path class="st0" d="M270.9,3.5c6,4.4,9,9.4,11.1,16.5c0.4,2.9,0.4,5.7,0.4,8.6c0,0.8,0,1.6,0,2.4c0,1.7,0,3.3,0,5
	c0,2.5,0,5,0.1,7.5c0,10.2-1,17.1-6.6,25.8c-5.9,5.7-11.7,8.1-19.9,8.4c-8.3-0.3-14.7-2.8-20.4-8.9c-5-5.9-6-12.9-6-20.3
	c0-0.8,0-1.6,0-2.4c0-1.7,0-3.3,0-5c0-2.5,0-5,0-7.6c0-1.6,0-3.2,0-4.9c0-0.7,0-1.5,0-2.3c0.1-8.2,2.8-14.6,8.4-20.6
	C247.1-2.2,260.6-2.5,270.9,3.5z"/>
</svg>
