<?xml version="1.0" encoding="UTF-8"?>
<svg version="1.1" xmlns="http://www.w3.org/2000/svg" width="1024" height="1024">
<path d="M0 0 C1.85410189 -0.0030231 3.70820253 -0.00691338 5.56230098 -0.01159257 C10.64147808 -0.02186104 15.72058451 -0.01969365 20.79976737 -0.01541197 C26.28391839 -0.01294263 31.76805247 -0.02196158 37.25219727 -0.02944946 C47.9908468 -0.04219327 58.72947133 -0.0439905 69.46812715 -0.0416492 C78.19917065 -0.0398653 86.93020657 -0.04161722 95.66124916 -0.04587364 C96.90447598 -0.04646883 98.14770279 -0.04706402 99.42860315 -0.04767724 C101.95435184 -0.04888902 104.48010053 -0.05010315 107.00584922 -0.05131962 C123.96287517 -0.05910583 140.91989802 -0.06302674 157.87692547 -0.05900288 C158.87104849 -0.05876831 158.87104849 -0.05876831 159.8852548 -0.05852901 C163.24407428 -0.05772327 166.60289375 -0.0568775 169.96171322 -0.05601571 C170.62874471 -0.05584462 171.2957762 -0.05567353 171.98302077 -0.05549726 C173.33192036 -0.0551506 174.68081995 -0.05480207 176.02971955 -0.05445167 C197.0103743 -0.04909657 217.990987 -0.05702013 238.97163391 -0.07548523 C262.56282463 -0.09622373 286.15399596 -0.10689321 309.74519759 -0.10290974 C322.22887612 -0.10099874 334.71251635 -0.10347536 347.19618797 -0.11762428 C357.8253686 -0.12954957 368.45448736 -0.13093016 379.08366885 -0.11883412 C384.50322496 -0.11295316 389.92266798 -0.11182433 395.34221649 -0.12383652 C400.31106019 -0.13472138 405.27969673 -0.13156101 410.24853084 -0.11757483 C412.03852725 -0.11493504 413.82854004 -0.11727168 415.61852034 -0.1253107 C439.1014978 -0.22338907 459.13711783 4.8238609 476.62715149 21.57319641 C497.58556826 43.46510589 499.02026794 69.89984513 498.7747345 98.50834656 C498.38058975 150.90882528 500.69880585 218.35398239 539.17793274 258.74116516 C551.35218141 270.33291389 564.70715598 274.68125297 580.81465149 278.26069641 C580.81465149 290.80069641 580.81465149 303.34069641 580.81465149 316.26069641 C577.92715149 316.96194641 575.03965149 317.66319641 572.06465149 318.38569641 C551.30971237 323.72692404 536.72533906 335.19988722 525.82246399 353.62788391 C511.38116645 379.36247375 505.04435663 408.11025257 501.50215149 437.19819641 C501.34279114 438.49902161 501.18343079 439.7998468 501.01924133 441.14009094 C498.75148465 461.09985012 498.69341782 481.00184242 498.98603821 501.06636047 C499.23041678 518.89775904 498.96337741 535.98659335 490.81465149 552.26069641 C490.18623352 553.62388 490.18623352 553.62388 489.54512024 555.01460266 C485.59901826 563.00915508 480.05283242 569.01331463 473.81465149 575.26069641 C473.22941711 575.85753235 472.64418274 576.45436829 472.04121399 577.06929016 C459.11643522 589.17396875 441.38059851 594.43631066 423.99863434 594.39212418 C423.23865996 594.39417681 422.47868559 594.39622944 421.69568169 594.39834428 C419.15243609 594.40399282 416.60924501 594.40255969 414.06599426 594.40113831 C412.22273207 594.40372318 410.37947044 594.40673668 408.53620958 594.41014171 C403.47307636 594.41820072 398.40995732 594.42000067 393.34681845 594.42073917 C387.88511367 594.42259166 382.42341623 594.43014002 376.9617157 594.43687439 C365.01935616 594.45045077 353.07699999 594.45648144 341.13463402 594.46088505 C333.67543848 594.46364883 326.21624423 594.46788646 318.75704956 594.47238922 C298.09839204 594.48458134 277.43973556 594.49488053 256.78107452 594.49826431 C255.44575072 594.49848594 254.11042692 594.49870773 252.77510312 594.49892966 C251.43661008 594.4991503 250.09811704 594.49937078 248.759624 594.49959111 C246.07451598 594.50003366 243.38940795 594.50048077 240.70429993 594.50093079 C240.03855199 594.50104018 239.37280405 594.50114957 238.68688194 594.50126227 C217.10968385 594.50489129 195.53251939 594.5208061 173.95533418 594.54412115 C151.12623878 594.56874369 128.29715986 594.58243158 105.46805048 594.58363223 C93.03015457 594.58454821 80.5923027 594.59028111 68.15441895 594.60845184 C57.56176755 594.62387245 46.96917379 594.62896173 36.3765133 594.62071374 C30.97520221 594.61681411 25.57400714 594.61770327 20.17271042 594.63177109 C15.22040547 594.64455113 10.26830321 594.64327656 5.31599838 594.63118038 C3.53196674 594.62923047 1.74792054 594.63226887 -0.03609067 594.64102474 C-23.46449911 594.74865741 -43.41187151 589.67820151 -60.93534851 573.07319641 C-78.00784985 555.28729083 -83.53925011 533.10297583 -83.17753601 509.13960266 C-83.15731986 506.98238533 -83.13815529 504.82515795 -83.11991882 502.66792297 C-83.10948547 501.55034607 -83.09905212 500.43276917 -83.08830261 499.28132629 C-82.65450737 445.61763471 -84.3087448 376.03583269 -124.32597351 335.06929016 C-136.16116976 323.85139732 -149.59089542 319.72613043 -165.18534851 316.26069641 C-165.18534851 303.72069641 -165.18534851 291.18069641 -165.18534851 278.26069641 C-162.29784851 277.55944641 -159.41034851 276.85819641 -156.43534851 276.13569641 C-137.21815005 271.1902022 -122.92759073 261.04283747 -112.18534851 244.26069641 C-88.92230829 204.77713791 -83.16215678 156.89324301 -83.00956726 111.76069641 C-82.99230158 109.74380595 -82.97501142 107.72691539 -82.95636463 105.71003723 C-82.91147991 100.8259046 -82.87305146 95.9419 -82.85942078 91.05757141 C-82.7618229 60.7773299 -82.7618229 60.7773299 -78.18534851 49.26069641 C-77.86703064 48.44504211 -77.54871277 47.62938782 -77.2207489 46.78901672 C-76.35459623 44.76155092 -75.40982568 42.83032135 -74.37284851 40.88569641 C-73.85355774 39.8849408 -73.85355774 39.8849408 -73.32377625 38.8639679 C-70.47721404 33.51893737 -67.26590855 28.7519338 -63.18534851 24.26069641 C-62.53179382 23.51561829 -61.87823914 22.77054016 -61.20487976 22.00288391 C-44.53405405 4.08706029 -23.27524328 -0.05379411 0 0 Z " fill="#8512FB" transform="translate(304.1853485107422,214.7393035888672)"/>
<path d="M0 0 C1.18754883 0.00708984 2.37509766 0.01417969 3.59863281 0.02148438 C4.57101898 0.02142395 4.57101898 0.02142395 5.56304932 0.0213623 C6.94170773 0.02672593 8.32036449 0.04434563 9.69873047 0.07324219 C11.75361975 0.11427318 13.80513136 0.11437693 15.86035156 0.10742188 C37.71386312 0.21233085 56.82985234 6.57238159 72.86425781 21.92773438 C93.82267459 43.81964385 95.25737427 70.25438309 95.01184082 98.86288452 C94.61769607 151.26336325 96.93591217 218.70852036 135.41503906 259.09570312 C147.58928773 270.68745186 160.94426231 275.03579093 177.05175781 278.61523438 C177.05175781 291.15523438 177.05175781 303.69523437 177.05175781 316.61523438 C174.16425781 317.31648438 171.27675781 318.01773437 168.30175781 318.74023438 C147.54681869 324.081462 132.96244539 335.55442518 122.05957031 353.98242188 C107.61827278 379.71701172 101.28146296 408.46479054 97.73925781 437.55273438 C97.57989746 438.85355957 97.42053711 440.15438477 97.25634766 441.49462891 C94.98859098 461.45438808 94.93052414 481.35638038 95.22314453 501.42089844 C95.46752311 519.25229701 95.20048374 536.34113131 87.05175781 552.61523438 C86.42333984 553.97841797 86.42333984 553.97841797 85.78222656 555.36914062 C81.83612458 563.36369305 76.28993874 569.36785259 70.05175781 575.61523438 C69.46652344 576.21207031 68.88128906 576.80890625 68.27832031 577.42382812 C55.35354154 589.52850672 37.61770484 594.79084862 20.23574066 594.74666214 C19.47576629 594.74871477 18.71579191 594.75076741 17.93278801 594.75288224 C15.38954241 594.75853079 12.84635133 594.75709765 10.30310059 594.75567627 C8.4598384 594.75826114 6.61657676 594.76127464 4.77331591 594.76467967 C-0.28981732 594.77273868 -5.35293635 594.77453863 -10.41607523 594.77527714 C-15.87778 594.77712962 -21.33947745 594.78467798 -26.80117798 594.79141235 C-38.74353751 594.80498873 -50.68589369 594.81101941 -62.62825966 594.81542301 C-70.0874552 594.8181868 -77.54664945 594.82242442 -85.00584412 594.82692719 C-105.66450163 594.8391193 -126.32315812 594.8494185 -146.98181915 594.85280228 C-148.31714295 594.85302391 -149.65246675 594.85324569 -150.98779055 594.85346763 C-152.32628359 594.85368827 -153.66477663 594.85390875 -155.00326967 594.85412908 C-157.6883777 594.85457162 -160.37348572 594.85501874 -163.05859375 594.85546875 C-163.72434169 594.85557814 -164.39008962 594.85568753 -165.07601174 594.85580024 C-186.65320983 594.85942925 -208.23037428 594.87534407 -229.8075595 594.89865911 C-252.6366549 594.92328166 -275.46573382 594.93696954 -298.2948432 594.93817019 C-310.7327391 594.93908617 -323.17059097 594.94481907 -335.60847473 594.96298981 C-346.20112613 594.97841042 -356.79371988 594.98349969 -367.38638037 594.9752517 C-372.78769146 594.97135208 -378.18888654 594.97224124 -383.59018326 594.98630905 C-388.54248821 594.99908909 -393.49459046 594.99781452 -398.4468953 594.98571834 C-400.23092694 594.98376843 -402.01497314 594.98680683 -403.79898435 594.9955627 C-423.81780491 595.08753136 -443.08284929 592.06143616 -458.94824219 578.61523438 C-458.94824219 574.33366628 -456.41324988 572.34589185 -453.69824219 569.30273438 C-450.10518736 565.23343474 -446.91671538 561.18014348 -443.94824219 556.61523438 C-443.07917273 555.53073362 -442.18628681 554.46445553 -441.26074219 553.42773438 C-438.50972915 550.2746502 -435.80841867 547.08517319 -433.13574219 543.86523438 C-431.98138672 542.48078125 -431.98138672 542.48078125 -430.80371094 541.06835938 C-428.79241276 538.68121371 -428.79241276 538.68121371 -427.94824219 535.61523438 C-427.30886719 535.30585937 -426.66949219 534.99648438 -426.01074219 534.67773438 C-423.84695533 533.82486667 -423.84695533 533.82486667 -423.15917969 531.97851562 C-421.39499109 528.5355024 -418.95205702 525.72738566 -416.51074219 522.74023438 C-415.41641455 521.387837 -414.32267703 520.03496193 -413.22949219 518.68164062 C-412.40191406 517.65901123 -412.40191406 517.65901123 -411.55761719 516.61572266 C-409.17919246 513.65928876 -406.84484363 510.66918973 -404.51074219 507.67773438 C-400.52947324 502.58573336 -396.47472772 497.55854619 -392.38574219 492.55273438 C-382.6940845 480.77739619 -382.6940845 480.77739619 -373.81933594 468.39257812 C-371.94824219 465.61523438 -371.94824219 465.61523438 -369.57324219 463.30273438 C-366.59950031 460.25818912 -364.51087057 457.01600271 -362.28027344 453.40820312 C-361.84070313 452.81652344 -361.40113281 452.22484375 -360.94824219 451.61523438 C-360.28824219 451.61523438 -359.62824219 451.61523438 -358.94824219 451.61523438 C-358.67729736 451.03040283 -358.40635254 450.44557129 -358.12719727 449.84301758 C-356.95746246 447.63265724 -355.67991213 445.89103971 -354.08496094 443.97070312 C-353.52744141 443.29330078 -352.96992188 442.61589844 -352.39550781 441.91796875 C-351.81478516 441.21994141 -351.2340625 440.52191406 -350.63574219 439.80273438 C-345.75912162 433.92096665 -341.18992412 427.97775727 -336.94824219 421.61523438 C-336.28824219 421.61523438 -335.62824219 421.61523438 -334.94824219 421.61523438 C-334.69042969 421.05191406 -334.43261719 420.48859375 -334.16699219 419.90820312 C-332.81108422 417.35718398 -331.22470275 415.20476539 -329.44824219 412.92773438 C-328.83980469 412.14011719 -328.23136719 411.3525 -327.60449219 410.54101562 C-325.94824219 408.61523438 -325.94824219 408.61523438 -323.94824219 407.61523438 C-323.26204187 406.29184806 -322.60037758 404.9557349 -321.94824219 403.61523438 C-319.94824219 400.36523438 -319.94824219 400.36523438 -317.94824219 397.61523438 C-317.28824219 397.61523438 -316.62824219 397.61523438 -315.94824219 397.61523438 C-315.65949219 397.01710938 -315.37074219 396.41898438 -315.07324219 395.80273438 C-313.94824219 393.61523438 -313.94824219 393.61523438 -311.94824219 390.61523438 C-311.77711477 387.58623148 -311.72989761 384.65113321 -311.77050781 381.62304688 C-311.77472748 380.66219177 -311.77894714 379.70133667 -311.78329468 378.71136475 C-311.79341245 376.55541687 -311.80793216 374.39948667 -311.82606506 372.24359131 C-311.87159623 366.63233336 -311.88669394 361.02100426 -311.90293789 355.40959549 C-311.90714819 353.99898802 -311.91171673 352.58838157 -311.9166193 351.17777634 C-311.98746301 330.69057113 -311.85892175 310.20407417 -311.74698257 289.71721268 C-311.71773572 284.32116393 -311.689899 278.92510789 -311.66186523 273.52905273 C-311.61001187 263.59677159 -311.55670834 253.66449877 -311.50285816 243.73222828 C-311.44120922 232.34795051 -311.38129315 220.96366379 -311.32148457 209.57937622 C-311.19892627 186.25798557 -311.07431464 162.93660628 -310.94824219 139.61523438 C-310.61824219 139.61523438 -310.28824219 139.61523438 -309.94824219 139.61523438 C-309.94824219 243.89523437 -309.94824219 348.17523437 -309.94824219 455.61523438 C-199.6258835 465.91191702 -199.6258835 465.91191702 -91.41308594 425.16992188 C-74.96060191 408.1177435 -69.39600402 385.30774153 -69.73730469 362.27929688 C-70.43676395 341.21780136 -79.25643825 323.37619703 -94.33496094 308.89257812 C-108.25098712 296.76545815 -125.14395524 291.73098459 -142.94824219 288.61523438 C-139.85709181 286.55446746 -137.57240001 285.88182695 -134.01074219 284.92773438 C-122.37499494 281.41115298 -113.50244347 275.12464926 -104.94824219 266.61523438 C-104.01044922 265.72964844 -104.01044922 265.72964844 -103.05371094 264.82617188 C-91.15315262 252.63011436 -85.6573787 234.18206298 -85.51074219 217.49023438 C-85.80279237 196.88422761 -93.49018576 178.40264918 -108.10913086 163.90454102 C-115.11820082 157.29132854 -123.33441584 152.84500881 -131.94824219 148.61523438 C-129.7785653 147.66057654 -128.38495426 147.47122226 -126.12402344 148.21679688 C-124.37976789 148.97393823 -122.66197087 149.79132635 -120.94824219 150.61523438 C-120.61824219 149.62523437 -120.28824219 148.63523437 -119.94824219 147.61523438 C-118.29663031 145.93364769 -116.62637897 144.27035144 -114.94824219 142.61523438 C-112.69912225 140.01901502 -110.54256975 137.35081066 -108.38574219 134.67773438 C-107.82177734 133.98744141 -107.2578125 133.29714844 -106.67675781 132.5859375 C-103.5415239 128.71731553 -100.67862804 124.78517007 -97.94824219 120.61523438 C-96.9348737 119.3012494 -95.89710717 118.00525857 -94.82324219 116.74023438 C-94.32566406 116.1446875 -93.82808594 115.54914063 -93.31542969 114.93554688 C-91.94824219 113.61523438 -91.94824219 113.61523438 -89.94824219 113.61523438 C-89.94824219 112.29523438 -89.94824219 110.97523438 -89.94824219 109.61523438 C-87.74902344 107.22070313 -87.74902344 107.22070313 -84.94824219 104.61523438 C-81.53656874 100.68040056 -78.24741307 96.6444668 -74.94824219 92.61523438 C-74.15933594 91.65875 -73.37042969 90.70226562 -72.55761719 89.71679688 C-71.84089844 88.83765625 -71.12417969 87.95851563 -70.38574219 87.05273438 C-69.74507812 86.26769531 -69.10441406 85.48265625 -68.44433594 84.67382812 C-66.77251656 82.59125935 -66.77251656 82.59125935 -65.94824219 79.61523438 C-65.30886719 79.30585938 -64.66949219 78.99648438 -64.01074219 78.67773438 C-61.3801604 77.32258618 -61.17527744 76.28584052 -59.94824219 73.61523438 C-57.14544694 69.29828538 -53.94274012 65.38025398 -50.56152344 61.50976562 C-45.71774558 55.82155192 -41.09267619 49.83188538 -36.94824219 43.61523438 C-36.28824219 43.61523438 -35.62824219 43.61523438 -34.94824219 43.61523438 C-34.60792969 42.84179688 -34.60792969 42.84179688 -34.26074219 42.05273438 C-33.10537498 39.90705241 -31.8836848 37.93752387 -30.51074219 35.92773438 C-30.09953125 35.32574219 -29.68832031 34.72375 -29.26464844 34.10351562 C-27.94824219 32.61523438 -27.94824219 32.61523438 -24.94824219 31.61523438 C-24.94824219 30.29523438 -24.94824219 28.97523438 -24.94824219 27.61523438 C-23.329855 25.90164794 -21.65152538 24.24446178 -19.94824219 22.61523438 C-17.87306011 20.00400782 -15.91792552 17.30659232 -13.94824219 14.61523438 C-12.66761734 12.90773458 -11.35373779 11.22151507 -9.94824219 9.61523438 C-9.28824219 9.61523438 -8.62824219 9.61523438 -7.94824219 9.61523438 C-7.68011719 9.05835938 -7.41199219 8.50148437 -7.13574219 7.92773438 C-6.74386719 7.16460937 -6.35199219 6.40148437 -5.94824219 5.61523438 C-5.37154785 4.32456055 -5.37154785 4.32456055 -4.78320312 3.0078125 C-2.94824219 0.61523438 -2.94824219 0.61523438 0 0 Z " fill="#7510F6" transform="translate(707.9482421875,214.384765625)"/>
<path d="M0 0 C177.15675676 0 177.15675676 0 204 26 C204.62519531 26.54011719 205.25039063 27.08023437 205.89453125 27.63671875 C217.58165737 38.11028324 224.04539261 55.64207998 225.14160156 70.98144531 C226.17462106 90.1053272 221.78095492 109.28222319 208.91943359 124.02734375 C206.69030882 126.43820315 204.36372278 128.72032069 202 131 C201.36707031 131.66386719 200.73414063 132.32773437 200.08203125 133.01171875 C195.92119001 137.09907935 191.15621055 139.69035739 186 142.3125 C185.33524658 142.65055664 184.67049316 142.98861328 183.9855957 143.33691406 C179.40347683 145.56121079 174.97449958 146.90627632 170 148 C171.76150391 148.4021875 171.76150391 148.4021875 173.55859375 148.8125 C189.33386159 152.58265867 203.95642013 157.74684506 216 169 C216.83917969 169.74894531 217.67835938 170.49789062 218.54296875 171.26953125 C232.8791007 184.69474407 240.33467876 202.66299336 241.21875 222.15234375 C241.92610942 246.60028678 235.32456251 268.4356248 218.46337891 286.64990234 C199.69560948 305.97319269 172.90439221 313.1217342 147 316 C98.49 316 49.98 316 0 316 C0 211.72 0 107.44 0 0 Z " fill="#F7F0FD" transform="translate(398,354)"/>
<path d="M0 0 C176.66424915 0 176.66424915 0 201.79296875 23.7890625 C204.76046483 26.76181079 207.49714622 29.61776516 210 33 C209.67 33.99 209.34 34.98 209 36 C209.66 36 210.32 36 211 36 C211.99 37.98 211.99 37.98 213 40 C211.25 42 211.25 42 209 44 C207.68 44 206.36 44 205 44 C204.01 44.33 203.02 44.66 202 45 C201.34 45 200.68 45 200 45 C198.37485532 46.45833358 198.37485532 46.45833358 197 48 C196.34 47.34 195.68 46.68 195 46 C193.7018576 47.1490712 193.7018576 47.1490712 193 50 C190.67793475 50.70491267 188.34406932 51.37212429 186 52 C185.67 52.66 185.34 53.32 185 54 C184.01 54 183.02 54 182 54 C181.67 53.67 181.34 53.34 181 53 C180.8453125 53.8971875 180.8453125 53.8971875 180.6875 54.8125 C179.89363064 57.33844795 179.04427591 58.34885407 177 60 C176.01 60.33 175.02 60.66 174 61 C173.34 61.37125 172.68 61.7425 172 62.125 C170 63 170 63 167 62 C163 57.54285714 163 57.54285714 163 55 C162.43152344 54.72929687 161.86304688 54.45859375 161.27734375 54.1796875 C158.92738066 52.96238243 156.77988064 51.56835401 154.5625 50.125 C144.29567568 43.91326753 132.90604252 41.89168108 121.04516602 41.79467773 C120.27117179 41.78464501 119.49717756 41.77461229 118.69972897 41.76427555 C116.21781754 41.73313044 113.73588999 41.70821941 111.25390625 41.68359375 C109.71219389 41.66516812 108.1704864 41.64633029 106.62878418 41.6270752 C100.94008036 41.55889714 95.25128347 41.49867217 89.5625 41.4375 C70.4740625 41.2209375 70.4740625 41.2209375 51 41 C51 71.69 51 102.38 51 134 C74.43 134 97.86 134 122 134 C122 134.33 122 134.66 122 135 C98.24 135 74.48 135 50 135 C49.40665348 127.28649528 48.85160236 119.87203492 48.9375 112.1875 C48.94201172 111.38763672 48.94652344 110.58777344 48.95117188 109.76367188 C48.96267642 107.84241342 48.98059399 105.92119489 49 104 C48.34 104 47.68 104 47 104 C47.350625 104.7425 47.70125 105.485 48.0625 106.25 C49.0643951 109.18889228 49.21342017 110.1997996 48 113 C46.4375 114.75 46.4375 114.75 45 116 C44.01 115.01 44.01 115.01 43 114 C42.34 114.66 41.68 115.32 41 116 C40.34 115.01 39.68 114.02 39 113 C38.01 112.01 38.01 112.01 37 111 C36.34 111.66 35.68 112.32 35 113 C34.67 112.34 34.34 111.68 34 111 C33.34 111 32.68 111 32 111 C31.855625 110.195625 31.71125 109.39125 31.5625 108.5625 C31.25864751 106.07896294 31.25864751 106.07896294 30 105 C29.9071875 106.423125 29.9071875 106.423125 29.8125 107.875 C29.544375 108.90625 29.27625 109.9375 29 111 C26.4375 112.375 26.4375 112.375 24 113 C24.33 113.99 24.66 114.98 25 116 C24.34 116 23.68 116 23 116 C23 117.65 23 119.3 23 121 C23.33 119.68 23.66 118.36 24 117 C26.3125 117.125 26.3125 117.125 29 118 C30.8125 121.0625 30.8125 121.0625 32 124 C31.01 124.99 31.01 124.99 30 126 C29.34 125.34 28.68 124.68 28 124 C27.34 125.32 26.68 126.64 26 128 C25.01 127.01 24.02 126.02 23 125 C22.67 125.66 22.34 126.32 22 127 C22.99 127 23.98 127 25 127 C24.67 127.99 24.34 128.98 24 130 C23.01 130.33 22.02 130.66 21 131 C20.505 130.01 20.505 130.01 20 129 C19.01 129 18.02 129 17 129 C16.67 128.01 16.34 127.02 16 126 C15.34 126 14.68 126 14 126 C14 125.01 14 124.02 14 123 C14 124.32 14 125.64 14 127 C14.93283296 129.20067421 14.93283296 129.20067421 16 131 C15.34 131.99 14.68 132.98 14 134 C13.67 133.34 13.34 132.68 13 132 C12.34 133.65 11.68 135.3 11 137 C10.67 135.68 10.34 134.36 10 133 C9.34 133 8.68 133 8 133 C7.67 132.34 7.34 131.68 7 131 C6.01 131.99 6.01 131.99 5 133 C4.34 133 3.68 133 3 133 C1.99890485 129.68929162 1.89643866 126.69915231 1.9375 123.25 C1.94652344 122.26515625 1.95554687 121.2803125 1.96484375 120.265625 C1.97644531 119.51796875 1.98804688 118.7703125 2 118 C2.99 117.505 2.99 117.505 4 117 C4 116.34 4 115.68 4 115 C1.43921456 117.56078544 1.76012108 119.23105696 1.74004364 122.72195339 C1.74566566 123.52462674 1.75128769 124.32730009 1.75708008 125.15429688 C1.75520439 126.00172738 1.7533287 126.84915789 1.75139618 127.7222681 C1.74772136 130.55451844 1.75851821 133.38652148 1.76953125 136.21875 C1.77038735 138.21207156 1.77046999 140.20539358 1.76982117 142.19871521 C1.77097401 147.53240008 1.78530432 152.86597343 1.80276489 158.19962692 C1.81245667 161.48531023 1.8183152 164.7709768 1.82275391 168.05667114 C1.8653013 199.37902058 2.06750859 230.68961672 3 262 C3.33 262 3.66 262 4 262 C4 263.98 4 265.96 4 268 C4.66 268 5.32 268 6 268 C5.7834375 268.8353125 5.7834375 268.8353125 5.5625 269.6875 C4.97230872 272.11384195 4.476571 274.54906345 4 277 C3.67 277 3.34 277 3 277 C3 278.65 3 280.3 3 282 C3.721875 281.401875 4.44375 280.80375 5.1875 280.1875 C8 278 8 278 10.6875 276.4375 C13.25862684 275.06034626 13.25862684 275.06034626 15 272 C15.99 272.33 16.98 272.66 18 273 C18.99 272.67 19.98 272.34 21 272 C21.33 271.01 21.66 270.02 22 269 C22.99 269 23.98 269 25 269 C25.66 268.01 26.32 267.02 27 266 C27.33 266.33 27.66 266.66 28 267 C28.66 266.34 29.32 265.68 30 265 C30.99 265 31.98 265 33 265 C33.33 263.68 33.66 262.36 34 261 C34.33 261.33 34.66 261.66 35 262 C35.66 260.35 36.32 258.7 37 257 C37.680625 257.7425 37.680625 257.7425 38.375 258.5 C39.87635519 260.22609337 39.87635519 260.22609337 42 260 C42.33 257.69 42.66 255.38 43 253 C44.32 253.99 45.64 254.98 47 256 C47.5745952 252.26513121 48 248.78706732 48 245 C46.68 245.33 45.36 245.66 44 246 C44.66 245.34 45.32 244.68 46 244 C48.68701026 239.96948461 48.23476922 237.77364081 48 233 C48.33 232.34 48.66 231.68 49 231 C48.34 230.67 47.68 230.34 47 230 C47.66 230 48.32 230 49 230 C48.91621094 228.7934375 48.83242188 227.586875 48.74609375 226.34375 C48.64283711 224.72919169 48.53999464 223.11460686 48.4375 221.5 C48.38142578 220.70851563 48.32535156 219.91703125 48.26757812 219.1015625 C47.94810516 213.90480221 48.20313086 209.14718438 49 204 C49.33 204 49.66 204 50 204 C50.33 227.43 50.66 250.86 51 275 C65.05478759 274.87973577 65.05478759 274.87973577 79.109375 274.7421875 C84.851854 274.68216354 90.59430274 274.62405013 96.33691406 274.578125 C100.9730418 274.54091974 105.60899758 274.49447061 110.24497604 274.44193649 C112.00292278 274.42357778 113.76090611 274.40840361 115.51890945 274.39665604 C136.82149076 274.24937308 159.6635719 272.60252227 175.9609375 257.2265625 C186.32488025 245.90961352 187.75287012 232.84423675 187.34375 218.11328125 C186.79040794 207.35670689 183.34596408 197.97923684 176 190 C167.73654726 182.7941564 157.68218984 178.21705827 147 176 C147.99 175.67 148.98 175.34 150 175 C150.33 174.34 150.66 173.68 151 173 C151.78375 173.20625 152.5675 173.4125 153.375 173.625 C154.24125 173.74875 155.1075 173.8725 156 174 C156.66 173.34 157.32 172.68 158 172 C158.66 173.32 159.32 174.64 160 176 C160.33 175.01 160.66 174.02 161 173 C161.33 173.66 161.66 174.32 162 175 C166.29690839 172.66267575 166.29690839 172.66267575 168.875 168.75 C168.91625 168.1725 168.9575 167.595 169 167 C170.32 167.66 171.64 168.32 173 169 C173 169.66 173 170.32 173 171 C169.535 172.98 169.535 172.98 166 175 C166.495 175.61875 166.99 176.2375 167.5 176.875 C169 179 169 179 169 181 C171.41619823 181.25030977 171.41619823 181.25030977 174 181 C174.66 180.01 175.32 179.02 176 178 C176.99 178 177.98 178 179 178 C181.20142332 175.5609294 181.20142332 175.5609294 183 173 C183.33 173.33 183.66 173.66 184 174 C184.66 171.69 185.32 169.38 186 167 C186.33 167 186.66 167 187 167 C187.33 168.65 187.66 170.3 188 172 C188.66 171.34 189.32 170.68 190 170 C189.6814823 167.89179203 189.6814823 167.89179203 189 166 C189.66 165.67 190.32 165.34 191 165 C191.66 166.32 192.32 167.64 193 169 C195.475 168.01 195.475 168.01 198 167 C198.33 167.99 198.66 168.98 199 170 C199.825 170.33 200.65 170.66 201.5 171 C202.325 171.33 203.15 171.66 204 172 C204.33 172.99 204.66 173.98 205 175 C205.99 173.02 206.98 171.04 208 169 C214 169 214 169 216.5234375 171.23046875 C217.48166307 172.20865735 218.43191209 173.19470881 219.375 174.1875 C219.84421875 174.67025391 220.3134375 175.15300781 220.796875 175.65039062 C221.74101548 176.6219164 222.68088055 177.59761511 223.61645508 178.57739258 C224.92951368 179.92752359 226.29378302 181.22728904 227.66015625 182.5234375 C239.41500189 194.96512721 241.45103239 214.82342703 241.2109375 231.16796875 C240.4800174 253.70467193 231.68672231 273.7771596 215.52099609 289.60400391 C163.91202041 336.97159988 42.72963789 316 0 316 C0 211.72 0 107.44 0 0 Z M201 175 C201.66 175.66 202.32 176.32 203 177 C203 176.34 203 175.68 203 175 C202.34 175 201.68 175 201 175 Z " fill="#F2E7FD" transform="translate(398,354)"/>
<path d="M0 0 C176.66424915 0 176.66424915 0 201.79296875 23.7890625 C204.76046483 26.76181079 207.49714622 29.61776516 210 33 C209.67 33.99 209.34 34.98 209 36 C209.66 36 210.32 36 211 36 C211.99 37.98 211.99 37.98 213 40 C211.25 42 211.25 42 209 44 C207.68 44 206.36 44 205 44 C204.01 44.33 203.02 44.66 202 45 C201.34 45 200.68 45 200 45 C198.37485532 46.45833358 198.37485532 46.45833358 197 48 C196.34 47.34 195.68 46.68 195 46 C193.7018576 47.1490712 193.7018576 47.1490712 193 50 C190.67793475 50.70491267 188.34406932 51.37212429 186 52 C185.67 52.66 185.34 53.32 185 54 C184.01 54 183.02 54 182 54 C181.67 53.67 181.34 53.34 181 53 C180.8453125 53.8971875 180.8453125 53.8971875 180.6875 54.8125 C179.89363064 57.33844795 179.04427591 58.34885407 177 60 C176.01 60.33 175.02 60.66 174 61 C173.34 61.37125 172.68 61.7425 172 62.125 C170 63 170 63 167 62 C163 57.54285714 163 57.54285714 163 55 C162.43152344 54.72929687 161.86304688 54.45859375 161.27734375 54.1796875 C158.92738066 52.96238243 156.77988064 51.56835401 154.5625 50.125 C144.29567568 43.91326753 132.90604252 41.89168108 121.04516602 41.79467773 C120.27117179 41.78464501 119.49717756 41.77461229 118.69972897 41.76427555 C116.21781754 41.73313044 113.73588999 41.70821941 111.25390625 41.68359375 C109.71219389 41.66516812 108.1704864 41.64633029 106.62878418 41.6270752 C100.94008036 41.55889714 95.25128347 41.49867217 89.5625 41.4375 C70.4740625 41.2209375 70.4740625 41.2209375 51 41 C51 71.69 51 102.38 51 134 C74.43 134 97.86 134 122 134 C122 134.33 122 134.66 122 135 C98.24 135 74.48 135 50 135 C49.40665348 127.28649528 48.85160236 119.87203492 48.9375 112.1875 C48.94201172 111.38763672 48.94652344 110.58777344 48.95117188 109.76367188 C48.96267642 107.84241342 48.98059399 105.92119489 49 104 C48.34 104 47.68 104 47 104 C47.350625 104.7425 47.70125 105.485 48.0625 106.25 C49.0643951 109.18889228 49.21342017 110.1997996 48 113 C46.4375 114.75 46.4375 114.75 45 116 C44.01 115.01 44.01 115.01 43 114 C42.34 114.66 41.68 115.32 41 116 C40.34 115.01 39.68 114.02 39 113 C38.01 112.01 38.01 112.01 37 111 C36.34 111.66 35.68 112.32 35 113 C34.67 112.34 34.34 111.68 34 111 C33.34 111 32.68 111 32 111 C31.855625 110.195625 31.71125 109.39125 31.5625 108.5625 C31.25864751 106.07896294 31.25864751 106.07896294 30 105 C29.9071875 106.423125 29.9071875 106.423125 29.8125 107.875 C29.544375 108.90625 29.27625 109.9375 29 111 C26.4375 112.375 26.4375 112.375 24 113 C24.33 113.99 24.66 114.98 25 116 C24.34 116 23.68 116 23 116 C23 117.65 23 119.3 23 121 C23.33 119.68 23.66 118.36 24 117 C26.3125 117.125 26.3125 117.125 29 118 C30.8125 121.0625 30.8125 121.0625 32 124 C31.01 124.99 31.01 124.99 30 126 C29.34 125.34 28.68 124.68 28 124 C27.34 125.32 26.68 126.64 26 128 C25.01 127.01 24.02 126.02 23 125 C22.67 125.66 22.34 126.32 22 127 C22.99 127 23.98 127 25 127 C24.67 127.99 24.34 128.98 24 130 C23.01 130.33 22.02 130.66 21 131 C20.505 130.01 20.505 130.01 20 129 C19.01 129 18.02 129 17 129 C16.67 128.01 16.34 127.02 16 126 C15.34 126 14.68 126 14 126 C14 125.01 14 124.02 14 123 C14 124.32 14 125.64 14 127 C14.93283296 129.20067421 14.93283296 129.20067421 16 131 C15.34 131.99 14.68 132.98 14 134 C13.67 133.34 13.34 132.68 13 132 C12.34 133.65 11.68 135.3 11 137 C10.67 135.68 10.34 134.36 10 133 C9.34 133 8.68 133 8 133 C7.67 132.34 7.34 131.68 7 131 C6.01 131.99 6.01 131.99 5 133 C4.34 133 3.68 133 3 133 C1.99890485 129.68929162 1.89643866 126.69915231 1.9375 123.25 C1.94652344 122.26515625 1.95554687 121.2803125 1.96484375 120.265625 C1.97644531 119.51796875 1.98804688 118.7703125 2 118 C2.99 117.505 2.99 117.505 4 117 C4 116.34 4 115.68 4 115 C1.49524774 117.50475226 1.75245106 119.02220635 1.71566427 122.44043934 C1.717599 123.20502142 1.71953374 123.9696035 1.7215271 124.75735474 C1.7157347 125.56760695 1.7099423 126.37785917 1.70397437 127.21266448 C1.68689391 129.94276 1.68409099 132.6726873 1.68115234 135.40283203 C1.67185971 137.3538454 1.66169204 139.30485478 1.65071106 141.25585938 C1.62332202 146.56548046 1.60823536 151.87507488 1.59528303 157.18474817 C1.57969131 162.72881804 1.55288857 168.27283314 1.5272522 173.81686401 C1.48039408 184.32115278 1.44368408 194.82545177 1.41057932 205.3297919 C1.36527511 219.5201567 1.30437732 233.71045391 1.24433136 247.90076256 C1.15010149 270.26714122 1.07677737 292.63353886 1 315 C47.2 315 93.4 315 141 315 C141 315.33 141 315.66 141 316 C94.47 316 47.94 316 0 316 C0 211.72 0 107.44 0 0 Z " fill="#FCF9FE" transform="translate(398,354)"/>
<path d="M0 0 C16.6753125 -0.061875 16.6753125 -0.061875 33.6875 -0.125 C37.15080811 -0.14320801 40.61411621 -0.16141602 44.18237305 -0.18017578 C105.72268291 -0.37018353 105.72268291 -0.37018353 126 18 C136.10319777 29.341139 137.87644093 42.30886916 137.37890625 56.95703125 C136.6175023 69.76246126 131.57064198 79.93455504 122.3125 88.75 C108.43469065 100.02737853 89.97970646 103.19989028 72.54272461 103.11352539 C71.33676683 103.11370619 71.33676683 103.11370619 70.10644627 103.11389065 C67.53838261 103.11315221 64.97039419 103.10557343 62.40234375 103.09765625 C60.80310094 103.09618351 59.20385765 103.09516485 57.60461426 103.09460449 C51.71556876 103.08939008 45.82653362 103.07542885 39.9375 103.0625 C20.1684375 103.0315625 20.1684375 103.0315625 0 103 C0 69.01 0 35.02 0 0 Z " fill="#7A11F8" transform="translate(449,526)"/>
<path d="M0 0 C12.560625 -0.061875 25.12125 -0.12375 38.0625 -0.1875 C41.99808838 -0.21481201 45.93367676 -0.24212402 49.98852539 -0.27026367 C54.87194824 -0.28381348 54.87194824 -0.28381348 57.17308044 -0.28633118 C58.74744731 -0.29087548 60.32180513 -0.30129327 61.89610291 -0.31672668 C75.21428252 -0.4405252 88.61508652 0.00259409 100.625 6.4375 C102.28402344 7.30181641 102.28402344 7.30181641 103.9765625 8.18359375 C113.84114484 14.10999012 119.23070532 22.92282129 122 34 C124.00933559 46.73068097 123.17299694 59.02128097 116 70 C110.45246597 77.52321516 104.51476143 82.21963673 96 86 C95.18273437 86.37769531 94.36546875 86.75539063 93.5234375 87.14453125 C74.24693921 95.11175268 52.18810813 93.35754336 31.8125 93.1875 C21.314375 93.125625 10.81625 93.06375 0 93 C0 62.31 0 31.62 0 0 Z " fill="#7E11F9" transform="translate(449,395)"/>
</svg>
