<?xml version="1.0" encoding="UTF-8"?>
<svg version="1.1" xmlns="http://www.w3.org/2000/svg" width="420" height="420">
<path d="M0 0 C15.60935116 6.534147 26.7536869 28.2938745 33 43 C41.16552028 63.99705215 39.03737205 83.21187261 33.6640625 104.38085938 C27.47853015 128.22585842 27.47853015 128.22585842 34.3125 151.3125 C37.82275754 156.5304504 41.96722565 159.99201087 48 162 C55.45857701 162.88474155 61.80163866 162.42945543 68 158 C71.63025104 154.92217847 73.54317785 152.50053984 75 148 C75.23971089 145.10348171 75.23971089 145.10348171 75.125 142.1875 C75.10695313 141.21167969 75.08890625 140.23585937 75.0703125 139.23046875 C75.04710937 138.49441406 75.02390625 137.75835937 75 137 C102.30423713 146.78140295 125.47768284 173.70341997 138.00488281 199.03173828 C151.18365641 227.0515328 152.33688243 258.4738686 141.94775391 287.5703125 C128.08768871 323.1023498 97.51397298 347.00825746 63.56542969 361.92431641 C57.20878565 364.58965459 50.95534214 367 44 367 C44 366.34 44 365.68 44 365 C44.95519531 364.52691406 45.91039062 364.05382812 46.89453125 363.56640625 C65.63648734 354.07132541 80.93226326 340.65025949 87.8125 320.3125 C94.16971067 300.82939804 90.55041001 281.94633592 81.47265625 263.9765625 C69.5527378 242.15610002 48.1635717 227.37926841 27.91796875 213.95703125 C26.86625488 213.259729 25.81454102 212.56242676 24.73095703 211.84399414 C22.67436056 210.48481492 20.61432506 209.13081978 18.55029297 207.78295898 C4.12764583 198.28638228 -10.08316592 187.90524022 -16 171 C-16.4140625 168.54296875 -16.4140625 168.54296875 -16.625 166.1875 C-16.73714844 165.00220703 -16.73714844 165.00220703 -16.8515625 163.79296875 C-16.90054688 163.20128906 -16.94953125 162.60960937 -17 162 C-25.55519661 171.54138642 -30.4647491 183.23841071 -30.2734375 196.1328125 C-28.91208128 210.40760488 -21.04040532 221.81499367 -12.078125 232.484375 C-5.78957718 240.09682762 -2.66487488 247.68368864 -1.625 257.5625 C-2.50582635 265.63674157 -4.55257545 272.69284049 -11 278 C-16.97758299 281.85909093 -22.9774616 283.0616751 -30 282 C-37.21063519 280.11178129 -41.86637784 276.11641654 -46 270 C-50.08403271 262.76210573 -49.74504295 254.92305792 -48 247 C-64.25713649 260.37780714 -77.77097091 278.45271881 -80 300 C-81.16635841 318.82835717 -76.10353224 333.58553081 -64 348 C-63.2575 349.010625 -62.515 350.02125 -61.75 351.0625 C-56.53639788 357.28071648 -48.76273806 361.61335909 -42 366 C-42.33 366.66 -42.66 367.32 -43 368 C-75.83814363 357.96612278 -103.02830311 340.68101575 -120 310 C-123.68027389 303.06577237 -126.48492091 296.00017244 -128.75 288.5 C-128.94875732 287.84870117 -129.14751465 287.19740234 -129.35229492 286.52636719 C-132.4167012 275.79240743 -133.36908593 264.93729305 -133.3125 253.8125 C-133.30686035 252.63413574 -133.3012207 251.45577148 -133.29541016 250.24169922 C-133.16171674 240.55355964 -132.26735523 231.41445325 -130 222 C-129.80664062 221.18402344 -129.61328125 220.36804688 -129.4140625 219.52734375 C-121.82931555 188.48606457 -105.62209822 161.15633468 -85 137 C-84.01916658 135.8336399 -83.0387212 134.66695341 -82.05859375 133.5 C-77.21003681 127.75601977 -72.34072318 122.14245128 -66.92041016 116.92358398 C-65.0949325 115.09508939 -63.42615737 113.20591862 -61.7578125 111.234375 C-58.14406331 107.0752895 -54.24216626 103.34824303 -50.1875 99.625 C-13.76470992 66.69176066 -13.76470992 66.69176066 3.21875 21.9375 C3.39084807 15.74196933 3.00458604 10.56680834 0.65625 4.8046875 C0 3 0 3 0 0 Z " fill="#FC5826" transform="translate(201,24)"/>
<path d="M0 0 C-0.66 0.66 -1.32 1.32 -2 2 C-1.01 2.66 -0.02 3.32 1 4 C-1.41429769 4.84080019 -3.83103993 5.67281402 -6.25 6.5 C-7.27287109 6.85771484 -7.27287109 6.85771484 -8.31640625 7.22265625 C-11.76413003 8.39421287 -14.31702904 9 -18 9 C-18 8.34 -18 7.68 -18 7 C-15.56876731 5.63336613 -13.13113837 4.2816133 -10.6875 2.9375 C-9.99720703 2.54755859 -9.30691406 2.15761719 -8.59570312 1.75585938 C-3.33984375 -1.11328125 -3.33984375 -1.11328125 0 0 Z " fill="#AF6B53" transform="translate(263,382)"/>
<path d="M0 0 C4.10958767 1.45044271 7.43258745 3.51110752 11 6 C10.67 6.66 10.34 7.32 10 8 C6.7 7.01 3.4 6.02 0 5 C0.33 4.34 0.66 3.68 1 3 C0.67 2.01 0.34 1.02 0 0 Z " fill="#AB6A54" transform="translate(148,384)"/>
<path d="M0 0 C0.99 0.33 1.98 0.66 3 1 C2.34 1.66 1.68 2.32 1 3 C1.99 3.66 2.98 4.32 4 5 C1.09399739 6.25664978 -0.79604584 7 -4 7 C-3.39816251 4.97954558 -2.72693904 2.97888961 -2 1 C-1.34 0.67 -0.68 0.34 0 0 Z " fill="#DB7854" transform="translate(260,381)"/>
<path d="M0 0 C2.97 0 5.94 0 9 0 C9 0.33 9 0.66 9 1 C6.03 1 3.06 1 0 1 C0 0.67 0 0.34 0 0 Z " fill="#221D1B" transform="translate(271,419)"/>
<path d="M0 0 C2.64 0 5.28 0 8 0 C8 0.33 8 0.66 8 1 C5.36 1 2.72 1 0 1 C0 0.67 0 0.34 0 0 Z " fill="#221C1A" transform="translate(148,419)"/>
</svg>
