<?xml version="1.0" encoding="UTF-8"?>
<svg version="1.1" xmlns="http://www.w3.org/2000/svg" width="1600" height="1600">
<path d="M0 0 C0.9684082 0.53061035 1.93681641 1.0612207 2.93457031 1.60791016 C9.82124942 5.38769816 16.68270354 9.21125375 23.53369141 13.05517578 C26.82688827 14.90287308 30.12205185 16.74700383 33.41796875 18.58984375 C40.6429825 22.63102987 47.86348364 26.68025001 55.08398438 30.72949219 C68.01205876 37.9785358 80.95359163 45.20243295 93.91357422 52.39428711 C102.48159053 57.1509455 111.03422536 61.93454138 119.58154297 66.72827148 C127.25116386 71.02724811 134.93587244 75.29852926 142.625 79.5625 C150.93702349 84.17292761 159.231271 88.81236978 167.5 93.5 C179.14467263 100.10040388 190.8450369 106.59881964 202.55175781 113.08837891 C217.91261981 121.60406493 233.26331509 130.13722044 248.58203125 138.72851562 C256.25146244 143.02745908 263.93603144 147.29861743 271.625 151.5625 C279.93702349 156.17292761 288.231271 160.81236978 296.5 165.5 C308.14467263 172.10040388 319.8450369 178.59881964 331.55175781 185.08837891 C346.91261981 193.60406493 362.26331509 202.13722044 377.58203125 210.72851562 C385.25146221 215.02745896 392.93600629 219.29866306 400.625 223.5625 C408.8966614 228.14996129 417.14875107 232.76911458 425.375 237.4375 C434.04714594 242.3581094 442.76387769 247.19430647 451.5 252 C461.17062401 257.31975785 470.80743764 262.6942692 480.40722656 268.14111328 C487.66740667 272.25673262 494.95301933 276.32501367 502.25 280.375 C503.37067871 280.99721436 504.49135742 281.61942871 505.64599609 282.26049805 C510.89061297 285.17063454 516.13740851 288.07676093 521.38835144 290.97546387 C528.60553165 294.95997364 535.81087084 298.96502359 543 303 C543.81549316 303.45632813 544.63098633 303.91265625 545.47119141 304.3828125 C553.82952056 309.0923561 561.22230128 314.12029578 568 321 C568.85335938 321.85464844 569.70671875 322.70929688 570.5859375 323.58984375 C590.48256847 344.41259418 591.30499415 368.42881264 591.26069641 395.6386261 C591.26371892 398.26594569 591.26752846 400.89325357 591.27228898 403.5205695 C591.28102272 409.2212155 591.28237319 414.92182556 591.27878571 420.62247658 C591.27346494 429.09988373 591.27958779 437.57725627 591.28786864 446.05465966 C591.30309089 462.07809286 591.30481554 478.10151022 591.30234561 494.12494913 C591.30051138 506.50007675 591.30227529 518.87519919 591.30657005 531.25032616 C591.30717246 533.0296435 591.30777366 534.80896085 591.30837366 536.5882782 C591.30928093 539.26969439 591.3101896 541.95111059 591.31110601 544.63252678 C591.31953287 569.55574244 591.32387306 594.47895616 591.31969929 619.40217304 C591.31954291 620.34129333 591.31938654 621.28041361 591.31922542 622.24799208 C591.31841966 627.00758583 591.31757389 631.76717957 591.31671212 636.52677331 C591.31654103 637.4720063 591.31636994 638.4172393 591.31619367 639.39111571 C591.31584701 641.30260511 591.31549848 643.2140945 591.31514808 645.1255839 C591.30979104 674.86750711 591.31772192 704.60940068 591.33618164 734.35131836 C591.35690789 767.78398477 591.36762319 801.21663281 591.36360615 834.649306 C591.36321082 838.21561285 591.36284927 841.78191969 591.36250877 845.34822655 C591.36237268 846.66535192 591.36237268 846.66535192 591.36223383 848.00908589 C591.36106898 861.25135321 591.36770761 874.49360196 591.37832069 887.73586464 C591.39038167 902.79985869 591.39192128 917.86381187 591.37953053 932.92780653 C591.37291114 941.35177438 591.3745117 949.77564446 591.38811904 958.19960444 C591.39638505 963.83474883 591.39363816 969.46982026 591.38214377 975.10495876 C591.37590859 978.31020613 591.37590703 981.51522676 591.38600711 984.72046975 C591.46163834 1010.51972533 588.80134237 1033.2280383 570 1052.625 C564.03607098 1058.51032136 557.66799321 1062.73818653 550.33691406 1066.72460938 C547.66600014 1068.18228325 545.01653964 1069.67537532 542.3671875 1071.171875 C537.01685725 1074.18921241 531.65336205 1077.18228201 526.28613281 1080.16943359 C521.01885433 1083.10361294 515.75970804 1086.05227883 510.5 1089 C504.22751226 1092.5134182 497.95445868 1096.02581757 491.6796875 1099.53515625 C481.60795878 1105.16934113 471.54338657 1110.81542249 461.5 1116.5 C450.40527296 1122.77963839 439.28386607 1129.01100698 428.15722656 1135.23388672 C422.93706291 1138.15398136 417.71859227 1141.07709832 412.5 1144 C406.22741152 1147.51323852 399.95445881 1151.02581749 393.6796875 1154.53515625 C383.60795878 1160.16934113 373.54338657 1165.81542249 363.5 1171.5 C350.30355826 1178.96921324 337.06868279 1186.369364 323.83398438 1193.77050781 C312.71029032 1199.99194386 301.59187595 1206.22197534 290.5 1212.5 C279.40527296 1218.77963839 268.28386607 1225.01100698 257.15722656 1231.23388672 C251.93706291 1234.15398136 246.71859227 1237.07709832 241.5 1240 C235.22741152 1243.51323852 228.95445881 1247.02581749 222.6796875 1250.53515625 C212.60795878 1256.16934113 202.54338657 1261.81542249 192.5 1267.5 C179.30355826 1274.96921324 166.06868279 1282.369364 152.83398438 1289.77050781 C141.71029032 1295.99194386 130.59187595 1302.22197534 119.5 1308.5 C108.40527296 1314.77963839 97.28386607 1321.01100698 86.15722656 1327.23388672 C80.93706291 1330.15398136 75.71859227 1333.07709832 70.5 1336 C64.22741152 1339.51323852 57.95445881 1343.02581749 51.6796875 1346.53515625 C49.57808136 1347.7108595 47.47651874 1348.88664053 45.375 1350.0625 C44.34076904 1350.64112793 43.30653809 1351.21975586 42.2409668 1351.81591797 C36.21230641 1355.19181644 30.19436395 1358.58587104 24.18505859 1361.99609375 C19.46236142 1364.67413519 14.73263469 1367.33956641 10 1370 C9.02272949 1370.55026855 8.04545898 1371.10053711 7.03857422 1371.66748047 C4.1142157 1373.30862875 1.183243 1374.93729433 -1.75 1376.5625 C-2.61842529 1377.05121582 -3.48685059 1377.53993164 -4.3815918 1378.04345703 C-22.10255983 1387.79552459 -42.00457323 1391.27735792 -61.875 1386.5 C-70.06403174 1383.92477674 -77.483636 1380.06709494 -85 1376 C-86.84617272 1375.01528474 -88.69253867 1374.03093171 -90.5390625 1373.046875 C-102.50574082 1366.63840385 -114.35040086 1360.02235236 -126.15234375 1353.31640625 C-132.2532039 1349.85064007 -138.37530306 1346.42341759 -144.5 1343 C-152.51133602 1338.51985862 -160.51218175 1334.02193842 -168.5 1329.5 C-179.59467275 1323.22026645 -190.71613454 1316.98899268 -201.84277344 1310.76611328 C-208.10328908 1307.26405868 -214.36148612 1303.75786247 -220.62011719 1300.25244141 C-225.85275048 1297.32187215 -231.08594222 1294.39230956 -236.3203125 1291.46484375 C-247.34170521 1285.2994112 -258.35045319 1279.1126603 -269.34082031 1272.89208984 C-279.48992675 1267.15088304 -289.66585758 1261.4578339 -299.84277344 1255.76611328 C-306.10328908 1252.26405868 -312.36148612 1248.75786247 -318.62011719 1245.25244141 C-323.85275048 1242.32187215 -329.08594222 1239.39230956 -334.3203125 1236.46484375 C-345.34170521 1230.2994112 -356.35045319 1224.1126603 -367.34082031 1217.89208984 C-378.53949514 1211.55715696 -389.77038025 1205.2798583 -401 1199 C-414.1291297 1191.65789261 -427.24965906 1184.30171411 -440.34082031 1176.89208984 C-450.48992675 1171.15088304 -460.66585758 1165.4578339 -470.84277344 1159.76611328 C-477.10328908 1156.26405868 -483.36148612 1152.75786247 -489.62011719 1149.25244141 C-494.85275048 1146.32187215 -500.08594222 1143.39230956 -505.3203125 1140.46484375 C-516.34170521 1134.2994112 -527.35045319 1128.1126603 -538.34082031 1121.89208984 C-549.53949514 1115.55715696 -560.77038025 1109.2798583 -572 1103 C-598.52299588 1088.16773858 -598.52299588 1088.16773858 -611.44628906 1080.8371582 C-616.36292969 1078.04887629 -621.28931197 1075.280579 -626.234375 1072.54296875 C-627.77617432 1071.68457397 -627.77617432 1071.68457397 -629.34912109 1070.80883789 C-631.29659126 1069.72511175 -633.24720793 1068.64701077 -635.20166016 1067.57592773 C-653.44444587 1057.39095042 -667.26363568 1043.01565854 -674 1023 C-677.74452645 1009.11551529 -677.42175801 995.16040518 -677.38095093 980.88671875 C-677.38441147 978.24442973 -677.38905651 975.60216653 -677.39513266 972.95988464 C-677.40591363 967.23582293 -677.40567258 961.51184627 -677.39799118 955.78778076 C-677.38659958 947.27561679 -677.39246776 938.76352398 -677.4016161 930.25136042 C-677.41738186 915.04481554 -677.41605672 899.83830857 -677.40737936 884.63176012 C-677.3998231 871.32400139 -677.39786706 858.01625653 -677.4014473 844.70849609 C-677.40167645 843.82465598 -677.40190561 842.94081588 -677.40214171 842.03019273 C-677.40307577 838.44210733 -677.40403098 834.85402194 -677.405021 831.26593655 C-677.41419136 797.62906232 -677.40588814 763.99221218 -677.38973031 730.35534167 C-677.37549423 700.49208988 -677.37676814 670.62887646 -677.39111328 640.765625 C-677.40718839 607.18900463 -677.41354092 573.61240554 -677.40427649 540.03578186 C-677.40331438 536.45435588 -677.40237586 532.87292989 -677.4014473 529.29150391 C-677.40121006 528.40971037 -677.40097283 527.52791684 -677.40072841 526.61940229 C-677.39732062 513.32227146 -677.40129818 500.02515604 -677.40888596 486.72802734 C-677.41747352 471.60371668 -677.41529838 456.47944974 -677.39904372 441.3551445 C-677.39025338 432.89783731 -677.38963298 424.44062486 -677.40098225 415.98332018 C-677.4077347 410.32605457 -677.40347728 404.66886454 -677.39046794 399.01161009 C-677.38336801 395.79378514 -677.38248644 392.57618344 -677.39168589 389.35835838 C-677.45784765 364.28611832 -675.08541341 341.38024038 -657.14575195 322.08203125 C-649.25183742 314.42253607 -639.81436328 308.9193544 -630.1875 303.75 C-629.00070825 303.10330214 -627.81452188 302.45549221 -626.62890625 301.80664062 C-624.82264759 300.81826379 -623.0160886 299.83050341 -621.20761108 298.84619141 C-615.60186085 295.79439711 -610.04773944 292.6556218 -604.5 289.5 C-595.04713181 284.13800609 -585.5520057 278.85461854 -576.046875 273.5859375 C-568.84541545 269.5906072 -561.66395496 265.56215879 -554.5 261.5 C-545.09292351 256.16680908 -535.64850679 250.90322888 -526.19189453 245.65844727 C-515.47527059 239.71367618 -504.78199034 233.72776111 -494.09277344 227.73388672 C-488.89629255 224.8206086 -483.69805304 221.91047173 -478.5 219 C-476.41665834 217.8333482 -474.33332501 216.66668154 -472.25 215.5 C-369.125 157.75 -266 100 -131.62182617 24.74829102 C-129.54899447 23.58745987 -127.47623992 22.42649094 -125.40356445 21.26538086 C-120.03519693 18.25826713 -114.66530664 15.25392178 -109.29296875 12.25390625 C-108.18695312 11.63580078 -107.0809375 11.01769531 -105.94140625 10.38085938 C-103.85206786 9.21328792 -101.76226387 8.04654903 -99.671875 6.88085938 C-94.64626702 4.07124096 -89.66312493 1.20958296 -84.71484375 -1.734375 C-80.49032027 -4.20585327 -76.50257945 -6.23466267 -71.875 -7.8125 C-70.26238281 -8.37904297 -70.26238281 -8.37904297 -68.6171875 -8.95703125 C-44.19390047 -15.99916693 -21.85675292 -12.0637922 0 0 Z " fill="#0080CC" transform="translate(843,112)"/>
<path d="M0 0 C0.95181152 0.29455078 1.90362305 0.58910156 2.88427734 0.89257812 C62.05397163 19.28812518 117.24021864 50.39626828 164 91 C164.73476562 91.63421875 165.46953125 92.2684375 166.2265625 92.921875 C168.16187178 94.60274122 170.08137899 96.30011724 172 98 C172.69319336 98.60908203 173.38638672 99.21816406 174.10058594 99.84570312 C180.74462971 105.74344497 187.08917657 111.90296499 193.3684082 118.18310547 C195.05857346 119.87107855 196.75660834 121.55085724 198.45507812 123.23046875 C204.36611012 129.11141683 209.90249704 135.07968186 215.09790039 141.60986328 C216.69101277 143.61173341 218.31748641 145.55287234 220.01171875 147.46875 C231.79916216 160.8024058 242.14438682 175.26176793 251.81347656 190.18847656 C253.07015148 192.1071037 254.35690722 194.00312389 255.6484375 195.8984375 C256.49514686 197.16122025 257.34151343 198.42423292 258.1875 199.6875 C258.78655151 200.55242065 258.78655151 200.55242065 259.39770508 201.43481445 C262.02319268 205.41004539 262.02319268 205.41004539 261.92236328 207.97485352 C260.55901193 210.96823611 258.61776332 211.7479183 255.76171875 213.328125 C254.64603516 213.95460938 253.53035156 214.58109375 252.38085938 215.2265625 C251.14979612 215.90114486 249.91867469 216.57562105 248.6875 217.25 C247.41524671 217.95956058 246.14377332 218.67052117 244.87304688 219.3828125 C242.23004865 220.86288157 239.58378084 222.33684154 236.93505859 223.80664062 C230.92465288 227.14835328 224.96512737 230.57829492 219 234 C216.66720942 235.33428382 214.3336036 236.66713877 212 238 C210.83331831 238.66664038 209.66665164 239.33330704 208.5 240 C178.16666667 257.33333333 147.83333333 274.66666667 117.5 292 C116.92262589 292.3299295 116.34525177 292.65985901 115.75038147 292.99978638 C114.58244824 293.66717388 113.41451 294.33455261 112.24656677 295.00192261 C109.34923745 296.65748891 106.4520118 298.31323597 103.55493164 299.96923828 C98.07434183 303.10177793 92.59293864 306.23286199 87.10873413 309.35906982 C84.51057333 310.8402341 81.91286175 312.32218525 79.31518555 313.80419922 C78.07354855 314.51227617 76.83169015 315.21996505 75.58959961 315.92724609 C73.87037561 316.9062519 72.15196576 317.88668703 70.43359375 318.8671875 C69.45447021 319.42519043 68.47534668 319.98319336 67.46655273 320.55810547 C65.60759664 321.64481186 63.79164378 322.80557081 62 324 C61.01 324 60.02 324 59 324 C57.52927044 321.9838749 56.2629751 320.01671323 55 317.875 C47.34689487 305.47081676 38.06748823 294.50285732 28 284 C27.49742676 283.47019531 26.99485352 282.94039062 26.47705078 282.39453125 C19.07551044 274.62625831 11.32896524 267.68493439 2.71777344 261.28222656 C1.09207157 260.06872653 -0.51326091 258.82807614 -2.1171875 257.5859375 C-31.80355181 235.30301857 -67.38194048 221.38835695 -104 216 C-105.29550781 215.79632812 -106.59101562 215.59265625 -107.92578125 215.3828125 C-166.58034744 207.16763983 -228.29414118 222.19290831 -275.859375 257.59765625 C-293.62308863 271.18557153 -310.38631567 286.27936953 -323.73388672 304.29833984 C-324.9392921 305.9184084 -326.17402748 307.51653145 -327.41015625 309.11328125 C-363.64376946 356.76033496 -377.04721683 419.19142593 -369.97094727 478.01635742 C-362.75258085 527.57947987 -340.30756765 571.88911439 -306 608 C-305.49307617 608.53560547 -304.98615234 609.07121094 -304.46386719 609.62304688 C-297.07236136 617.3788253 -289.3326674 624.31428664 -280.73535156 630.70898438 C-279.60478336 631.55007113 -278.47885704 632.39744514 -277.35839844 633.25195312 C-262.28412555 644.74665547 -245.57993945 653.97418244 -228.05419922 661.15478516 C-226.15239583 661.93729565 -224.26489017 662.7543142 -222.37890625 663.57421875 C-208.81871627 669.13550226 -194.29774666 671.97614643 -180 675 C-179.05205566 675.20173828 -178.10411133 675.40347656 -177.12744141 675.61132812 C-152.47026056 680.49858065 -122.55693357 680.48674276 -98 675 C-97.02708008 674.79068848 -96.05416016 674.58137695 -95.05175781 674.36572266 C-38.74666222 662.10700154 12.45738254 632.99552817 47 586 C47.44891602 585.3905957 47.89783203 584.78119141 48.36035156 584.15332031 C53.16580373 577.59605928 57.81474014 570.97543309 62 564 C69.70717591 567.62983123 77.10529274 571.7170196 84.5 575.9375 C93.36506448 580.99402237 102.30566122 585.88991939 111.3125 590.6875 C120.30752758 595.48139342 129.26795873 600.32545576 138.1640625 605.30078125 C144.36541688 608.76890666 150.59020942 612.1946415 156.8125 615.625 C158.0637309 616.31500429 159.31495155 617.00502718 160.56616211 617.69506836 C163.10996543 619.09792896 165.65383816 620.5006636 168.19775391 621.90332031 C173.09913431 624.60594332 177.9997872 627.30988447 182.90039062 630.01391602 C185.30392663 631.34012432 187.70757876 632.6661218 190.11132812 633.99194336 C195.59733177 637.01797791 201.08275448 640.04504495 206.56556702 643.07685852 C209.64752905 644.78103733 212.72993117 646.48441905 215.8125 648.1875 C216.41303192 648.51934296 217.01356384 648.85118591 217.6322937 649.19308472 C227.07371592 654.40819921 236.55244334 659.55204477 246.04614258 664.67138672 C252.7805009 668.31280395 259.44301326 672.04567686 266 676 C265.0661408 680.32116749 262.98963823 683.7959925 260.75 687.5625 C260.30962402 688.30556396 259.86924805 689.04862793 259.41552734 689.81420898 C245.38739725 713.15306643 228.65379631 735.56592141 210.1953125 755.59375 C208.99053787 756.91428589 207.7934668 758.24261741 206.63476562 759.60375977 C201.37240159 765.76707015 195.69518582 771.49093371 189.96777344 777.2175293 C188.26205402 778.92543056 186.56450973 780.64118045 184.8671875 782.35742188 C178.94219141 788.31210588 172.94254973 793.91348372 166.34326172 799.12426758 C164.10000362 800.91994918 161.98184625 802.79733313 159.875 804.75 C119.0913135 841.32469394 66.79321213 869.28746566 15.27441406 886.86914062 C13.13925189 887.60654528 11.01099757 888.36436114 8.89135742 889.14526367 C0.08243125 892.3896241 -8.80117858 895.05444186 -17.875 897.4375 C-18.60144714 897.62942932 -19.32789429 897.82135864 -20.07635498 898.019104 C-112.70292237 922.3463649 -220.75578622 920.07984795 -309.23828125 881.19921875 C-311.91490562 880.03695046 -314.6204649 878.97595232 -317.34301758 877.92675781 C-324.05485919 875.32485583 -330.49404565 872.37337875 -336.89770508 869.08691406 C-340.20462263 867.3912216 -343.51223508 865.74478643 -346.91015625 864.23828125 C-383.70821613 847.87656879 -418.99244735 822.47711009 -448.59375 795.1953125 C-449.91239904 793.99225932 -451.23897158 792.79699636 -452.59936523 791.64135742 C-458.81821718 786.3389336 -464.56318843 780.58840761 -470.32739258 774.80297852 C-472.058947 773.066064 -473.79578359 771.33456111 -475.53320312 769.60351562 C-481.23369856 763.90715605 -486.82851599 758.18866165 -492 752 C-492.54325928 751.35812744 -493.08651855 750.71625488 -493.64624023 750.05493164 C-515.15241128 724.51850477 -533.72923199 697.14294219 -550 668 C-550.44214844 667.21882812 -550.88429688 666.43765625 -551.33984375 665.6328125 C-564.40731627 642.42888934 -574.6433725 617.24442235 -583 592 C-583.3098584 591.07026367 -583.6197168 590.14052734 -583.93896484 589.18261719 C-611.63812607 505.03737621 -613.12590184 413.28839265 -555.47412109 233.85742188 C-539.03891593 201.99958132 -518.97159601 171.88425347 -495.50048828 144.78759766 C-494.38995606 143.4645718 -493.3093207 142.11632265 -492.24560547 140.75537109 C-485.68597518 132.43984072 -478.32921095 125.02496318 -470.82617188 117.56542969 C-468.6291716 115.37915124 -466.44307322 113.18238062 -464.2578125 110.984375 C-456.80532146 103.52486406 -449.29598291 96.51814466 -441 90 C-439.83525958 89.00595695 -438.67785776 88.0031864 -437.53125 86.98828125 C-423.66244259 74.72774409 -408.5748921 63.98017289 -393 54 C-392.26185059 53.52272461 -391.52370117 53.04544922 -390.76318359 52.55371094 C-333.85141326 15.90660014 -269.91192442 -7.35543108 -203 -17 C-201.53512254 -17.22373773 -200.07027315 -17.44765945 -198.60546875 -17.671875 C-194.74312491 -18.21482429 -190.88293599 -18.64369908 -187 -19 C-186.05624512 -19.08878418 -185.11249023 -19.17756836 -184.14013672 -19.26904297 C-122.03302115 -24.87731456 -59.51167877 -18.80711836 0 0 Z " fill="#FDFDFD" transform="translate(939,354)"/>
<path d="M0 0 C2.81939632 2.64980291 4.87520012 5.17121541 6.77734375 8.53515625 C7.53736694 9.85845947 7.53736694 9.85845947 8.31274414 11.20849609 C8.84891357 12.15031738 9.38508301 13.09213867 9.9375 14.0625 C24.53832787 39.2114781 42.0813395 63.19351816 61.8046875 84.59375 C63.01503727 85.92039672 64.21747242 87.25498487 65.3828125 88.62133789 C70.51113941 94.62020452 76.02765384 100.21378678 81.60498047 105.7902832 C83.23827448 107.42575882 84.8633847 109.06907708 86.48828125 110.71289062 C92.28873598 116.54366419 98.18139181 122.00050474 104.63916016 127.10668945 C106.88706312 128.90942859 109.01218115 130.79195742 111.125 132.75 C127.99099276 147.87537429 147.30843677 160.63399827 166.55419922 172.49121094 C168.18917507 173.49981054 169.82100957 174.51351964 171.44970703 175.53222656 C183.18769414 182.8699244 195.13924069 189.1863298 207.72729492 194.94042969 C209.86313078 195.93618945 211.96612707 196.9785428 214.06640625 198.046875 C221.50894896 201.80247371 229.28408557 204.85776586 237 208 C238.21695557 208.4957251 238.21695557 208.4957251 239.45849609 209.00146484 C282.45876336 226.33819034 327.90324837 235.95244344 374 240 C375.18070068 240.10803955 375.18070068 240.10803955 376.38525391 240.21826172 C461.0634027 247.63030307 546.5128266 227.84453912 622 190 C623.38010254 189.31188232 623.38010254 189.31188232 624.78808594 188.60986328 C658.97451826 171.4672626 691.44609409 149.13736851 719.59375 123.1953125 C720.92039672 121.98496273 722.25498487 120.78252758 723.62133789 119.6171875 C729.62020452 114.48886059 735.21378678 108.97234616 740.7902832 103.39501953 C742.42575882 101.76172552 744.06907708 100.1366153 745.71289062 98.51171875 C751.54366419 92.71126402 757.00050474 86.81860819 762.10668945 80.36083984 C763.90942859 78.11293688 765.79195742 75.98781885 767.75 73.875 C782.35995259 57.58374334 794.69041762 38.98410476 806.2109375 20.4375 C808.18901455 17.27370463 810.18852553 14.12556609 812.2265625 11 C812.70947754 10.2575 813.19239258 9.515 813.68994141 8.75 C815 7 815 7 817 6 C819.80349741 7.29201976 822.47913935 8.65303526 825.1875 10.125 C826.0319165 10.57657471 826.87633301 11.02814941 827.74633789 11.4934082 C835.16473005 15.48657321 842.48584284 19.64927443 849.80419922 23.82202148 C857.57437189 28.23633763 865.42632875 32.48566922 873.3125 36.6875 C882.307378 41.48167848 891.26795358 46.32545288 900.1640625 51.30078125 C906.36541545 54.76890586 912.59011591 58.19481322 918.8125 61.625 C921.32293696 63.00907778 923.83334691 64.39320455 926.34375 65.77734375 C926.97529999 66.12552155 927.60684998 66.47369934 928.25753784 66.83242798 C932.66295675 69.26155145 937.06628828 71.69442818 941.46875 74.12890625 C943.91651072 75.48205315 946.36443715 76.83489977 948.8125 78.1875 C949.41569061 78.52079315 950.01888123 78.8540863 950.64035034 79.19747925 C958.86165504 83.73822399 967.10748391 88.23133657 975.375 92.6875 C984.12829984 97.40689743 992.80291321 102.25127943 1001.44702148 107.16748047 C1011.55983221 112.90938861 1021.77236116 118.46587699 1032 124 C1032.96345444 122.12762629 1033.92053102 120.2519701 1034.875 118.375 C1035.40867187 117.33085938 1035.94234375 116.28671875 1036.4921875 115.2109375 C1037.91454291 112.18198375 1039.0122001 109.19356666 1040 106 C1041.82828364 110.83352486 1039.55380014 114.31945947 1037.5625 118.7890625 C1029.9235131 134.48718058 1018.52159957 145.46762893 1003.33691406 153.72460938 C1000.66600014 155.18228325 998.01653964 156.67537532 995.3671875 158.171875 C990.01685725 161.18921241 984.65336205 164.18228201 979.28613281 167.16943359 C974.01885433 170.10361294 968.75970804 173.05227883 963.5 176 C957.22751226 179.5134182 950.95445868 183.02581757 944.6796875 186.53515625 C934.60795878 192.16934113 924.54338657 197.81542249 914.5 203.5 C903.40527296 209.77963839 892.28386607 216.01100698 881.15722656 222.23388672 C875.93706291 225.15398136 870.71859227 228.07709832 865.5 231 C859.22741152 234.51323852 852.95445881 238.02581749 846.6796875 241.53515625 C836.60795878 247.16934113 826.54338657 252.81542249 816.5 258.5 C803.30355826 265.96921324 790.06868279 273.369364 776.83398438 280.77050781 C765.71029032 286.99194386 754.59187595 293.22197534 743.5 299.5 C732.40527296 305.77963839 721.28386607 312.01100698 710.15722656 318.23388672 C704.93706291 321.15398136 699.71859227 324.07709832 694.5 327 C688.22741152 330.51323852 681.95445881 334.02581749 675.6796875 337.53515625 C665.60795878 343.16934113 655.54338657 348.81542249 645.5 354.5 C632.30355826 361.96921324 619.06868279 369.369364 605.83398438 376.77050781 C594.71029032 382.99194386 583.59187595 389.22197534 572.5 395.5 C561.40527296 401.77963839 550.28386607 408.01100698 539.15722656 414.23388672 C533.93706291 417.15398136 528.71859227 420.07709832 523.5 423 C517.22741152 426.51323852 510.95445881 430.02581749 504.6796875 433.53515625 C502.57808136 434.7108595 500.47651874 435.88664053 498.375 437.0625 C497.34076904 437.64112793 496.30653809 438.21975586 495.2409668 438.81591797 C489.21230641 442.19181644 483.19436395 445.58587104 477.18505859 448.99609375 C472.46236142 451.67413519 467.73263469 454.33956641 463 457 C462.02272949 457.55026855 461.04545898 458.10053711 460.03857422 458.66748047 C457.1142157 460.30862875 454.183243 461.93729433 451.25 463.5625 C450.38157471 464.05121582 449.51314941 464.53993164 448.6184082 465.04345703 C430.89744017 474.79552459 410.99542677 478.27735792 391.125 473.5 C382.93596826 470.92477674 375.516364 467.06709494 368 463 C366.15382728 462.01528474 364.30746133 461.03093171 362.4609375 460.046875 C350.49425918 453.63840385 338.64959914 447.02235236 326.84765625 440.31640625 C320.7467961 436.85064007 314.62469694 433.42341759 308.5 430 C300.48866398 425.51985862 292.48781825 421.02193842 284.5 416.5 C273.40532725 410.22026645 262.28386546 403.98899268 251.15722656 397.76611328 C244.89671092 394.26405868 238.63851388 390.75786247 232.37988281 387.25244141 C227.14724952 384.32187215 221.91405778 381.39230956 216.6796875 378.46484375 C205.65829479 372.2994112 194.64954681 366.1126603 183.65917969 359.89208984 C173.51007325 354.15088304 163.33414242 348.4578339 153.15722656 342.76611328 C146.89671092 339.26405868 140.63851388 335.75786247 134.37988281 332.25244141 C129.14724952 329.32187215 123.91405778 326.39230956 118.6796875 323.46484375 C107.65829479 317.2994112 96.64954681 311.1126603 85.65917969 304.89208984 C74.46050486 298.55715696 63.22961975 292.2798583 52 286 C38.8708703 278.65789261 25.75034094 271.30171411 12.65917969 263.89208984 C2.51007325 258.15088304 -7.66585758 252.4578339 -17.84277344 246.76611328 C-24.10328908 243.26405868 -30.36148612 239.75786247 -36.62011719 236.25244141 C-41.85275048 233.32187215 -47.08594222 230.39230956 -52.3203125 227.46484375 C-63.34170521 221.2994112 -74.35045319 215.1126603 -85.34082031 208.89208984 C-96.53949514 202.55715696 -107.77038025 196.2798583 -119 190 C-145.52299588 175.16773858 -145.52299588 175.16773858 -158.44628906 167.8371582 C-163.36292969 165.04887629 -168.28931197 162.280579 -173.234375 159.54296875 C-174.26224121 158.97070557 -175.29010742 158.39844238 -176.34912109 157.80883789 C-178.29659126 156.72511175 -180.24720793 155.64701077 -182.20166016 154.57592773 C-196.43065242 146.63185791 -207.91550796 136.24303862 -216 122 C-216.55880859 121.04867188 -216.55880859 121.04867188 -217.12890625 120.078125 C-218 118.5 -218 118.5 -219 116 C-218.67 115.01 -218.34 114.02 -218 113 C-216.02 116.465 -216.02 116.465 -214 120 C-209.88598471 119.40573776 -206.95337406 118.04782817 -203.37109375 115.96484375 C-202.26805908 115.32853027 -201.16502441 114.6922168 -200.02856445 114.03662109 C-198.83152137 113.33695101 -197.6345005 112.63724294 -196.4375 111.9375 C-195.18687906 111.21359997 -193.9358131 110.49046828 -192.68432617 109.76806641 C-190.08236964 108.26525123 -187.48236316 106.75914423 -184.88378906 105.25048828 C-179.45386598 102.10059176 -174.0052011 98.98358886 -168.55435181 95.87008667 C-166.80363587 94.86993609 -165.05354103 93.86870457 -163.3034668 92.86743164 C-155.64502926 88.48945279 -147.95553589 84.16945392 -140.25 79.875 C-131.10554429 74.77785402 -122.04640908 69.55001254 -113.01855469 64.24951172 C-104.85881504 59.47076913 -96.61791893 54.84823314 -88.35546875 50.25 C-81.18646043 46.25035401 -74.07913415 42.15641748 -67 38 C-57.78953672 32.59364482 -48.50868837 27.32800367 -39.1796875 22.12915039 C-31.41820596 17.802467 -23.69145485 13.41859175 -15.9855957 8.99365234 C-10.68186239 5.95010956 -5.35323657 2.95563256 0 0 Z " fill="#00549D" transform="translate(390,1025)"/>
<path d="M0 0 C0.41693115 0.42853271 0.8338623 0.85706543 1.26342773 1.29858398 C3.53348858 3.52268831 5.97338398 4.74214725 8.78515625 6.22265625 C9.94587646 6.83810303 11.10659668 7.4535498 12.30249023 8.08764648 C13.22226151 8.57066727 13.22226151 8.57066727 14.16061401 9.06344604 C17.37601612 10.75248536 20.58173382 12.45975828 23.7890625 14.1640625 C24.42273239 14.50012009 25.05640228 14.83617767 25.70927429 15.18241882 C30.48171795 17.71563668 35.22298724 20.29831072 39.9375 22.9375 C41.34634565 23.72527564 42.75520018 24.51303541 44.1640625 25.30078125 C44.91461914 25.72053223 45.66517578 26.1402832 46.43847656 26.57275391 C51.88643944 29.60828488 57.35085291 32.61418141 62.8125 35.625 C65.32293696 37.00907778 67.83334691 38.39320455 70.34375 39.77734375 C70.97529999 40.12552155 71.60684998 40.47369934 72.25753784 40.83242798 C76.66295674 43.26155144 81.06629189 45.69442166 85.46875 48.12890625 C97.84646289 54.97164835 110.24372225 61.77428424 122.68798828 68.49560547 C129.08511245 71.9537719 135.45700678 75.45324267 141.80810547 78.99511719 C148.18123105 82.54900913 154.56777136 86.07834754 160.9576416 89.60202026 C162.81017869 90.62371977 164.66244116 91.64591562 166.51464844 92.66821289 C172.36527214 95.8967106 178.21792792 99.12139439 184.07691956 102.33468628 C186.72727392 103.78854908 189.37654594 105.24437776 192.02572632 106.70037842 C193.28692329 107.3928137 194.54865161 108.08428218 195.8109436 108.77471924 C197.5719161 109.7379938 199.33091735 110.70486933 201.08984375 111.671875 C202.08878662 112.2194043 203.08772949 112.76693359 204.11694336 113.33105469 C207.17748024 115.10273985 210.07820541 117.00965454 213 119 C205.70886975 135.57075057 192.3410397 150.03006806 180 163 C179.19103271 163.85198975 179.19103271 163.85198975 178.36572266 164.72119141 C170.66101049 172.77763559 162.67843177 180.08616313 153.71923828 186.72509766 C152.05028678 187.9627098 150.39822447 189.22053819 148.74609375 190.48046875 C138.75982421 197.96979934 127.97362563 204.08382284 117 210 C116.3498291 210.35191406 115.6996582 210.70382812 115.02978516 211.06640625 C96.74460079 220.7644014 75.74858713 226.59154648 55.50878906 230.51220703 C53.90621017 230.82380227 52.30617197 231.14897331 50.70996094 231.49169922 C38.56361121 234.08302746 26.49249785 234.26022473 14.125 234.25 C13.33326385 234.24940582 12.54152771 234.24881165 11.72579956 234.24819946 C-4.10284464 234.20286752 -19.2543575 233.09692476 -34.75 229.8125 C-35.49800873 229.65593933 -36.24601746 229.49937866 -37.01669312 229.33807373 C-48.30035152 226.96397743 -59.28251327 224.30619901 -70 220 C-70.8058252 219.68337402 -71.61165039 219.36674805 -72.44189453 219.04052734 C-92.47380813 211.09339084 -110.7885474 200.96447079 -128 188 C-129.41345703 186.93652344 -129.41345703 186.93652344 -130.85546875 185.8515625 C-137.57503475 180.61692444 -143.83384762 174.86716504 -150 169 C-150.85198975 168.19103271 -150.85198975 168.19103271 -151.72119141 167.36572266 C-160.31469664 159.14739671 -167.94226676 150.564593 -175 141 C-175.42764648 140.42781738 -175.85529297 139.85563477 -176.29589844 139.26611328 C-181.22461478 132.65282811 -185.87003459 125.86436092 -190.25 118.875 C-190.65750488 118.24730713 -191.06500977 117.61961426 -191.48486328 116.97290039 C-192.578125 115.1796875 -192.578125 115.1796875 -194 112 C-193.1567716 109.07819037 -192.13809876 108.09550516 -189.62768555 106.359375 C-188.6406665 105.82828125 -187.65364746 105.2971875 -186.63671875 104.75 C-184.98168335 103.84713257 -184.98168335 103.84713257 -183.29321289 102.92602539 C-182.41223434 102.45545212 -182.41223434 102.45545212 -181.51345825 101.97537231 C-179.66159622 100.98616297 -177.81719156 99.98420317 -175.97436523 98.97827148 C-174.09779756 97.9540343 -172.22088699 96.93051452 -170.3417511 95.91099548 C-165.03949927 93.03379069 -159.79117849 90.07080925 -154.5625 87.0625 C-153.31968262 86.3494873 -153.31968262 86.3494873 -152.05175781 85.62207031 C-150.31058541 84.62305862 -148.56970778 83.62353301 -146.82910156 82.62353516 C-141.96368968 79.83142357 -137.0918118 77.05062797 -132.22067261 74.26852417 C-129.22889636 72.55966188 -126.23751615 70.85010661 -123.24609375 69.140625 C-122.03499537 68.44856442 -120.82389511 67.75650713 -119.61279297 67.06445312 C-119.01456726 66.72260986 -118.41634155 66.3807666 -117.79998779 66.02856445 C-113.69486491 63.68277995 -109.58974202 61.33699544 -105.48461914 58.99121094 C-104.90986847 58.66278198 -104.3351178 58.33435303 -103.74295044 57.99597168 C-84.5 47 -84.5 47 -82.75004578 46.00003052 C-81.58322151 45.33327089 -80.41640226 44.6665025 -79.24958801 43.99972534 C-76.33537354 42.33440912 -73.42107258 40.66924463 -70.5065918 39.00439453 C-65.22734032 35.98850933 -59.9487558 32.97148505 -54.6733551 29.9488678 C-41.4538093 22.37470546 -28.21255273 14.84341469 -14.90356445 7.42724609 C-13.45276489 6.61827881 -13.45276489 6.61827881 -11.97265625 5.79296875 C-11.12968994 5.3239917 -10.28672363 4.85501465 -9.41821289 4.37182617 C-7.69486465 3.39418925 -5.99552181 2.37371913 -4.31420898 1.32543945 C-2 0 -2 0 0 0 Z " fill="#00549D" transform="translate(788,799)"/>
<path d="M0 0 C22.11 0 44.22 0 67 0 C67 22.11 67 44.22 67 67 C89.11 67 111.22 67 134 67 C134 88.78 134 110.56 134 133 C111.89 133 89.78 133 67 133 C67 155.11 67 177.22 67 200 C44.89 200 22.78 200 0 200 C0 177.89 0 155.78 0 133 C-21.78 133 -43.56 133 -66 133 C-66 111.22 -66 89.44 -66 67 C-44.22 67 -22.44 67 0 67 C0 44.89 0 22.78 0 0 Z " fill="#FDFDFD" transform="translate(1033,700)"/>
<path d="M0 0 C21.78 0 43.56 0 66 0 C66 22.11 66 44.22 66 67 C88.11 67 110.22 67 133 67 C133 88.78 133 110.56 133 133 C110.89 133 88.78 133 66 133 C66 155.11 66 177.22 66 200 C44.22 200 22.44 200 0 200 C0 177.89 0 155.78 0 133 C-22.11 133 -44.22 133 -67 133 C-67 111.22 -67 89.44 -67 67 C-44.89 67 -22.78 67 0 67 C0 44.89 0 22.78 0 0 Z " fill="#FEFEFE" transform="translate(1267,700)"/>
</svg>
