<?xml version="1.0" encoding="UTF-8"?>
<svg version="1.1" xmlns="http://www.w3.org/2000/svg" width="960" height="960">
<path d="M0 0 C2.41593444 -0.00322153 4.83186869 -0.00658624 7.24780273 -0.01008606 C12.29753063 -0.01604826 17.34724149 -0.01792904 22.39697266 -0.01733398 C28.80658488 -0.0172327 35.21608551 -0.03086374 41.62567139 -0.04810619 C46.61399823 -0.05933225 51.60229903 -0.06124995 56.59063721 -0.06072426 C58.9504637 -0.06188929 61.3102912 -0.06622585 63.67010498 -0.07405663 C152.87811869 -0.34232045 245.23117256 40.26223588 322.20703125 102.65234375 C325.02517333 105.08190667 327.90412367 107.41025778 330.8125 109.73046875 C335.35857108 113.4241515 339.48529505 117.39216361 343.54296875 121.61328125 C345.63308926 123.68126735 347.74883092 125.59142731 349.9765625 127.50390625 C354.0136885 131.00472984 357.68648596 134.74735939 361.3125 138.66796875 C361.95687012 139.36156494 362.60124023 140.05516113 363.26513672 140.76977539 C374.61115344 153.04759731 385.15453011 165.74917829 395.125 179.16796875 C395.929375 180.24087158 395.929375 180.24087158 396.75 181.33544922 C409.24327413 198.0369446 420.07847323 215.69555695 429.97509766 234.04443359 C431.08819574 236.10000198 432.21998654 238.14423254 433.35546875 240.1875 C455.89243011 281.17557079 470.41338041 327.49692721 478.9375 373.35546875 C479.13239014 374.37302246 479.32728027 375.39057617 479.52807617 376.43896484 C483.69513333 400.11166947 483.44557314 424.14090042 483.38574219 448.0871582 C483.37435699 452.67986411 483.38112324 457.27233804 483.39261436 461.86503601 C483.49812653 511.41407448 483.49812653 511.41407448 479 534.79296875 C478.78609619 535.93443359 478.57219238 537.07589844 478.35180664 538.25195312 C471.35154022 574.39434086 460.47421327 609.68216772 445.125 643.16796875 C444.6403125 644.2254834 444.155625 645.28299805 443.65625 646.37255859 C423.05819448 690.92792283 396.19535961 730.95872755 363.125 767.16796875 C362.26132812 768.12445312 361.39765625 769.0809375 360.5078125 770.06640625 C352.46783635 778.94582307 344.25589434 787.66041842 335.12890625 795.44140625 C332.87266614 797.38537921 330.69136107 799.40120393 328.5 801.41796875 C322.9057029 806.45879657 317.02694921 811.07886587 311.06396484 815.67041016 C309.06252306 817.21622279 307.07200943 818.77540317 305.08203125 820.3359375 C244.58796002 867.51989633 165.9911054 900.96477771 89.125 908.16796875 C88.04863281 908.27093262 86.97226562 908.37389648 85.86328125 908.47998047 C-7.28991404 916.88448056 -96.1185704 903.47621726 -179.875 861.16796875 C-180.7717041 860.72211426 -181.6684082 860.27625977 -182.59228516 859.81689453 C-202.49839548 849.91661273 -221.14626412 837.53564899 -238.875 824.16796875 C-239.48408203 823.7105127 -240.09316406 823.25305664 -240.72070312 822.78173828 C-250.92309134 815.09605214 -260.86311078 807.12454698 -270.29296875 798.50390625 C-271.68719497 797.24256392 -273.08731127 795.98704207 -274.51831055 794.76757812 C-280.50964778 789.64526098 -286.09557669 784.13352399 -291.6652832 778.56298828 C-293.30075882 776.92969427 -294.94407708 775.30458405 -296.58789062 773.6796875 C-302.41121051 767.88670341 -307.86323426 762.00222614 -312.96337891 755.55322266 C-314.83511542 753.21773533 -316.79156814 750.9997365 -318.8125 748.79296875 C-323.84098165 743.18047053 -328.37640239 737.20592781 -332.875 731.16796875 C-333.37692871 730.49588379 -333.87885742 729.82379883 -334.39599609 729.13134766 C-384.03445847 662.36034972 -413.50348661 583.97680382 -419.875 501.16796875 C-419.97288818 499.903479 -420.07077637 498.63898926 -420.17163086 497.33618164 C-421.13843224 483.45470028 -421.06234454 469.53988125 -421.06030273 455.63208008 C-421.06022203 452.80063411 -421.06709135 449.96935186 -421.08081055 447.13793945 C-421.56997793 344.49598042 -388.51918477 244.14769319 -319.875 162.16796875 C-318.97902424 161.09777548 -318.08319976 160.02745554 -317.1875 158.95703125 C-303.86579368 143.13398714 -289.67544338 127.28808428 -273.875 113.890625 C-271.44110869 111.79424596 -269.10365575 109.60399495 -266.75 107.41796875 C-261.00266167 102.18378563 -254.97476089 97.39034344 -248.81103516 92.65820312 C-246.77692993 91.09248077 -244.75345233 89.51365337 -242.73046875 87.93359375 C-186.79815143 44.43139183 -110.46757252 7.74790549 -38.875 1.16796875 C-38.02695297 1.08614853 -37.17890594 1.00432831 -36.30516052 0.92002869 C-24.21637312 -0.10300379 -12.12329417 0.00382703 0 0 Z " fill="#FDFDFD" transform="translate(448.875,24.83203125)"/>
<path d="M0 0 C0.77956055 -0.0033284 1.55912109 -0.0066568 2.36230469 -0.01008606 C4.00959691 -0.0151311 5.65689928 -0.01749514 7.30419922 -0.01733398 C9.77719873 -0.01950033 12.24973667 -0.03762577 14.72265625 -0.05664062 C37.7835481 -0.1406232 57.54655452 4.7050905 74.8125 21.16796875 C74.8125 21.49796875 74.8125 21.82796875 74.8125 22.16796875 C67.85235385 22.44410883 61.96594138 21.49577412 55.25 19.73046875 C23.32436597 11.5131282 -7.63018869 17.28515431 -36.1875 33.16796875 C-57.2056509 45.91846005 -76.21773872 63.76582005 -91.1875 83.16796875 C-92.36505859 84.6375 -92.36505859 84.6375 -93.56640625 86.13671875 C-122.28124778 122.21840239 -147.77964556 170.91596885 -144.1875 218.16796875 C-142.88622485 224.74506598 -140.72080653 230.13326607 -135.1875 234.16796875 C-123.37510155 241.43563015 -109.01479689 245.498906 -95.1875 246.16796875 C-95.1875 245.50796875 -95.1875 244.84796875 -95.1875 244.16796875 C-97.0746875 243.61109375 -97.0746875 243.61109375 -99 243.04296875 C-108.69934356 239.7742136 -118.19297416 235.00383886 -123.5 225.921875 C-127.35683632 217.55200452 -127.34165177 209.16245092 -124.6875 200.41796875 C-114.03401119 171.90967814 -93.37632784 148.63644325 -73.19921875 126.39453125 C-70.7686015 123.70433351 -68.38815243 120.97290433 -66.0078125 118.23828125 C-63.8812768 115.81968914 -61.72280894 113.43142912 -59.5625 111.04296875 C-58.43134766 109.76873047 -58.43134766 109.76873047 -57.27734375 108.46875 C-55.1875 106.16796875 -55.1875 106.16796875 -53.50390625 104.5859375 C-50.3857062 101.52073802 -49.87704907 99.11365806 -49.8125 94.91796875 C-49.96873607 91.48077515 -50.29326224 88.08469604 -50.6875 84.66796875 C-51.22280128 79.57025347 -51.47777927 74.47720061 -51.625 69.35546875 C-51.67140625 68.53046875 -51.7178125 67.70546875 -51.765625 66.85546875 C-51.86951108 61.06618087 -51.86951108 61.06618087 -49.96142578 58.55322266 C-48.41015625 57.21875 -48.41015625 57.21875 -45.1875 55.16796875 C-44.55714844 54.74386719 -43.92679688 54.31976563 -43.27734375 53.8828125 C-34.32765326 50.8215165 -23.58594754 52.96765034 -15.2265625 56.59765625 C-11.20262572 58.67686266 -7.43709016 61.02799168 -3.72265625 63.6171875 C5.73135222 69.40030208 17.48647347 68.48247831 28.1875 68.54296875 C28.96339478 68.54753082 29.73928955 68.5520929 30.53869629 68.55679321 C43.87781254 68.58476177 56.27875242 67.02116698 69.25195312 63.79638672 C72.91851969 62.8965257 76.6094616 62.14988699 80.3125 61.41796875 C81.3746875 61.19625 82.436875 60.97453125 83.53125 60.74609375 C92.17445107 59.22324404 100.70384769 58.95237469 109.46142578 58.92773438 C111.57232564 58.91792308 113.68229178 58.88675977 115.79296875 58.85546875 C117.14843181 58.84894614 118.50390171 58.84369276 119.859375 58.83984375 C121.68227051 58.8258252 121.68227051 58.8258252 123.54199219 58.81152344 C127.13352187 59.2029562 128.94790029 60.00843795 131.8125 62.16796875 C136.44392932 68.1620465 136.1799849 73.24156101 136.0625 80.60546875 C136.17456029 92.3011145 138.88875845 101.75367474 142.875 112.65234375 C147.81248685 126.22577459 148.55685214 140.88312782 149.8125 155.16796875 C150.1425 155.16796875 150.4725 155.16796875 150.8125 155.16796875 C151.37753731 190.82810135 146.80371293 219.69117978 131.8125 252.10546875 C128.39681415 259.49703656 125.21759868 266.93530907 122.3125 274.54296875 C121.98636719 275.39238037 121.66023437 276.24179199 121.32421875 277.11694336 C112.34890971 301.06621879 119.62220484 319.67041994 128.21704102 342.47949219 C131.16299926 350.31544204 133.73901216 358.05390905 135.8125 366.16796875 C136.20994877 367.60740532 136.60986937 369.04616075 137.01171875 370.484375 C141.70164179 387.44898316 144.71261152 404.54245819 147 421.98046875 C147.16701416 423.2427832 147.33402832 424.50509766 147.50610352 425.80566406 C149.7742727 443.76891028 150.000485 461.57223366 149.99780273 479.65576172 C149.9977217 482.40322484 150.00464215 485.15052041 150.01831055 487.89794922 C150.0992729 504.43109211 149.74092526 520.73629472 147.8125 537.16796875 C147.71200851 538.05421432 147.61151703 538.9404599 147.50798035 539.8535614 C146.10471016 552.17337972 143.8573996 564.22929621 141.3125 576.35546875 C131.60151533 613.87656118 131.60151533 613.87656118 138.734375 650.296875 C139.42015625 651.24433594 140.1059375 652.19179688 140.8125 653.16796875 C142.35598805 655.46621869 143.89743738 657.76460765 145.41796875 660.078125 C146.46060823 661.64062394 147.56044188 663.16522459 148.6875 664.66796875 C150.83676943 669.44412304 150.63076735 673.90173861 148.86328125 678.796875 C146.52672891 683.7427003 144.022775 687.589235 139.8125 691.16796875 C138.760625 692.15796875 138.760625 692.15796875 137.6875 693.16796875 C121.15598088 704.66815597 93.25498858 710.27798671 73.55322266 706.76513672 C63.57891613 704.57924672 53.81844884 701.33157192 44.12963867 698.13623047 C29.78945225 693.44410024 16.40648825 693.53635161 2.8125 700.16796875 C0.47720931 701.37251485 -1.85608356 702.580941 -4.1875 703.79296875 C-16.51683038 710.10163613 -29.63568172 711.33119518 -43.28515625 711.30078125 C-44.22881546 711.30223648 -45.17247467 711.30369171 -46.14472961 711.30519104 C-49.17986153 711.30741942 -52.21487945 711.30119798 -55.25 711.29296875 C-56.28594299 711.29108551 -57.32188599 711.28920227 -58.38922119 711.28726196 C-119.25170203 711.15696449 -169.29224472 700.07590152 -217.1875 660.16796875 C-218.01024414 659.48951904 -218.01024414 659.48951904 -218.84960938 658.79736328 C-234.2695595 646.06641384 -249.58749456 632.59530805 -262.03125 616.8828125 C-264.25123192 614.08772657 -266.55649385 611.38167481 -268.875 608.66796875 C-289.05417783 584.54384197 -306.49733167 557.38370311 -322.1875 530.16796875 C-323.15838094 528.49842264 -324.12974664 526.82915834 -325.1015625 525.16015625 C-326.98457064 521.92121862 -328.85910048 518.67761075 -330.7265625 515.4296875 C-332.74280335 511.92629574 -334.80427839 508.45197262 -336.875 504.98046875 C-339.35470601 500.72853236 -341.61795103 496.39579707 -343.796875 491.984375 C-346.38687419 486.77053282 -348.9939728 481.56632796 -351.633255 476.37724304 C-378.77804088 423.0017279 -403.31655089 367.19504602 -418.41357422 309.109375 C-419.24338373 305.95557532 -420.10656923 302.81198961 -420.97265625 299.66796875 C-427.77702832 274.69094445 -430.89260792 250.22241692 -432.08062744 224.43029785 C-432.19674169 221.97233617 -432.32385029 219.51504805 -432.45068359 217.05761719 C-433.15859581 202.81571692 -433.40479188 188.58981741 -433.42773438 174.33105469 C-433.4375648 170.64366106 -433.4687933 166.95679824 -433.5 163.26953125 C-433.55347164 151.17478397 -433.33503364 139.88824666 -430.1875 128.16796875 C-429.74680774 126.21035131 -429.30883161 124.25211801 -428.875 122.29296875 C-424.15079839 104.12670893 -416.98308303 86.89382293 -405.1875 72.16796875 C-404.70925781 71.53761719 -404.23101562 70.90726562 -403.73828125 70.2578125 C-389.68073816 52.57511503 -367.89650002 42.94329793 -346.1875 39.16796875 C-317.40071476 36.06666986 -283.98593551 45.0268012 -261.1875 63.16796875 C-253.44114046 69.6143337 -248.70907268 77.30433992 -244.1875 86.16796875 C-243.69467529 87.1110791 -243.69467529 87.1110791 -243.19189453 88.07324219 C-234.08138354 105.65399399 -228.08686414 124.79105472 -224.1875 144.16796875 C-223.91292969 145.45703125 -223.63835937 146.74609375 -223.35546875 148.07421875 C-218.72095196 170.94750974 -218.78934859 194.67160564 -218.1827507 217.92651367 C-218.08458912 221.63018599 -217.97854581 225.33363306 -217.87329102 229.03710938 C-217.6365484 237.41384871 -217.41028923 245.79084791 -217.1875 254.16796875 C-217.15849609 255.25829407 -217.12949219 256.34861938 -217.09960938 257.47198486 C-217.04803697 259.41235718 -216.99651431 261.35273081 -216.9450531 263.29310608 C-216.8584624 266.54245468 -216.76999541 269.79175093 -216.681427 273.04104614 C-216.62731834 275.08058282 -216.57807655 277.12024687 -216.52905273 279.15991211 C-216.34410109 286.19895408 -215.93155435 293.16510424 -215.1875 300.16796875 C-214.85129639 299.40991943 -214.51509277 298.65187012 -214.16870117 297.87084961 C-204.21029214 275.45048312 -194.12210551 253.22292454 -182.25 231.734375 C-165.05699884 203.86326502 -165.05699884 203.86326502 -164.12841797 172.73974609 C-166.2937383 165.31449424 -169.11364903 158.10791083 -171.92553711 150.90795898 C-176.01605595 140.35559335 -178.69201193 131.05043601 -178.5 119.66796875 C-178.50322266 118.71277344 -178.50644531 117.75757813 -178.50976562 116.7734375 C-178.38945846 100.60852884 -178.38945846 100.60852884 -174.1875 94.04296875 C-171.3688767 91.40050941 -169.90674806 91.04730922 -166.15600586 91.15307617 C-165.32431381 91.17186325 -164.49262177 91.19065033 -163.63572693 91.21000671 C-162.73371048 91.23093887 -161.83169403 91.25187103 -160.90234375 91.2734375 C-157.98804197 91.29749422 -155.07379207 91.31097373 -152.15942383 91.32446289 C-150.14870695 91.34500847 -148.13808772 91.38513642 -146.12817383 91.44555664 C-135.38226139 92.18403345 -135.38226139 92.18403345 -125.43527222 89.03790283 C-122.17809207 85.92405962 -120.19390677 82.14968764 -118.1875 78.16796875 C-117.35827541 76.96852021 -116.50359819 75.78548057 -115.60546875 74.63671875 C-114.86941406 73.65703125 -114.13335937 72.67734375 -113.375 71.66796875 C-102.85285599 58.08209317 -89.93062913 45.48021686 -76.1875 35.16796875 C-74.99258022 34.23423548 -73.79864559 33.29924072 -72.60546875 32.36328125 C-55.64100862 19.19316867 -35.71453032 5.00981339 -14.1875 1.16796875 C-13.31174316 0.99668457 -12.43598633 0.82540039 -11.53369141 0.64892578 C-7.67579103 0.09441945 -3.88815834 0.00589131 0 0 Z " fill="#45352F" transform="translate(574.1875,123.83203125)"/>
<path d="M0 0 C4.02393678 2.07920641 7.78947234 4.43033543 11.50390625 7.01953125 C20.95791472 12.80264583 32.71303597 11.88482206 43.4140625 11.9453125 C44.57790466 11.95215561 44.57790466 11.95215561 45.76525879 11.95913696 C59.10437504 11.98710552 71.50531492 10.42351073 84.47851562 7.19873047 C88.14508219 6.29886945 91.8360241 5.55223074 95.5390625 4.8203125 C96.60125 4.59859375 97.6634375 4.376875 98.7578125 4.1484375 C107.40101357 2.62558779 115.93041019 2.35471844 124.68798828 2.33007812 C126.79888814 2.32026683 128.90885428 2.28910352 131.01953125 2.2578125 C132.37499431 2.25128989 133.73046421 2.24603651 135.0859375 2.2421875 C136.90883301 2.22816895 136.90883301 2.22816895 138.76855469 2.21386719 C142.36008437 2.60529995 144.17446279 3.4107817 147.0390625 5.5703125 C151.67049182 11.56439025 151.4065474 16.64390476 151.2890625 24.0078125 C151.40115764 35.70709615 154.12031894 45.16251234 158.1015625 56.06640625 C160.79403797 63.47198383 162.09215323 70.77715094 163.0390625 78.5703125 C163.16571289 79.4876416 163.29236328 80.4049707 163.42285156 81.35009766 C166.28395571 102.45677316 166.28395571 102.45677316 160.0390625 112.5703125 C159.06396438 114.6366547 158.14830214 116.72515395 157.22851562 118.81665039 C151.6587557 131.34453877 144.28465903 141.36325597 134.0390625 150.5703125 C133.7090625 150.5703125 133.3790625 150.5703125 133.0390625 150.5703125 C133.05477295 149.61366699 133.0704834 148.65702148 133.08666992 147.67138672 C133.1418166 144.05200952 133.17571353 140.43266763 133.20385742 136.81298828 C133.21875439 135.25953892 133.23907901 133.70613015 133.26538086 132.15283203 C133.80091482 115.13214848 133.80091482 115.13214848 128.0390625 99.5703125 C127.3790625 99.5703125 126.7190625 99.5703125 126.0390625 99.5703125 C124.48488667 103.6149914 123.77861492 107.31607626 123.45898438 111.63256836 C121.92221277 131.98375216 112.66340677 155.93650424 97.0390625 169.5703125 C87.84073074 176.64820212 80.73191356 177.50710964 69.25390625 176.109375 C59.3443758 174.55191644 50.24202178 171.49988977 41.0390625 167.5703125 C40.36794434 167.28559082 39.69682617 167.00086914 39.00537109 166.70751953 C22.64448822 159.65225443 7.50653516 150.34179143 -6.84375 139.828125 C-13.59598727 134.93740678 -20.25665674 130.73710275 -27.9609375 127.5703125 C-25.72267112 138.70603529 -22.91191312 149.52208127 -19.42358398 160.33618164 C-12.92412689 180.80829502 -12.55537702 201.42544393 -22.3359375 220.8828125 C-23.84578398 223.79600178 -25.40234079 226.68297388 -26.9609375 229.5703125 C-37.31515959 248.85098138 -37.31515959 248.85098138 -46.0859375 268.8828125 C-46.4274585 269.75752197 -46.76897949 270.63223145 -47.12084961 271.53344727 C-51.5818283 283.39841919 -54.56777005 295.06052605 -55.7109375 307.6953125 C-55.83162598 308.9944458 -55.95231445 310.2935791 -56.07666016 311.63208008 C-57.78184364 330.98851489 -57.27546714 350.16412062 -55.7734375 369.5078125 C-55.72330505 370.20836761 -55.67317261 370.90892273 -55.621521 371.63070679 C-54.13642294 391.71974821 -48.3248274 410.40041322 -41.5234375 429.2578125 C-40.22982301 432.88556452 -38.94143872 436.51517117 -37.65234375 440.14453125 C-37.33989212 441.02194473 -37.02744049 441.89935822 -36.70552063 442.80335999 C-34.63484018 448.62953459 -32.60434455 454.4676259 -30.6328125 460.328125 C-30.39514664 461.02753708 -30.15748077 461.72694916 -29.91261292 462.44755554 C-25.80382028 474.77190274 -22.8584223 487.61547047 -22.5859375 500.6328125 C-22.52986328 501.6547168 -22.52986328 501.6547168 -22.47265625 502.69726562 C-22.40624701 506.5379334 -22.91710681 509.02549623 -25.24609375 512.01171875 C-27.9609375 514.5703125 -27.9609375 514.5703125 -31.7734375 515.4453125 C-53.34499486 513.93530348 -75.55585137 491.04494275 -90.48535156 476.94433594 C-92.64178204 474.93632953 -94.86726154 473.00902935 -97.0859375 471.0703125 C-112.92142806 456.815821 -126.04018613 439.79769124 -136.375 421.2421875 C-136.78459961 420.50806641 -137.19419922 419.77394531 -137.61621094 419.01757812 C-138.41562354 417.57748336 -139.20820938 416.13357297 -139.99316406 414.68554688 C-141.82180758 411.00585414 -141.82180758 411.00585414 -144.9609375 408.5703125 C-145.14269531 409.24835938 -145.32445312 409.92640625 -145.51171875 410.625 C-145.76308594 411.55570313 -146.01445312 412.48640625 -146.2734375 413.4453125 C-146.54671875 414.46367188 -146.82 415.48203125 -147.1015625 416.53125 C-147.60764529 418.32094277 -148.14634152 420.10289464 -148.7578125 421.859375 C-158.91892718 451.20218575 -153.62304166 489.32159652 -149.9609375 519.5703125 C-149.85410645 520.45976563 -149.74727539 521.34921875 -149.63720703 522.265625 C-148.18246515 533.69335107 -145.30269216 544.81511205 -142.38574219 555.94628906 C-140.28040995 564.22847903 -139.29442216 572.03635879 -138.9609375 580.5703125 C-170.0119348 555.34137719 -189.05086643 508.87903606 -198.8984375 471.1953125 C-199.08583496 470.49704346 -199.27323242 469.79877441 -199.46630859 469.0793457 C-203.98832384 450.38849037 -203.30653175 430.83904055 -203.27661133 411.74853516 C-203.27198895 408.5569852 -203.27887966 405.36581713 -203.29711914 402.17431641 C-203.43409201 377.94955448 -202.52913151 354.32536311 -196.8984375 330.6328125 C-196.45334839 328.71891724 -196.45334839 328.71891724 -195.99926758 326.76635742 C-190.25823587 302.48985194 -182.65563281 278.81914008 -174.00830078 255.43505859 C-172.89086168 252.37864124 -171.83579832 249.30578376 -170.79516602 246.22265625 C-164.31458514 227.16010956 -156.33118474 208.43248489 -147.9609375 190.1328125 C-147.52885986 189.18784912 -147.09678223 188.24288574 -146.65161133 187.26928711 C-143.99573285 181.55757027 -141.09928543 176.03153869 -137.9609375 170.5703125 C-134.139844 172.33914982 -131.76808672 174.59125473 -128.8359375 177.6328125 C-125.71987985 181.03484733 -125.71987985 181.03484733 -121.9609375 183.5703125 C-122.6209375 180.9303125 -123.2809375 178.2903125 -123.9609375 175.5703125 C-123.01476562 176.08980469 -122.06859375 176.60929688 -121.09375 177.14453125 C-108.15695755 184.04338128 -94.72278048 188.85602977 -79.9609375 189.5703125 C-79.9609375 188.9103125 -79.9609375 188.2503125 -79.9609375 187.5703125 C-81.848125 187.0134375 -81.848125 187.0134375 -83.7734375 186.4453125 C-93.47278106 183.17655735 -102.96641166 178.40618261 -108.2734375 169.32421875 C-112.13027382 160.95434827 -112.11508927 152.56479467 -109.4609375 143.8203125 C-98.80744869 115.31202189 -78.14976534 92.038787 -57.97265625 69.796875 C-55.542039 67.10667726 -53.16158993 64.37524808 -50.78125 61.640625 C-48.6547143 59.22203289 -46.49624644 56.83377287 -44.3359375 54.4453125 C-43.58183594 53.59582031 -42.82773437 52.74632812 -42.05078125 51.87109375 C-39.9609375 49.5703125 -39.9609375 49.5703125 -38.27734375 47.98828125 C-35.1591437 44.92308177 -34.65048657 42.51600181 -34.5859375 38.3203125 C-34.74217357 34.8831189 -35.06669974 31.48703979 -35.4609375 28.0703125 C-35.99623878 22.97259722 -36.25121677 17.87954436 -36.3984375 12.7578125 C-36.44484375 11.9328125 -36.49125 11.1078125 -36.5390625 10.2578125 C-36.64294858 4.46852462 -36.64294858 4.46852462 -34.73486328 1.95556641 C-33.18359375 0.62109375 -33.18359375 0.62109375 -29.9609375 -1.4296875 C-29.33058594 -1.85378906 -28.70023438 -2.27789062 -28.05078125 -2.71484375 C-19.10109076 -5.77613975 -8.35938504 -3.63000591 0 0 Z " fill="#9F8470" transform="translate(558.9609375,180.4296875)"/>
<path d="M0 0 C3.60068064 1.57687887 6.34145537 3.75421989 9.3125 6.3125 C10.21613281 7.07175781 11.11976563 7.83101563 12.05078125 8.61328125 C12.69402344 9.40089844 13.33726562 10.18851562 14 11 C13.61983241 14.56439509 12.45410673 17.53747711 10.9609375 20.7734375 C10.5491626 21.67223633 10.1373877 22.57103516 9.71313477 23.49707031 C9.27155029 24.44678711 8.82996582 25.39650391 8.375 26.375 C7.91988037 27.3659668 7.46476074 28.35693359 6.99584961 29.37792969 C5.07550262 33.55162398 3.14088832 37.71807101 1.16796875 41.8671875 C-6.65762643 58.35615446 -13.96455088 75.16408504 -19.8046875 92.46484375 C-20.83219553 95.50371554 -21.92705334 98.5004539 -23.0625 101.5 C-44.38181306 160.10617746 -52.48690894 227.25065342 -43 289 C-42.8448291 290.04800781 -42.6896582 291.09601563 -42.52978516 292.17578125 C-38.36647605 319.98210265 -30.94410592 346.70882486 -20.9440918 373.01098633 C-19.54699822 376.8005047 -18.75359765 379.13743438 -20 383 C-46.13250759 343.68081232 -63.08092774 300.48938862 -63.203125 253.0546875 C-63.20595238 252.30163456 -63.20877975 251.54858162 -63.21169281 250.77270889 C-63.2266007 246.77571528 -63.23587925 242.77875688 -63.24023438 238.78173828 C-63.24459019 235.53552838 -63.25838065 232.28958858 -63.28125 229.04345703 C-63.44938486 204.65804993 -62.60644566 180.91600398 -56.9375 157.0625 C-56.64077393 155.78656982 -56.34404785 154.51063965 -56.03833008 153.19604492 C-50.29729837 128.91953944 -42.69469531 105.24882758 -34.04736328 81.86474609 C-32.92992418 78.80832874 -31.87486082 75.73547126 -30.83422852 72.65234375 C-22.40832936 47.86766793 -11.85457595 23.32174745 0 0 Z " fill="#FBFBFA" transform="translate(419,354)"/>
<path d="M0 0 C1.39895508 -0.02670776 1.39895508 -0.02670776 2.82617188 -0.05395508 C8.48050233 -0.04732094 12.53739426 0.52429914 17.5 3.3125 C21.86552082 9.86078123 20.38412368 21.06580642 19.11328125 28.60742188 C15.55691654 44.09894655 7.06448604 60.71852621 -6.25 69.875 C-11.69976924 73.27605969 -15.98067923 74.85738331 -22.375 74.0390625 C-41.1667505 69.66998051 -63.13616939 57.90894894 -73.51171875 41.3203125 C-75.98355607 36.29847699 -76.33477288 30.80051184 -75.5 25.3125 C-71.69791638 16.77659685 -63.01315657 12.57913692 -54.75 9.25 C-37.15727664 3.27747034 -18.5299677 0.22720253 0 0 Z " fill="#45352F" transform="translate(690.5,186.6875)"/>
<path d="M0 0 C5.91610897 4.76258193 11.15719277 10.07309996 15.0234375 16.62890625 C14.6934375 17.28890625 14.3634375 17.94890625 14.0234375 18.62890625 C13.59675781 18.08363281 13.17007813 17.53835937 12.73046875 16.9765625 C-0.4833959 1.03818967 -20.38746276 -7.19150089 -39.9765625 -12.37109375 C-41.14058594 -12.69078125 -42.30460937 -13.01046875 -43.50390625 -13.33984375 C-67.08349597 -18.96767953 -92.06708677 -15.60829408 -113.0859375 -3.59375 C-137.70925982 12.00314717 -151.45271451 36.08077162 -158.0625 64.09765625 C-162.95129564 86.31718891 -164.48270604 108.72083231 -164.36767578 131.42456055 C-164.35155606 135.19291262 -164.36765844 138.96019506 -164.38671875 142.72851562 C-164.4139233 174.54748041 -159.15684072 205.69847698 -151.9765625 236.62890625 C-151.65631104 238.03462891 -151.65631104 238.03462891 -151.32958984 239.46875 C-141.44213739 282.5334421 -125.22366936 324.65740231 -106.83081055 364.76470947 C-105.97311926 366.63642032 -105.11990556 368.51011862 -104.26757812 370.38427734 C-91.85833982 397.62896453 -78.64936811 424.52723159 -63.9765625 450.62890625 C-63.49268066 451.49483398 -63.00879883 452.36076172 -62.51025391 453.25292969 C-43.15118984 487.84044422 -21.42020617 521.18814762 4.0234375 551.62890625 C4.66804932 552.40306885 4.66804932 552.40306885 5.32568359 553.19287109 C23.09522682 574.46931023 42.52986073 594.31003683 65.0234375 610.62890625 C61.71096288 610.62890625 61.21280799 610.30150542 58.6875 608.390625 C58.04200195 607.90585693 57.39650391 607.42108887 56.73144531 606.92163086 C56.04405273 606.39190674 55.35666016 605.86218262 54.6484375 605.31640625 C53.93526367 604.77314697 53.22208984 604.2298877 52.48730469 603.67016602 C34.01251493 589.48460799 15.67416153 573.64564928 1.1796875 555.34375 C-1.04029442 552.54866407 -3.34555635 549.84261231 -5.6640625 547.12890625 C-25.84324033 523.00477947 -43.28639417 495.84464061 -58.9765625 468.62890625 C-59.94744344 466.95936014 -60.91880914 465.29009584 -61.890625 463.62109375 C-63.77363314 460.38215612 -65.64816298 457.13854825 -67.515625 453.890625 C-69.53186585 450.38723324 -71.59334089 446.91291012 -73.6640625 443.44140625 C-76.14376851 439.18946986 -78.40701353 434.85673457 -80.5859375 430.4453125 C-83.17593669 425.23147032 -85.7830353 420.02726546 -88.4223175 414.83818054 C-115.56710338 361.4626654 -140.10561339 305.65598352 -155.20263672 247.5703125 C-156.03244623 244.41651282 -156.89563173 241.27292711 -157.76171875 238.12890625 C-164.56609082 213.15188195 -167.68167042 188.68335442 -168.86968994 162.89123535 C-168.98580419 160.43327367 -169.11291279 157.97598555 -169.23974609 155.51855469 C-169.94765831 141.27665442 -170.19385438 127.05075491 -170.21679688 112.79199219 C-170.2266273 109.10459856 -170.2578558 105.41773574 -170.2890625 101.73046875 C-170.34253414 89.63572147 -170.12409614 78.34918416 -166.9765625 66.62890625 C-166.53587024 64.67128881 -166.09789411 62.71305551 -165.6640625 60.75390625 C-160.93986089 42.58764643 -153.77214553 25.35476043 -141.9765625 10.62890625 C-141.49832031 9.99855469 -141.02007812 9.36820313 -140.52734375 8.71875 C-106.35579806 -34.26494214 -41.14681694 -28.92889237 0 0 Z " fill="#9F8471" transform="translate(310.9765625,185.37109375)"/>
<path d="M0 0 C0.77956055 -0.0033284 1.55912109 -0.0066568 2.36230469 -0.01008606 C4.00959691 -0.0151311 5.65689928 -0.01749514 7.30419922 -0.01733398 C9.77719873 -0.01950033 12.24973667 -0.03762577 14.72265625 -0.05664062 C37.7835481 -0.1406232 57.54655452 4.7050905 74.8125 21.16796875 C74.8125 21.49796875 74.8125 21.82796875 74.8125 22.16796875 C71.8425 22.16796875 68.8725 22.16796875 65.8125 22.16796875 C66.1425 21.50796875 66.4725 20.84796875 66.8125 20.16796875 C53.80172719 12.23832615 41.87281194 7.02267243 26.3359375 7 C25.52943756 6.9966716 24.72293762 6.9933432 23.89199829 6.98991394 C22.18923509 6.98486901 20.48646207 6.98250486 18.78369141 6.98266602 C16.21629921 6.98049312 13.64934682 6.96234913 11.08203125 6.94335938 C-1.18878929 6.89852235 -12.59393537 7.34718259 -23.875 12.66796875 C-25.01473267 13.19245605 -25.01473267 13.19245605 -26.17749023 13.72753906 C-63.6124769 31.35948358 -96.3054081 59.84483091 -119.1875 94.16796875 C-122.21766977 94.54018519 -125.06514022 94.72667024 -128.10546875 94.79296875 C-129.4413781 94.84251709 -129.4413781 94.84251709 -130.80427551 94.89306641 C-133.66090694 94.99850032 -136.51762365 95.08533424 -139.375 95.16796875 C-143.11922746 95.27726143 -146.86220579 95.40487437 -150.60546875 95.54296875 C-151.45989059 95.56182129 -152.31431244 95.58067383 -153.19462585 95.60009766 C-158.53803851 95.79792714 -162.54708779 96.40961765 -167.1875 99.16796875 C-170.15091226 103.43416271 -170.57138864 106.99277707 -170.5859375 112.11328125 C-170.59024277 113.08997269 -170.59024277 113.08997269 -170.59463501 114.08639526 C-170.59666626 115.45962395 -170.59120231 116.8328822 -170.57861328 118.20605469 C-170.56270076 120.26696685 -170.57840983 122.325871 -170.59765625 124.38671875 C-170.6114421 132.71180411 -169.69314242 140.21809785 -167.1875 148.16796875 C-166.85758057 149.22129395 -166.85758057 149.22129395 -166.52099609 150.29589844 C-165.94585141 152.03640777 -165.31848518 153.75941621 -164.6875 155.48046875 C-164.25695312 156.65996094 -163.82640625 157.83945312 -163.3828125 159.0546875 C-162.5100727 161.32780391 -161.5585098 163.57110074 -160.5625 165.79296875 C-155.04804862 179.32844032 -154.04576244 193.34669162 -159.390625 207.11328125 C-162.55006641 214.55527553 -166.67608203 221.53494168 -170.68603516 228.54101562 C-188.30261397 259.36286734 -203.91984104 291.45659886 -215.1875 325.16796875 C-215.5175 325.16796875 -215.8475 325.16796875 -216.1875 325.16796875 C-217.65489522 313.21917907 -217.2822251 301.18202648 -217.1875 289.16796875 C-216.8575 289.16796875 -216.5275 289.16796875 -216.1875 289.16796875 C-215.8575 292.79796875 -215.5275 296.42796875 -215.1875 300.16796875 C-214.68319458 299.03089478 -214.68319458 299.03089478 -214.16870117 297.87084961 C-204.21029214 275.45048312 -194.12210551 253.22292454 -182.25 231.734375 C-165.05699884 203.86326502 -165.05699884 203.86326502 -164.12841797 172.73974609 C-166.2937383 165.31449424 -169.11364903 158.10791083 -171.92553711 150.90795898 C-176.01605595 140.35559335 -178.69201193 131.05043601 -178.5 119.66796875 C-178.50322266 118.71277344 -178.50644531 117.75757813 -178.50976562 116.7734375 C-178.38945846 100.60852884 -178.38945846 100.60852884 -174.1875 94.04296875 C-171.3688767 91.40050941 -169.90674806 91.04730922 -166.15600586 91.15307617 C-165.32431381 91.17186325 -164.49262177 91.19065033 -163.63572693 91.21000671 C-162.73371048 91.23093887 -161.83169403 91.25187103 -160.90234375 91.2734375 C-157.98804197 91.29749422 -155.07379207 91.31097373 -152.15942383 91.32446289 C-150.14870695 91.34500847 -148.13808772 91.38513642 -146.12817383 91.44555664 C-135.38226139 92.18403345 -135.38226139 92.18403345 -125.43527222 89.03790283 C-122.17809207 85.92405962 -120.19390677 82.14968764 -118.1875 78.16796875 C-117.35827541 76.96852021 -116.50359819 75.78548057 -115.60546875 74.63671875 C-114.50138672 73.1671875 -114.50138672 73.1671875 -113.375 71.66796875 C-102.85285599 58.08209317 -89.93062913 45.48021686 -76.1875 35.16796875 C-74.99258022 34.23423548 -73.79864559 33.29924072 -72.60546875 32.36328125 C-55.64100862 19.19316867 -35.71453032 5.00981339 -14.1875 1.16796875 C-13.31174316 0.99668457 -12.43598633 0.82540039 -11.53369141 0.64892578 C-7.67579103 0.09441945 -3.88815834 0.00589131 0 0 Z " fill="#9F8471" transform="translate(574.1875,123.83203125)"/>
<path d="M0 0 C1.61007935 0.79724487 1.61007935 0.79724487 3.25268555 1.6105957 C4.74989136 2.36796021 4.74989136 2.36796021 6.27734375 3.140625 C7.17573975 3.59469727 8.07413574 4.04876953 8.99975586 4.51660156 C11.0625 5.75 11.0625 5.75 12.0625 7.75 C11.35343506 7.98074219 10.64437012 8.21148437 9.91381836 8.44921875 C-13.31798999 16.07324471 -30.87998455 24.98641532 -49.5625 41 C-51.80302175 42.65091077 -53.22040974 43.34746811 -55.9375 43.75 C-55.56060274 39.98102737 -54.73998795 37.2423112 -52.875 34 C-48.74848886 26.03312265 -51.21086899 18.15243504 -53.2578125 9.8671875 C-54.46839722 4.31519549 -54.67474206 -0.19348267 -52.75 -5.5625 C-50.16287869 -9.39857643 -47.7784775 -11.68017363 -43.3125 -13.0625 C-27.33639915 -13.95006116 -13.96289501 -6.91897948 0 0 Z " fill="#46362F" transform="translate(580.9375,195.25)"/>
<path d="M0 0 C1.29558684 3.88676052 0.17597791 6.2977833 -1.125 10 C-1.35654785 10.67498535 -1.5880957 11.3499707 -1.82666016 12.04541016 C-3.49865102 16.81880238 -5.43806723 21.40329021 -7.609375 25.97265625 C-9.72631001 30.58115241 -11.60640847 35.28446363 -13.50146484 39.98779297 C-15.16687619 44.09057831 -16.96082412 48.06377262 -19 52 C-19.33 52 -19.66 52 -20 52 C-21.23402862 47.22907044 -21.11265112 42.57530554 -21.0625 37.6875 C-21.05798828 36.85154297 -21.05347656 36.01558594 -21.04882812 35.15429688 C-21.03710548 33.10283351 -21.01917203 31.05140727 -21 29 C-21.28198242 29.69561035 -21.56396484 30.3912207 -21.85449219 31.10791016 C-23.14615143 34.28310688 -24.4479692 37.45404296 -25.75 40.625 C-26.1934375 41.71941406 -26.636875 42.81382812 -27.09375 43.94140625 C-32.58197115 57.25841346 -32.58197115 57.25841346 -36.87109375 60.34765625 C-39.6520237 61.19979442 -42.15481391 61.37624763 -45.0625 61.4375 C-46.10535156 61.47746094 -47.14820313 61.51742187 -48.22265625 61.55859375 C-51 61 -51 61 -52.76953125 58.8203125 C-57.87349469 47.12170424 -58.06958018 34.54607905 -58 22 C-57.25016846 21.93530518 -56.50033691 21.87061035 -55.7277832 21.80395508 C-32.54020205 19.72806696 -17.43326503 16.02107317 0 0 Z " fill="#FBFBFB" transform="translate(687,350)"/>
<path d="M0 0 C-0.33337498 8.39271524 -2.16627586 15.62012855 -5 23.5 C-5.59905151 25.19153198 -5.59905151 25.19153198 -6.21020508 26.91723633 C-8.76163831 33.96902408 -11.52286495 40.88818049 -14.6875 47.6875 C-15.03103516 48.43386719 -15.37457031 49.18023437 -15.72851562 49.94921875 C-18.07660416 54.77855775 -20.86845079 59.47899039 -25 63 C-25.99 63 -26.98 63 -28 63 C-28 59.7 -28 56.4 -28 53 C-27.34 53 -26.68 53 -26 53 C-21.37016188 42.76380704 -16.89211649 32.54301287 -13 22 C-12.45873742 20.5623478 -11.91712531 19.1248271 -11.375 17.6875 C-10.92125 16.470625 -10.4675 15.25375 -10 14 C-9.731875 13.30003906 -9.46375 12.60007812 -9.1875 11.87890625 C-7.65320233 7.95706804 -7.65320233 7.95706804 -6.6015625 3.890625 C-5.49268455 0.40558002 -3.38584469 0 0 0 Z " fill="#A08571" transform="translate(694,347)"/>
<path d="M0 0 C0.33 0 0.66 0 1 0 C1.06093962 4.00170199 1.04844826 7.99817341 1 12 C1.00773438 12.79664063 1.01546875 13.59328125 1.0234375 14.4140625 C0.71309086 22.17272839 -3.63637758 28.42258801 -8.84375 33.9609375 C-13.1551758 37.83743877 -16.61418168 40.04185646 -22.5625 39.9375 C-26.62949738 38.8283189 -27.76409433 37.48801284 -30 34 C-29.18015625 33.95101562 -28.3603125 33.90203125 -27.515625 33.8515625 C-25.89914062 33.73941406 -25.89914062 33.73941406 -24.25 33.625 C-22.64898438 33.52058594 -22.64898438 33.52058594 -21.015625 33.4140625 C-17.20311433 32.91582865 -17.20311433 32.91582865 -14 31 C-12.54307034 28.60815798 -11.31371388 26.33172265 -10.125 23.8125 C-9.78275391 23.10867188 -9.44050781 22.40484375 -9.08789062 21.6796875 C-5.69842888 14.59779536 -2.78324769 7.33765299 0 0 Z " fill="#A08572" transform="translate(666,377)"/>
</svg>
