<?xml version="1.0" encoding="UTF-8"?>
<svg version="1.1" xmlns="http://www.w3.org/2000/svg" width="2000" height="2000">
<path d="M0 0 C1.77883532 -0.00239627 3.55766963 -0.00566556 5.33650196 -0.0097166 C10.19177305 -0.01827208 15.04696604 -0.01453723 19.90223818 -0.00866088 C25.19705816 -0.00446842 30.49186447 -0.01190502 35.78668106 -0.01781338 C45.05594434 -0.02655676 54.32518552 -0.02789413 63.5944519 -0.02431011 C77.37868011 -0.01899448 91.16288698 -0.02510709 104.94711287 -0.03339304 C130.2846363 -0.0482055 155.62214756 -0.05048393 180.95967408 -0.04807267 C184.54629736 -0.04773419 188.13292065 -0.0474121 191.71954393 -0.04710698 C192.78823128 -0.04701542 192.78823128 -0.04701542 193.87850826 -0.046922 C209.68796969 -0.04564853 225.49742977 -0.04825437 241.3068908 -0.05163305 C244.91992606 -0.0524038 248.53296133 -0.05314854 252.14599659 -0.05389806 C253.59612984 -0.05419976 255.04626309 -0.05450164 256.49639634 -0.05480371 C257.21521786 -0.05495338 257.93403938 -0.05510306 258.67464337 -0.05525728 C260.1286622 -0.05556081 261.58268104 -0.0558655 263.03669987 -0.05617132 C304.27940038 -0.06484118 345.52209971 -0.06949058 386.76480103 -0.06522369 C387.52805165 -0.06514564 388.29130228 -0.06506758 389.07768172 -0.06498716 C397.58815476 -0.06411441 406.0986278 -0.06318514 414.60910083 -0.06223653 C415.37742676 -0.06215102 416.14575268 -0.06206551 416.93736121 -0.06197741 C423.32035179 -0.06126674 423.32035179 -0.06126674 426.25883517 -0.06093518 C475.39480271 -0.05540039 524.53075147 -0.06294004 573.66671562 -0.08170605 C586.04712292 -0.08642854 598.42753022 -0.09110917 610.80793762 -0.09554291 C611.57032339 -0.09581623 612.33270915 -0.09608955 613.11819752 -0.09637116 C636.62851024 -0.104747 660.13882139 -0.10942254 683.64913559 -0.11025047 C684.38763393 -0.11027684 685.12613227 -0.11030321 685.88700934 -0.11033037 C702.10147439 -0.11087124 718.31593931 -0.1104985 734.53040432 -0.10929066 C740.33268243 -0.10886506 746.13496055 -0.10849993 751.93723867 -0.10816122 C753.38060406 -0.10807591 754.82396945 -0.10798698 756.26733483 -0.1078944 C779.23010784 -0.10644788 802.19286804 -0.11355723 825.15563798 -0.12489836 C848.93748038 -0.13656795 872.71929497 -0.13708985 896.5011384 -0.12505493 C910.20017543 -0.11843242 923.89915234 -0.12004342 937.59818455 -0.13364345 C946.75957459 -0.14190328 955.92091973 -0.13917047 965.08230614 -0.12766818 C970.2949047 -0.12142701 975.50738619 -0.11977137 980.71997787 -0.13153151 C1020.95414478 -0.21621732 1020.95414478 -0.21621732 1040.6882 3.25447559 C1041.39387254 3.37637716 1042.09954508 3.49827872 1042.82660164 3.62387427 C1046.6416234 4.29332321 1050.41512725 5.066772 1054.1882 5.94197559 C1055.30436699 6.1976128 1056.42053398 6.45325001 1057.57052422 6.7166338 C1107.49663583 18.55758562 1149.63204625 44.44249068 1186.6882 79.25447559 C1187.34433281 79.86806934 1188.00046562 80.48166309 1188.67648125 81.11385059 C1192.92763136 85.21840932 1196.61817911 89.71849517 1200.3132 94.32478809 C1201.86615711 96.24044243 1203.44871456 98.13256972 1205.0632 99.99666309 C1254.49582522 157.19274549 1266.0547874 229.21917503 1265.94513511 302.15074735 C1265.93999287 307.07435927 1265.94660835 311.9979592 1265.95162177 316.92156935 C1265.95879834 325.52369411 1265.95865508 334.1257937 1265.95352745 342.72791958 C1265.94592307 355.52017478 1265.94985031 368.31240898 1265.95594407 381.10466407 C1265.9664469 403.95936964 1265.96557421 426.81406398 1265.95978624 449.6687706 C1265.9547461 469.66985886 1265.95344267 489.67094352 1265.95583153 509.67203236 C1265.95598649 511.01452099 1265.9561408 512.35700962 1265.95629447 513.69949825 C1265.95691547 519.09521697 1265.95755281 524.49093568 1265.958214 529.88665439 C1265.96004747 544.96731246 1265.96118907 560.04797055 1265.96178627 575.12862873 C1265.96181356 575.81520693 1265.96184085 576.50178514 1265.96186897 577.20916874 C1265.9626868 599.06685943 1265.96043753 620.92454871 1265.95608711 642.78223896 C1265.95587637 643.84470076 1265.95587637 643.84470076 1265.95566136 644.92862643 C1265.95337182 656.42906103 1265.95093273 667.9294956 1265.94848101 679.42993017 C1265.93876931 725.0340469 1265.93922009 770.63815188 1265.94894218 816.24226856 C1265.95138482 827.73708311 1265.95380703 839.23189765 1265.95608711 850.72671223 C1265.95629846 851.78856531 1265.95629846 851.78856531 1265.95651407 852.87186996 C1265.96083032 874.70802098 1265.96265426 896.54417102 1265.96178627 918.38032246 C1265.96174552 919.40942113 1265.96174552 919.40942113 1265.96170394 920.45930967 C1265.96107882 935.52357687 1265.95981122 950.58784396 1265.95796526 965.65211105 C1265.95730706 971.04283215 1265.95668089 976.43355325 1265.95606384 981.82427435 C1265.95590906 983.16518625 1265.9557516 984.50609816 1265.95559145 985.84701006 C1265.95313145 1006.50007119 1265.95556023 1027.15312719 1265.96079063 1047.80618763 C1265.96651917 1070.53890176 1265.96505816 1093.27160297 1265.95422915 1116.0043155 C1265.94837479 1128.7116345 1265.9479468 1141.41892549 1265.9555215 1154.12624374 C1265.96003022 1162.63133387 1265.95717218 1171.13640168 1265.94851196 1179.64148852 C1265.94378849 1184.47576341 1265.94205561 1189.30998293 1265.94932392 1194.14425594 C1266.06854705 1279.96922921 1245.00680804 1355.75407548 1183.06808281 1417.87947559 C1173.92920553 1426.86180979 1164.02719263 1434.70444085 1153.6882 1442.25447559 C1153.11215019 1442.67712696 1152.53610039 1443.09977833 1151.94259453 1443.53523731 C1119.78271547 1466.96200413 1081.86484382 1482.92078214 1042.68955214 1489.73205607 C1040.88573794 1490.04603047 1039.08269208 1490.36453981 1037.28127479 1490.69198652 C1017.61349135 1494.17531417 997.75800104 1493.6813244 977.86283084 1493.63987826 C972.56704417 1493.63220293 967.27128342 1493.64207349 961.97550052 1493.64960825 C952.71229053 1493.66040016 943.44913307 1493.6601413 934.18592072 1493.65246677 C920.41078231 1493.64108534 906.63568795 1493.64693817 892.86054981 1493.6560917 C869.6777567 1493.67095216 846.49498952 1493.67153753 823.31219482 1493.66336155 C800.35218401 1493.65526814 777.39218295 1493.65209931 754.43217087 1493.65592289 C752.98792348 1493.65615533 751.5436761 1493.6563868 750.09942871 1493.6566173 C744.29502825 1493.65754877 738.4906278 1493.65850477 732.68622735 1493.65949659 C716.46221679 1493.66224711 700.23820621 1493.66395928 684.01419544 1493.664855 C683.27549805 1493.66489594 682.53680065 1493.66493688 681.77571849 1493.66497906 C658.25079171 1493.66620621 634.72586789 1493.66282977 611.20094204 1493.65630627 C610.43835486 1493.65609552 609.67576768 1493.65588477 608.8900718 1493.65566764 C596.50755151 1493.65223314 584.12503129 1493.64857459 571.74251107 1493.64489712 C522.64000788 1493.63032979 473.53752924 1493.63100454 424.43502617 1493.64558887 C412.05981798 1493.6492527 399.68460978 1493.65288596 387.30940151 1493.65630627 C386.54732563 1493.65651761 385.78524976 1493.65672896 385.00008067 1493.6569467 C361.49971929 1493.66341924 337.99935994 1493.66615733 314.49899769 1493.664855 C313.76083495 1493.66481425 313.0226722 1493.6647735 312.26214089 1493.66473151 C296.05528959 1493.6637939 279.84843851 1493.66189265 263.64158742 1493.65912349 C257.84218046 1493.65813615 252.0427735 1493.6571969 246.24336653 1493.65627136 C244.80073743 1493.65603919 243.35810832 1493.655803 241.91547922 1493.65556277 C218.96679668 1493.65175176 196.01812484 1493.65601884 173.0694437 1493.66411321 C149.30551666 1493.67240346 125.54162051 1493.66930686 101.7776956 1493.65351932 C88.08974351 1493.64472506 74.40184996 1493.64411431 60.71389942 1493.65545784 C51.56007274 1493.66220554 42.4062928 1493.65796128 33.25247302 1493.64494353 C28.04428483 1493.6378372 22.83621259 1493.63530411 17.62802822 1493.64616148 C-49.39232707 1493.77547336 -111.27165246 1477.87063101 -164.3118 1435.25447559 C-165.29277657 1434.48619434 -166.27375313 1433.71791309 -167.28445625 1432.92635059 C-184.71781012 1419.06182763 -199.97783229 1403.05646753 -213.3118 1385.25447559 C-213.78053535 1384.63685352 -214.24927071 1384.01923145 -214.73221016 1383.38289356 C-257.78441149 1326.28591319 -267.67303896 1260.73243763 -267.56873511 1191.35820384 C-267.56359287 1186.43459192 -267.57020836 1181.51099198 -267.57522178 1176.58738184 C-267.58239835 1167.98525708 -267.58225509 1159.38315748 -267.57712746 1150.78103161 C-267.56952307 1137.98877641 -267.57345032 1125.1965422 -267.57954407 1112.40428711 C-267.59004691 1089.54958155 -267.58917422 1066.69488721 -267.58338625 1043.84018059 C-267.5783461 1023.83909233 -267.57704268 1003.83800767 -267.57943153 983.83691883 C-267.57958649 982.4944302 -267.57974081 981.15194157 -267.57989447 979.80945293 C-267.58051548 974.41373422 -267.58115282 969.01801551 -267.581814 963.6222968 C-267.58364748 948.54163872 -267.58478907 933.46098063 -267.58538628 918.38032246 C-267.58541357 917.69374425 -267.58544086 917.00716605 -267.58546898 916.29978245 C-267.5862868 894.44209175 -267.58403753 872.58440248 -267.57968712 850.72671223 C-267.57954662 850.01840436 -267.57940612 849.3100965 -267.57926137 848.58032476 C-267.57697183 837.07989015 -267.57453273 825.57945558 -267.57208102 814.07902102 C-267.56236932 768.47490429 -267.5628201 722.8707993 -267.57254219 677.26668262 C-267.57498483 665.77186808 -267.57740704 654.27705354 -267.57968712 642.78223896 C-267.57982801 642.07433691 -267.57996891 641.36643485 -267.58011408 640.63708122 C-267.58443032 618.8009302 -267.58625427 596.96478016 -267.58538628 575.12862873 C-267.58535911 574.44256295 -267.58533194 573.75649717 -267.58530395 573.04964151 C-267.58467883 557.98537432 -267.58341123 542.92110723 -267.58156527 527.85684013 C-267.58090707 522.46611904 -267.58028089 517.07539794 -267.57966385 511.68467684 C-267.57950907 510.34376493 -267.57935161 509.00285303 -267.57919146 507.66194113 C-267.57673146 487.00887999 -267.57916024 466.355824 -267.58439064 445.70276356 C-267.59011917 422.97004943 -267.58865817 400.23734822 -267.57782915 377.50463569 C-267.57197479 364.79731668 -267.57154681 352.0900257 -267.5791215 339.38270744 C-267.58363023 330.87761732 -267.58077218 322.3725495 -267.57211196 313.86746267 C-267.5673885 309.03318778 -267.56565562 304.19896825 -267.57292393 299.36469525 C-267.69154356 213.97416017 -246.93213893 141.40213616 -187.3118 78.25447559 C-186.67629219 77.57642872 -186.04078438 76.89838184 -185.38601875 76.19978809 C-181.30396823 71.97160211 -176.82273664 68.30440715 -172.2414875 64.62947559 C-170.32583317 63.07651848 -168.43370588 61.49396103 -166.5696125 59.87947559 C-153.40646963 48.5030197 -138.6431242 39.40348787 -123.3118 31.25447559 C-122.70255684 30.92528126 -122.09331367 30.59608692 -121.4656086 30.256917 C-84.12050914 10.19401729 -42.30408171 -0.12027865 0 0 Z " fill="#330000" transform="translate(501.31180000305176,253.7455244064331)"/>
<path d="M0 0 C0.70534114 -0.00453111 1.41068229 -0.00906223 2.13739741 -0.01373065 C4.51269461 -0.02644143 6.88776449 -0.02475002 9.26309204 -0.02310181 C10.96131182 -0.02908293 12.65952887 -0.0358875 14.35774231 -0.04345703 C18.97966034 -0.06116729 23.60150437 -0.06581454 28.22345304 -0.0670886 C32.07792848 -0.06898459 35.93238656 -0.0763387 39.78685534 -0.08343279 C48.87904079 -0.09973367 57.97118663 -0.10460022 67.06338501 -0.10317993 C76.45082644 -0.10197824 85.83803805 -0.1230816 95.22542131 -0.15466726 C103.27727321 -0.18079652 111.3290499 -0.19154863 119.38094389 -0.19026911 C124.19336936 -0.18975846 129.00559074 -0.19549811 133.81797409 -0.21662521 C138.34389967 -0.23595116 142.8694253 -0.23617098 147.39536476 -0.22159195 C149.05785135 -0.21949566 150.7203626 -0.22425333 152.38280678 -0.23631287 C154.65012836 -0.25169666 156.91605906 -0.24250451 159.18334961 -0.22705078 C160.45282629 -0.22814032 161.72230297 -0.22922985 163.03024864 -0.2303524 C166.80342501 0.35871992 167.93034059 1.27334923 170.21865845 4.26742554 C171.53970337 7.15463257 171.53970337 7.15463257 172.6991272 10.52523804 C172.91269867 11.1357048 173.12627014 11.74617157 173.34631348 12.37513733 C174.04384177 14.37730421 174.72488613 16.38467542 175.40615845 18.39242554 C175.89848259 19.81426946 176.3919067 21.23573295 176.88638306 22.65682983 C178.12157743 26.21497215 179.34408436 29.77729711 180.56106567 33.34170532 C182.12584301 37.92406005 183.70355796 42.50197342 185.28115845 47.07992554 C185.61961792 48.06509155 185.95807739 49.05025757 186.30679321 50.0652771 C191.2760511 64.446514 196.48754541 78.74289796 201.66030884 93.05184937 C205.71042153 104.26083318 209.71507333 115.48319662 213.63711548 126.73764038 C215.92472425 133.30036174 218.26142493 139.84545378 220.59365845 146.39242554 C223.90887719 155.71068523 227.18992122 165.0394422 230.40615845 174.39242554 C235.10130957 188.02754086 239.94577712 201.60898912 244.7850647 215.19345093 C245.48820804 217.16732135 246.19133286 219.14119836 246.8944397 221.11508179 C247.24801544 222.10766495 247.60159119 223.10024811 247.96588135 224.12290955 C250.51087162 231.27080588 253.04535893 238.42236908 255.5741272 245.57601929 C255.93281387 246.59060715 256.29150055 247.60519501 256.66105652 248.65052795 C257.38313456 250.69308234 258.10520591 252.7356391 258.82727051 254.77819824 C264.4779955 270.76175971 270.17354907 286.72723147 275.95761108 302.6630249 C280.00402669 313.81779295 283.92062903 325.01085006 287.76113892 336.23812866 C290.50526424 344.24679265 293.35535131 352.20979095 296.27310181 360.15658569 C298.62579886 366.58423076 300.87626566 373.04200732 303.09365845 379.51742554 C308.43580935 395.09204844 314.06199209 410.56545238 319.65957642 426.0496521 C323.7098662 437.25939202 327.71481943 448.48246805 331.63711548 459.73764038 C333.92472425 466.30036174 336.26142493 472.84545378 338.59365845 479.39242554 C341.90887751 488.71068614 345.18983431 498.0394715 348.40615845 507.39242554 C357.63494232 534.18622009 367.23936514 560.85206588 376.90057373 587.49246216 C380.90889588 598.552828 384.80959297 609.6440873 388.60269165 620.78036499 C390.67717491 626.85780257 392.80359599 632.90984929 395.02334595 638.93539429 C395.48933939 640.20814716 395.95524208 641.48093326 396.42105103 642.75375366 C397.29899223 645.14283798 398.1861948 647.52854878 399.08462524 649.91000366 C403.91826644 663.09855974 403.91826644 663.09855974 403.21865845 669.26742554 C402.0616436 670.87007236 402.0616436 670.87007236 400.21865845 672.26742554 C397.6458149 672.64774227 397.6458149 672.64774227 394.50067139 672.65510559 C392.71310928 672.66996254 392.71310928 672.66996254 390.88943481 672.68511963 C389.580271 672.68061798 388.27110718 672.67611633 386.92227173 672.67147827 C385.53093924 672.67717996 384.13961142 672.68414344 382.74829102 672.692276 C378.96719457 672.71024721 375.1863297 672.70903141 371.40520334 672.70333362 C368.24914017 672.70024678 365.09312181 672.70632872 361.93706501 672.71237236 C354.49068989 672.72642962 347.04442946 672.72484699 339.59805298 672.71347046 C331.9163906 672.70199377 324.23507753 672.71605441 316.55346119 672.74286693 C309.95887229 672.76502328 303.36439303 672.77166131 296.76976955 672.76579052 C292.83090599 672.76241885 288.89226625 672.76484945 284.95343399 672.78204155 C281.24821736 672.79750727 277.54351785 672.79355989 273.83832169 672.7747364 C271.8318527 672.76929195 269.82536053 672.78356833 267.81893921 672.7984314 C266.62159149 672.78859726 265.42424377 672.77876312 264.19061279 672.76863098 C263.15196138 672.7684217 262.11330997 672.76821241 261.04318428 672.76799679 C257.48828344 672.13798621 255.80887287 670.72888144 253.21865845 668.26742554 C252.16317749 666.42668152 252.16317749 666.42668152 251.54190063 664.49716187 C251.29272888 663.75447556 251.04355713 663.01178925 250.78683472 662.24659729 C250.40504059 661.02907524 250.40504059 661.02907524 250.01553345 659.78695679 C249.41371915 657.97253395 248.81148124 656.15825158 248.20889282 654.34408569 C247.88976929 653.3647406 247.57064575 652.38539551 247.24185181 651.37637329 C245.4070636 645.80141465 243.46731683 640.26251177 241.54678345 634.71664429 C240.71375501 632.29716971 239.88132728 629.87748823 239.04946899 627.45761108 C232.3186811 607.88871535 225.58098136 588.324503 218.61294556 568.83847046 C215.88411231 561.1928008 213.25708649 553.52029537 210.72305298 545.80795288 C208.15952196 538.01738054 205.44891719 530.27980075 202.70620728 522.55062866 C202.38160522 521.62830444 202.05700317 520.70598022 201.7225647 519.75570679 C201.43196167 518.93626587 201.14135864 518.11682495 200.84194946 517.27255249 C200.21865845 515.26742554 200.21865845 515.26742554 200.21865845 513.26742554 C122.00865845 513.59742554 43.79865845 513.92742554 -36.78134155 514.26742554 C-47.93506113 548.31562215 -59.07284487 582.35479395 -69.93978882 616.49349976 C-71.25493844 620.62195431 -72.57684925 624.74818887 -73.90219116 628.87338257 C-74.25856155 629.98354233 -74.61493195 631.09370209 -74.98210144 632.23750305 C-75.66339751 634.35904575 -76.34560906 636.48029478 -77.02894592 638.60118103 C-79.35536086 645.84907863 -81.56940966 653.12487576 -83.66279602 660.44355774 C-85.05520463 665.22794282 -86.86129569 667.99134255 -90.78134155 671.26742554 C-93.3207172 672.53711336 -95.09327199 672.39899052 -97.93696594 672.40786743 C-99.57534676 672.41643265 -99.57534676 672.41643265 -101.24682617 672.4251709 C-102.45051849 672.42628876 -103.65421082 672.42740662 -104.89437866 672.42855835 C-106.15781601 672.43352325 -107.42125336 672.43848816 -108.72297668 672.44360352 C-112.19402283 672.45673383 -115.66504964 672.46317349 -119.13611674 672.46761417 C-121.30339428 672.47054339 -123.4706665 672.47464786 -125.63794136 672.47911835 C-132.4151898 672.49279384 -139.19242612 672.50246071 -145.9696874 672.50632024 C-153.80013345 672.51080377 -161.63040518 672.52836495 -169.4607982 672.55732083 C-175.50924665 672.57891317 -181.55764597 672.58902317 -187.60613257 672.59036136 C-191.22076047 672.59141099 -194.83522452 672.5973523 -198.44981194 672.61518097 C-202.47961952 672.63467106 -206.50906051 672.63038253 -210.53890991 672.62387085 C-212.34141205 672.63769302 -212.34141205 672.63769302 -214.18032837 672.65179443 C-215.27540207 672.64622528 -216.37047577 672.64065613 -217.49873352 672.63491821 C-218.45203521 672.63638477 -219.40533689 672.63785133 -220.38752651 672.63936234 C-222.78134155 672.26742554 -222.78134155 672.26742554 -224.58660221 670.96857834 C-226.68513146 667.98054674 -226.25625256 664.7228125 -225.78134155 661.26742554 C-224.89026949 657.96248998 -223.66490951 654.82294456 -222.40634155 651.64242554 C-221.65645368 649.66599634 -220.91056301 647.68804727 -220.1680603 645.70883179 C-219.77409058 644.65969604 -219.38012085 643.6105603 -218.97421265 642.52963257 C-216.9242553 636.92350689 -215.07979556 631.2510026 -213.21884155 625.57992554 C-208.98933351 612.76522278 -204.60397479 600.00801304 -200.15634155 587.26742554 C-199.66551086 585.86112885 -199.66551086 585.86112885 -199.1647644 584.42642212 C-195.37581151 573.58059733 -191.53558777 562.75799958 -187.55502319 551.98080444 C-184.90806092 544.75352097 -182.50060243 537.452654 -180.09384155 530.14242554 C-176.33089143 518.71382525 -172.33999793 507.38409016 -168.21884155 496.07992554 C-164.10439477 484.7883853 -160.12052595 473.47504666 -156.37265015 462.05526733 C-152.82463421 451.28934113 -149.0878285 440.59148986 -145.34384155 429.89242554 C-145.01595642 428.95526703 -144.68807129 428.01810852 -144.35025024 427.05255127 C-143.05021392 423.33701141 -141.75017428 419.62147274 -140.44979858 415.90605164 C-137.8710881 408.53419506 -135.31937715 401.15339429 -132.78134155 393.76742554 C-128.14209016 380.27734171 -123.44278327 366.80847928 -118.73934937 353.34066772 C-115.36834908 343.68730057 -112.00242375 334.03221958 -108.64852905 324.37289429 C-107.27616205 320.42106136 -105.90375925 316.46924086 -104.53134155 312.51742554 C-104.19405029 311.54604645 -103.85675903 310.57466736 -103.50924683 309.57385254 C-99.35739905 297.62048438 -95.16512074 285.68308572 -90.90634155 273.76742554 C-87.00836808 262.85868267 -83.31383934 251.89440052 -79.69223022 240.89120483 C-76.3759278 230.88888236 -72.82700158 220.98026953 -69.21884155 211.07992554 C-65.10472071 199.78825983 -61.12053051 188.47506057 -57.37265015 177.05526733 C-53.82463611 166.28934689 -50.08805759 155.59140545 -46.34384155 144.89242554 C-46.0176181 143.96025208 -45.69139465 143.02807861 -45.35528564 142.06765747 C-45.03045197 141.13955261 -44.70561829 140.21144775 -44.37094116 139.25521851 C-43.72387619 137.40642676 -43.07682204 135.55763123 -42.42977905 133.70883179 C-42.11386307 132.80634705 -41.79794708 131.9038623 -41.47245789 130.97402954 C-38.37648631 122.12313784 -35.32825838 113.25623773 -32.28866577 104.38583374 C-29.85397826 97.3050105 -27.33982484 90.25670888 -24.78646851 83.21786499 C-20.6139213 71.6975526 -16.58328595 60.20792918 -13.78134155 48.26742554 C-13.61182983 47.58776733 -13.44231812 46.90810913 -13.26766968 46.20785522 C-11.11039704 36.71992594 -10.78559336 26.92974592 -10.10409546 17.24984741 C-9.93130794 14.8279818 -9.74753761 12.40713832 -9.56259155 9.98617554 C-9.51356689 9.2404126 -9.46454224 8.49464966 -9.41403198 7.72628784 C-8.84974485 0.46029365 -6.9702007 0.01841375 0 0 Z " fill="#FE9900" transform="translate(774.7813415527344,633.7325744628906)"/>
<path d="M0 0 C1.1426683 -0.0112793 2.28533661 -0.02255859 3.46263123 -0.03417969 C5.34457687 -0.0220343 5.34457687 -0.0220343 7.26454163 -0.00964355 C8.59838628 -0.01506337 9.93222495 -0.02218524 11.26605225 -0.03088379 C14.89014346 -0.04913912 18.51377984 -0.04204042 22.13787913 -0.02936745 C25.929019 -0.01924894 29.72011961 -0.02863011 33.51126099 -0.03491211 C39.87928771 -0.04219279 46.24712899 -0.03259084 52.61512756 -0.0135498 C59.97759246 0.00821058 67.33961415 0.00117561 74.70206827 -0.02085543 C81.02149815 -0.03900872 87.34079461 -0.04156787 93.66024214 -0.03110075 C97.435301 -0.02486416 101.21015158 -0.02403435 104.98519707 -0.0372467 C108.53531566 -0.04880342 112.08486321 -0.04078367 115.63492012 -0.01766968 C117.55926351 -0.00985842 119.4836552 -0.02174077 121.40797424 -0.03417969 C122.55346237 -0.02290039 123.6989505 -0.01162109 124.87915039 0 C125.87447753 0.0015081 126.86980467 0.0030162 127.89529324 0.00457001 C131.39260384 0.67963708 132.36421475 1.66054044 134.50306702 4.50793457 C134.89498877 7.40278718 135.04065838 9.91637602 135.00643158 12.810462 C135.01224534 13.65945461 135.01805911 14.50844722 135.02404904 15.38316688 C135.03872617 18.24746337 135.02472795 21.11091325 135.01100159 23.97520447 C135.01560746 26.04162269 135.02195825 28.10803764 135.02991056 30.17444569 C135.04667022 35.86803222 135.03832737 41.56135195 135.02596569 47.25493968 C135.01694456 53.38932873 135.03087034 59.52367072 135.04188538 65.65805054 C135.058676 76.98603834 135.05717589 88.31391689 135.0462395 99.64190201 C135.03618592 110.10658929 135.03354642 120.57124524 135.03833008 131.03593636 C135.03863562 131.72949551 135.03894116 132.42305466 135.03925596 133.13763076 C135.04050127 135.95286992 135.04177487 138.76810907 135.04309501 141.58334819 C135.05533751 168.00537308 135.04422713 194.42734353 135.02270743 220.84936002 C135.00372637 244.33299282 135.00542099 267.81653886 135.02455139 291.3001709 C135.04596242 317.67168178 135.05446726 344.04314453 135.04210234 370.4146629 C135.04081943 373.22514759 135.03956807 376.0356323 135.03833008 378.84611702 C135.03801377 379.53815229 135.03769746 380.23018757 135.03737156 380.94319361 C135.03281836 391.40160492 135.03814898 401.85998148 135.04824829 412.31838799 C135.05967305 424.20880944 135.05646645 436.09912841 135.03512532 447.98954587 C135.02459025 454.05997603 135.0205349 460.13022982 135.03372192 466.2006588 C135.04560083 471.75277024 135.03915767 477.30454106 135.01781172 482.85662139 C135.01332649 484.87003298 135.01565464 486.88347308 135.02531487 488.89686649 C135.03740426 491.62484742 135.02507999 494.35164768 135.00643158 497.079566 C135.01579624 497.86906461 135.02516091 498.65856322 135.03480935 499.47198603 C134.98384806 503.17855363 134.61787394 505.32456049 132.63246584 508.49573141 C129.93443374 511.04527199 128.63624973 511.132068 124.96180725 511.12939453 C123.83459259 511.14060333 122.70737793 511.15181213 121.54600525 511.1633606 C120.31367157 511.15009735 119.08133789 511.13683411 117.81166077 511.12316895 C116.51052338 511.12871796 115.20938599 511.13426697 113.86882019 511.13998413 C110.30250493 511.15423222 106.73696068 511.13717146 103.17071915 511.11369896 C99.43832436 511.09359161 95.70596163 511.09946945 91.973526 511.10180664 C85.70557438 511.10175307 79.43792419 511.0819955 73.1700592 511.04992676 C65.92406799 511.0130337 58.67847167 511.00425113 51.4323988 511.01122427 C44.4612819 511.01753011 37.49030039 511.00677354 30.51921082 510.98725891 C27.55278087 510.97908531 24.58642012 510.97637528 21.61997986 510.97795105 C17.47794157 510.9789934 13.33642383 510.9548178 9.19447327 510.92785645 C7.96213959 510.93078705 6.72980591 510.93371765 5.46012878 510.93673706 C3.76930679 510.91971237 3.76930679 510.91971237 2.04432678 510.90234375 C1.06504715 510.89861504 0.08576752 510.89488632 -0.92318726 510.89104462 C-3.95204181 510.44019021 -5.3106216 509.62631675 -7.49693298 507.50793457 C-8.74928088 503.75089089 -8.63709119 500.25461426 -8.62836075 496.34127903 C-8.6314397 495.07160405 -8.6314397 495.07160405 -8.63458085 493.77627906 C-8.64027499 490.91488966 -8.63879064 488.05354803 -8.63737488 485.19215393 C-8.63995712 483.13001479 -8.64296988 481.06787614 -8.64637828 479.0057382 C-8.65446788 473.3194493 -8.65623894 467.633173 -8.65697575 461.94687903 C-8.65882286 455.82205021 -8.66636838 449.69722798 -8.67311096 443.57240295 C-8.6874172 429.47290603 -8.69322222 415.37341326 -8.69780291 401.27391083 C-8.70013764 394.30972251 -8.70374012 387.34553503 -8.70749828 380.38134736 C-8.72033351 356.55192421 -8.73105354 332.72250152 -8.73450089 308.89307499 C-8.73472252 307.39691942 -8.7349443 305.90076385 -8.73516624 304.40460828 C-8.73538688 302.90480236 -8.73560736 301.40499644 -8.73582768 299.90519053 C-8.73627024 296.89622565 -8.73671736 293.88726077 -8.73716736 290.8782959 C-8.73727675 290.13224625 -8.73738614 289.3861966 -8.73749885 288.61753938 C-8.7411313 264.41462913 -8.75705857 240.2117488 -8.78035772 216.00885002 C-8.80493447 190.43215007 -8.81867269 164.85546723 -8.8198688 139.27875513 C-8.82004026 136.47304721 -8.82025569 133.6673393 -8.82050323 130.86163139 C-8.820559 130.17076535 -8.82061477 129.4798993 -8.82067223 128.76809792 C-8.82182445 117.63428736 -8.83286076 106.50050744 -8.84739029 95.36670724 C-8.86173179 84.18396357 -8.86475232 73.00125877 -8.85695031 61.81850488 C-8.85302964 55.75632716 -8.85404221 49.69425286 -8.86800766 43.63208771 C-8.88066177 38.08868706 -8.87962441 32.54546843 -8.86741695 27.00206833 C-8.86544514 24.99065832 -8.868606 22.97923578 -8.87726131 20.96784342 C-8.8882409 18.24514783 -8.88094703 15.52310757 -8.86886978 12.80043125 C-8.87646497 12.00962413 -8.88406017 11.218817 -8.89188552 10.40404603 C-8.86069574 7.17311724 -8.70130242 4.87941383 -7.12880772 2.02111381 C-4.7838283 -0.15330197 -3.16614094 0.0047991 0 0 Z " fill="#FE9900" transform="translate(1256.4969329833984,798.4920654296875)"/>
<path d="M0 0 C2 1 2 1 2.68261719 2.9074707 C2.88532227 3.73851318 3.08802734 4.56955566 3.296875 5.42578125 C3.64685547 6.82304443 3.64685547 6.82304443 4.00390625 8.24853516 C4.25011719 9.25964355 4.49632812 10.27075195 4.75 11.3125 C6.67762542 18.96958843 8.69017655 26.57394673 11 34.125 C13.06880896 40.89852867 15.07038799 47.68542946 17 54.5 C19.42618716 63.04930858 21.94206589 71.56819081 24.515625 80.07421875 C25.47927999 83.25991197 26.42738751 86.44943502 27.359375 89.64453125 C30.31103049 99.71519378 33.5292567 109.67835628 36.875 119.625 C39.91834478 128.67695658 42.90371686 137.73896511 45.6875 146.875 C46.1522876 148.39975952 46.1522876 148.39975952 46.62646484 149.95532227 C46.95984863 151.04901123 47.29323242 152.1427002 47.63671875 153.26953125 C50.71981752 163.3789724 53.85607376 173.47183259 57 183.5625 C57.4725975 185.08118683 57.4725975 185.08118683 57.95474243 186.6305542 C61.711074 198.68859411 65.53965767 210.71958246 69.4921875 222.71484375 C69.86031555 223.83339249 70.2284436 224.95194122 70.60772705 226.10438538 C72.38878682 231.51030823 74.17951397 236.91276872 75.984375 242.31079102 C76.6329959 244.26963329 77.28144256 246.22853327 77.9296875 248.1875 C78.2268869 249.06562851 78.5240863 249.94375702 78.83029175 250.84849548 C79.23889938 252.08944725 79.23889938 252.08944725 79.65576172 253.35546875 C80.01092361 254.41737427 80.01092361 254.41737427 80.3732605 255.50073242 C81.23469072 258.93588312 81.56072923 262.48583388 82 266 C28.87 266 -24.26 266 -79 266 C-76.75022092 257.00088368 -76.75022092 257.00088368 -75.49121094 253.1706543 C-75.07001984 251.882118 -75.07001984 251.882118 -74.64031982 250.56755066 C-74.34135803 249.66225113 -74.04239624 248.7569516 -73.734375 247.82421875 C-73.26055389 246.37726372 -73.26055389 246.37726372 -72.77716064 244.90107727 C-71.77073162 241.82901662 -70.7605843 238.75819597 -69.75 235.6875 C-60.4905145 207.94057462 -60.4905145 207.94057462 -52.45507812 179.82617188 C-50.55430833 172.63871293 -48.29664131 165.58011345 -46.02575684 158.50341797 C-43.36430116 150.19117813 -40.78267819 141.85558707 -38.22265625 133.51171875 C-37.90960761 132.49205678 -37.90960761 132.49205678 -37.59023476 131.45179558 C-35.86242353 125.82371492 -34.13696232 120.19491472 -32.41253662 114.5657959 C-30.91343825 109.67224902 -29.41276246 104.77918969 -27.91015625 99.88671875 C-27.70132309 99.2063965 -27.49248993 98.52607426 -27.27732849 97.82513618 C-24.46077993 88.65601707 -21.57611666 79.51089399 -18.62890625 70.3828125 C-15.83012065 61.69973998 -13.18585451 53.01536123 -10.875 44.1875 C-10.55007568 42.96264893 -10.22515137 41.73779785 -9.89038086 40.47583008 C-7.21633096 30.21951464 -4.9322373 19.90171458 -2.81396484 9.51831055 C-2.58789551 8.41269775 -2.36182617 7.30708496 -2.12890625 6.16796875 C-1.93369385 5.19110107 -1.73848145 4.2142334 -1.53735352 3.20776367 C-1 1 -1 1 0 0 Z " fill="#340100" transform="translate(854,752)"/>
<path d="M0 0 C14.49941372 13.82043815 23.55849762 33.18021312 24.44604492 53.19824219 C24.98256057 76.67815922 21.45460966 99.11416716 4.8984375 117.08984375 C3.07229931 118.99627195 1.21141036 120.8558224 -0.6640625 122.71484375 C-1.29828125 123.38257813 -1.9325 124.0503125 -2.5859375 124.73828125 C-18.10606865 139.91504667 -39.67737678 142.16574068 -60.17654419 142.01205444 C-80.26008079 141.73668797 -98.0097775 134.57834102 -112.6640625 120.71484375 C-113.29441406 120.12574219 -113.92476562 119.53664063 -114.57421875 118.9296875 C-131.56319883 101.32151908 -135.33162961 77.75112417 -134.97265625 54.34765625 C-134.24763031 33.00602118 -124.42810069 15.74687485 -109.3125 1.0625 C-79.80394799 -25.09478578 -29.95217156 -25.69211197 0 0 Z " fill="#FE9900" transform="translate(1375.6640625,603.28515625)"/>
</svg>
