<?xml version="1.0" encoding="UTF-8"?>
<svg version="1.1" xmlns="http://www.w3.org/2000/svg" width="2000" height="2000">
<path d="M0 0 C5.03075533 0.00420132 10.06149643 -0.00324908 15.0922482 -0.00915251 C23.89486386 -0.01788651 32.69745625 -0.01923661 41.50007516 -0.01564924 C54.59053477 -0.01032857 67.68097196 -0.01645126 80.77142913 -0.02473217 C104.83531915 -0.03953687 128.89920166 -0.04182389 152.96309477 -0.03941179 C156.36835867 -0.03907331 159.77362257 -0.03875122 163.17888648 -0.03844611 C164.19356791 -0.03835454 164.19356791 -0.03835454 165.22874796 -0.03826112 C180.24585888 -0.03698712 195.26296839 -0.03959447 210.28007888 -0.04297217 C213.71305954 -0.04374293 217.14604021 -0.04448767 220.57902087 -0.04523719 C221.9569121 -0.04553888 223.33480333 -0.04584076 224.71269456 -0.04614283 C225.73722012 -0.04636735 225.73722012 -0.04636735 226.78244316 -0.0465964 C228.1640516 -0.04689994 229.54566004 -0.04720462 230.92726848 -0.04751045 C270.1110583 -0.05617911 309.29484686 -0.06083058 348.47863752 -0.05656282 C349.20363446 -0.05648476 349.9286314 -0.0564067 350.67559794 -0.05632628 C358.75933489 -0.05545355 366.84307184 -0.05452428 374.92680878 -0.05357565 C375.65659395 -0.05349014 376.38637912 -0.05340463 377.13827899 -0.05331653 C383.20069123 -0.05260591 383.20069123 -0.05260591 385.9921557 -0.0522743 C432.65929306 -0.04674 479.32641062 -0.05427826 525.9935444 -0.07304517 C537.7515708 -0.07776777 549.50959721 -0.08244845 561.26762373 -0.08688203 C561.99170984 -0.08715535 562.71579596 -0.08742868 563.46182408 -0.08771028 C585.79591154 -0.0960879 608.12999734 -0.10076183 630.46408636 -0.1015896 C631.16577724 -0.10161596 631.86746811 -0.10164233 632.59042235 -0.1016695 C647.9977547 -0.1022104 663.40508692 -0.10183755 678.81241923 -0.10062978 C684.32605391 -0.1002042 689.83968859 -0.09983906 695.35332328 -0.09950034 C696.72485458 -0.09941504 698.09638588 -0.0993261 699.46791718 -0.09923352 C721.27529718 -0.09778783 743.08266367 -0.10489097 764.89004043 -0.11623748 C787.47961203 -0.12791484 810.06916234 -0.12842051 832.65873439 -0.11639406 C845.66617689 -0.10977839 858.67355606 -0.11136663 871.68099345 -0.12498257 C880.38514431 -0.13325599 889.08924798 -0.13049212 897.79339504 -0.1190073 C902.74234519 -0.11277945 907.69117222 -0.1110754 912.64011503 -0.12287064 C937.97864901 -0.17920058 963.22201941 0.0497136 988.02943307 5.95063647 C989.6757673 6.33082934 989.6757673 6.33082934 991.35536081 6.71870288 C1021.75760161 13.99568405 1053.02974564 26.66642733 1078.34193307 45.26313647 C1079.23887888 45.91185717 1079.23887888 45.91185717 1080.15394479 46.57368334 C1100.55132738 61.35101691 1120.07396747 78.10267359 1135.34193307 98.26313647 C1136.26684554 99.43699861 1137.19269446 100.61012326 1138.11927682 101.78266772 C1149.33085004 116.14852269 1158.66003076 131.78479576 1166.4063862 148.27241381 C1167.03843342 149.61732849 1167.67796429 150.9587478 1168.32435495 152.29682788 C1176.46271397 169.18828552 1182.24294473 186.99673478 1186.15443307 205.32563647 C1186.33707712 206.17206713 1186.51972116 207.0184978 1186.70789987 207.89057788 C1187.32735562 211.00531011 1187.83552025 214.1277567 1188.34193307 217.26313647 C1188.46214207 217.9782328 1188.58235107 218.69332913 1188.70620276 219.43009505 C1191.84860625 238.70756626 1191.77151953 257.87319501 1191.72733574 277.33955547 C1191.71964401 282.21373907 1191.72953731 287.08789489 1191.73706574 291.96207442 C1191.74784596 300.48352754 1191.74760608 309.00492352 1191.73992425 317.52637919 C1191.72853196 330.1985745 1191.73440123 342.870722 1191.74354918 355.54291704 C1191.75931454 378.18154678 1191.75798991 400.82015107 1191.74931244 423.45878322 C1191.74175585 443.27125145 1191.73980029 463.08371038 1191.74338037 482.89617976 C1191.74360953 484.21209037 1191.74383868 485.52800098 1191.74407478 486.88378767 C1191.74500885 492.2259559 1191.74596227 497.56812412 1191.74695407 502.91029233 C1191.74970446 517.8419001 1191.75141673 532.77350789 1191.75231248 547.70511588 C1191.75235342 548.38494369 1191.75239436 549.0647715 1191.75243654 549.76520016 C1191.75366351 571.41223369 1191.75028816 593.059264 1191.74376375 614.70629653 C1191.743553 615.40791052 1191.74334225 616.10952451 1191.74312512 616.83239953 C1191.7396907 628.22454323 1191.73603211 639.61668686 1191.7323546 651.00883048 C1191.71778757 696.18255664 1191.71846219 741.35625613 1191.73304636 786.52998217 C1191.73671025 797.91533237 1191.74034354 809.30068258 1191.74376375 820.68603285 C1191.74408076 821.73774242 1191.74408076 821.73774242 1191.74440419 822.81069864 C1191.75087768 844.43525416 1191.75361463 866.05980746 1191.75231248 887.68436392 C1191.75225135 888.70336722 1191.75225135 888.70336722 1191.75218899 889.74295643 C1191.75125134 904.6588788 1191.74935001 919.57480094 1191.74658098 934.49072308 C1191.74547077 940.49257451 1191.74442548 946.49442596 1191.74338037 952.49627742 C1191.74302452 954.46568865 1191.74302452 954.46568865 1191.74266149 956.47488597 C1191.7392542 976.27050686 1191.74323033 996.0661174 1191.75081903 1015.86173686 C1191.75940825 1038.37907884 1191.75722795 1060.89639146 1191.7409768 1083.4137298 C1191.73218909 1096.00391672 1191.73156225 1108.59403999 1191.74291532 1121.18422522 C1191.74967097 1129.60755377 1191.74540459 1138.03083159 1191.73240101 1146.45415267 C1191.72530557 1151.24427831 1191.72273835 1156.03427807 1191.73361896 1160.82439949 C1191.78479304 1185.12544279 1191.21963735 1209.0289865 1185.65443307 1232.82563647 C1185.40024606 1233.93366625 1185.14605905 1235.04169604 1184.8841694 1236.18330249 C1174.87516114 1278.28944171 1154.05621874 1319.22603137 1123.93568307 1350.55219897 C1121.8290943 1352.75396495 1119.85233666 1354.98624246 1117.90443307 1357.32563647 C1079.97620534 1400.93393695 1019.47007735 1426.8412211 963.34193307 1434.26313647 C962.68401013 1434.35129722 962.02608719 1434.43945797 961.34822719 1434.53029025 C953.11896991 1435.49161624 944.8913663 1435.40436183 936.62079984 1435.39456423 C934.91749846 1435.39621577 933.21419745 1435.3983029 931.51089707 1435.40078434 C926.82807673 1435.40633637 922.14527472 1435.40568126 917.46245215 1435.40400675 C912.36847457 1435.40327455 907.27450212 1435.40830118 902.18052674 1435.41258177 C892.07610978 1435.42015668 881.97169812 1435.42235457 871.86727862 1435.42291082 C859.76433783 1435.42382497 847.66140193 1435.43049405 835.55846325 1435.43725764 C806.99983066 1435.45293404 778.44119932 1435.4590057 749.88256348 1435.46366467 C735.34764663 1435.46604918 720.81273023 1435.46975293 706.27781373 1435.47370177 C659.63616704 1435.48636604 612.99452038 1435.49714941 566.352872 1435.50054223 C564.12415574 1435.50070447 561.89543949 1435.50087003 559.66672323 1435.50103661 C555.19712053 1435.50137041 550.72751784 1435.50170089 546.25791514 1435.50203117 C541.0252803 1435.50241807 535.79264546 1435.50280767 530.56001063 1435.50320223 C529.06239734 1435.50331465 527.56478405 1435.50342607 526.06717077 1435.50353649 C477.98532929 1435.50708471 429.90350276 1435.52215825 381.82166699 1435.54547423 C347.2668596 1435.56222387 312.71205505 1435.57769429 278.15724355 1435.58220919 C277.44607614 1435.58230268 276.73490872 1435.58239616 276.00219077 1435.58249248 C260.38747029 1435.58451188 244.77274986 1435.58566764 229.15802925 1435.58602107 C223.57015872 1435.58615723 217.98228819 1435.58636622 212.39441765 1435.58661432 C211.00435522 1435.58667588 209.61429279 1435.5867342 208.22423036 1435.58678927 C186.10572751 1435.58770778 163.98724031 1435.59766032 141.86874261 1435.61224676 C118.95656433 1435.62729608 96.04440443 1435.63143634 73.13222073 1435.6231538 C59.93291349 1435.61870295 46.73367033 1435.62253638 33.53437154 1435.63839231 C24.70708295 1435.64816391 15.87983912 1435.64694325 7.05255091 1435.63695608 C2.02981094 1435.63157979 -2.99280626 1435.63080289 -8.01553591 1435.6434648 C-46.90719771 1435.73524621 -46.90719771 1435.73524621 -65.65806693 1432.26313647 C-66.64244939 1432.08148295 -67.62683186 1431.89982944 -68.6410441 1431.71267127 C-118.35167723 1422.41877293 -167.44328647 1398.06258205 -202.65806693 1361.26313647 C-205.06199757 1358.83962985 -207.47711274 1356.43575317 -209.94712943 1354.07954272 C-216.93542736 1347.33665324 -222.85445387 1340.02992117 -228.65806693 1332.26313647 C-229.09151419 1331.68515307 -229.52496146 1331.10716967 -229.97154349 1330.51167163 C-236.47792335 1321.77812687 -242.27524111 1312.72710565 -247.65806693 1303.26313647 C-248.02254935 1302.63133471 -248.38703177 1301.99953295 -248.76255911 1301.34858569 C-262.22762996 1277.82333613 -271.23457742 1251.61262785 -276.47056693 1225.07563647 C-276.6656182 1224.09216235 -276.86066946 1223.10868823 -277.06163138 1222.09541186 C-281.05999711 1200.42098908 -280.95028804 1178.76671563 -280.9212034 1156.82174043 C-280.91699982 1151.969752 -280.92445373 1147.11777827 -280.9303559 1142.26579353 C-280.93908751 1133.77708061 -280.94044087 1125.28839183 -280.93685263 1116.79967555 C-280.9315307 1104.17603746 -280.93765591 1091.5524226 -280.94593556 1078.92878704 C-280.96115614 1055.06769048 -280.96288262 1031.20660456 -280.96041254 1007.34550417 C-280.95857809 988.91609105 -280.96034266 970.48668139 -280.96463698 952.0572687 C-280.96523939 949.40716646 -280.96584058 946.75706421 -280.96644058 944.10696197 C-280.9675733 939.11702159 -280.9675733 939.11702159 -280.96871384 934.12708121 C-280.97738213 896.33969395 -280.98203423 858.55230798 -280.97776621 820.76491984 C-280.97768816 820.06580231 -280.9776101 819.36668478 -280.97752968 818.64638188 C-280.97665695 810.85123324 -280.97572768 803.0560846 -280.97477904 795.26093597 C-280.97469353 794.55720634 -280.97460803 793.85347672 -280.97451993 793.12842195 C-280.97380931 787.28250393 -280.97380931 787.28250393 -280.9734777 784.59065795 C-280.96794318 739.58792136 -280.97548244 694.58520529 -280.99424857 649.58247241 C-280.99897117 638.2433198 -281.00365185 626.90416717 -281.00808543 615.56501445 C-281.00835875 614.86672226 -281.00863207 614.16843008 -281.00891368 613.44897753 C-281.01729126 591.91059577 -281.02196522 570.37221572 -281.02279299 548.83383235 C-281.02281936 548.15714561 -281.02284573 547.48045887 -281.02287289 546.78326648 C-281.02341379 531.92500677 -281.02304095 517.0667472 -281.02183318 502.20848753 C-281.02135463 496.22962463 -281.02095894 490.25076173 -281.0205757 484.27189883 C-281.02048497 482.96397203 -281.02039424 481.65604523 -281.02030075 480.30848428 C-281.01913623 460.58956549 -281.02577207 440.87065917 -281.03638762 421.15174349 C-281.04845287 398.71741215 -281.04998331 376.28310824 -281.03759745 353.84877647 C-281.03098174 341.30547592 -281.03257015 328.76224103 -281.04618597 316.21894577 C-281.05445925 307.8254552 -281.05169569 299.43201358 -281.0402107 291.03852695 C-281.03398273 286.26619036 -281.0322791 281.49398144 -281.04407403 276.72165246 C-281.10083064 252.10171803 -280.65570664 227.74527719 -274.97056693 203.63813647 C-274.71710501 202.5360686 -274.4636431 201.43400073 -274.20250052 200.29853686 C-269.9074722 182.28234878 -263.79099595 164.89915847 -255.65806693 148.26313647 C-255.26280814 147.4481267 -254.86754935 146.63311694 -254.46031302 145.79340991 C-237.83031301 111.86279338 -213.53587698 80.59352074 -183.65806693 57.26313647 C-182.69771536 56.48583178 -181.7373638 55.70852709 -180.74791068 54.90766772 C-147.99748235 28.8646596 -108.36335172 11.6375558 -67.34556693 3.95063647 C-66.16764578 3.72948168 -66.16764578 3.72948168 -64.96592825 3.50385913 C-62.20301429 3.02856103 -59.43569772 2.64424343 -56.65806693 2.26313647 C-55.48379631 2.09522422 -54.3095257 1.92731197 -53.09967112 1.75431147 C-35.49625593 -0.49322977 -17.71020748 -0.02262218 0 0 Z " fill="#001E36" transform="translate(544.6580669255927,282.73686353024095)"/>
<path d="M0 0 C2.43193767 -0.00773382 4.86377906 -0.02112354 7.295681 -0.03624344 C24.42481356 -0.13498568 41.40307012 0.26051021 58.47796249 1.70304489 C59.2245311 1.76594397 59.9710997 1.82884304 60.7402916 1.89364815 C72.45411764 2.90368846 84.01248769 4.46026854 95.53655624 6.8148613 C97.8673797 7.28167758 100.20147759 7.69641704 102.54436874 8.09757614 C123.94432847 11.93925006 145.53761345 19.64763845 164.98186874 29.30460739 C166.13404892 29.86849167 166.13404892 29.86849167 167.30950546 30.44376755 C186.87231579 40.09285812 204.055973 52.39929811 219.98186874 67.30460739 C221.3875914 68.61171677 221.3875914 68.61171677 222.82171249 69.94523239 C260.14034656 105.45204213 279.70892382 158.44949017 281.10808945 209.30558395 C281.1993857 213.57602956 281.22841722 217.84576204 281.23186874 222.11710739 C281.23254349 222.87884262 281.23321823 223.64057785 281.23391342 224.42539597 C281.21466346 238.22960092 280.25691485 251.6722445 277.98186874 265.30460739 C277.81557968 266.3319902 277.64929062 267.35937302 277.47796249 268.41788864 C270.97995474 307.45406856 254.32014399 342.59538619 226.98186874 371.30460739 C226.42789413 371.89113083 225.87391953 372.47765427 225.30315781 373.08195114 C187.23305413 413.14725877 136.80698714 432.29877607 83.10686874 441.05460739 C81.32095322 441.35286423 81.32095322 441.35286423 79.49895859 441.65714645 C56.10306958 445.26031731 32.46912506 445.61763565 8.84850693 445.50022507 C6.10502846 445.48938321 3.36160018 445.48975848 0.61810398 445.49036312 C-2.7749821 445.49001847 -6.16802441 445.48113984 -9.56110001 445.47257614 C-11.33567833 445.47090691 -11.33567833 445.47090691 -13.14610672 445.46920395 C-25.44741284 445.40320205 -37.7298021 444.838984 -50.01813126 444.30460739 C-50.01021214 445.32559115 -50.00229303 446.34657492 -49.99413395 447.39849758 C-49.80224741 472.22711649 -49.62774921 497.05581102 -49.47154331 521.88468075 C-49.39560002 533.89167373 -49.31398154 545.8985783 -49.21905899 557.90543747 C-49.13635079 568.3691041 -49.06423341 578.83278059 -49.00489873 589.29660684 C-48.97310212 594.83848779 -48.9359584 600.3802178 -48.88613701 605.92196846 C-48.8394259 611.13635351 -48.80685939 616.35063425 -48.78520966 621.56518173 C-48.77475187 623.48044856 -48.75909574 625.39569504 -48.73789024 627.31087303 C-48.70973449 629.92356997 -48.70019414 632.53569623 -48.69533157 635.14852524 C-48.6827021 635.90825974 -48.67007263 636.66799425 -48.65706044 637.45075101 C-48.67438797 642.34436262 -49.49501309 645.78148922 -53.01813126 649.30460739 C-54.65600917 649.40938813 -56.2984007 649.44425078 -57.93960953 649.45177841 C-59.00524628 649.45893372 -60.07088303 649.46608902 -61.1688118 649.47346115 C-62.34804718 649.47615005 -63.52728256 649.47883896 -64.74225235 649.48160934 C-65.97628296 649.48818054 -67.21031357 649.49475174 -68.48173904 649.50152206 C-71.87641371 649.5178938 -75.2710258 649.52948994 -78.66572523 649.53772759 C-80.78492193 649.5428725 -82.90411421 649.54894844 -85.0233078 649.55523872 C-91.64891843 649.57429669 -98.27451787 649.5885269 -104.90015066 649.59685069 C-112.55746953 649.60662847 -120.21449974 649.63295919 -127.87171686 649.67335159 C-133.78426406 649.70347428 -139.69672833 649.71831586 -145.6093508 649.72163171 C-149.14357199 649.72398653 -152.67748502 649.73300211 -156.21162415 649.75809288 C-160.15291802 649.78562153 -164.0938296 649.78155424 -168.0352211 649.77457809 C-169.21040802 649.78738815 -170.38559494 649.80019821 -171.59639359 649.81339645 C-173.20330818 649.80298073 -173.20330818 649.80298073 -174.8426857 649.79235458 C-176.24140191 649.79593711 -176.24140191 649.79593711 -177.66837502 649.79959202 C-180.01813126 649.30460739 -180.01813126 649.30460739 -181.64148805 647.55971172 C-183.19865797 645.00888329 -183.3934205 643.68728181 -183.39417875 640.72795343 C-183.4016893 639.8069024 -183.40919986 638.88585137 -183.41693801 637.93688971 C-183.40991451 636.92657311 -183.40289101 635.91625651 -183.39565468 634.87532425 C-183.400015 633.79641322 -183.40437532 632.71750219 -183.40886778 631.60589689 C-183.41989053 627.95964703 -183.40936914 624.31377007 -183.39908218 620.66752243 C-183.40253596 618.03942117 -183.40729863 615.41132135 -183.41326392 612.78322458 C-183.42411883 607.05328315 -183.42375817 601.32342645 -183.41612244 595.59348106 C-183.40479879 587.07302329 -183.41056377 578.55263731 -183.41974736 570.03218006 C-183.43556578 554.81677198 -183.43416699 539.60140164 -183.42551062 524.38598995 C-183.41797235 511.07096063 -183.41598992 497.75594517 -183.41957855 484.44091415 C-183.41980771 483.55866671 -183.42003686 482.67641927 -183.42027296 481.76743706 C-183.42120693 478.18636184 -183.42216213 474.60528662 -183.42315225 471.02421142 C-183.43233509 437.41157466 -183.42399962 403.79896197 -183.40786156 370.18632893 C-183.3936241 340.30500651 -183.39489796 310.42372244 -183.40924454 280.54240036 C-183.42529859 246.99235174 -183.43168393 213.4423244 -183.42240775 179.89227247 C-183.42144555 176.3176152 -183.42050704 172.74295791 -183.41957855 169.16830063 C-183.41934132 168.28808947 -183.41910409 167.4078783 -183.41885967 166.50099408 C-183.41544318 153.1923467 -183.41944564 139.88371468 -183.42701721 126.57506943 C-183.43558092 111.44683092 -183.43348061 96.31863614 -183.41717498 81.1904031 C-183.4083444 72.7173035 -183.40782224 64.2442985 -183.4191135 55.77120128 C-183.42660205 49.45683957 -183.41852216 43.14259035 -183.40418978 36.82824248 C-183.40082042 34.26437934 -183.40258388 31.70050363 -183.40981714 29.13664848 C-183.41885503 25.66887776 -183.40966925 22.20163312 -183.39565468 18.73389053 C-183.40267818 17.72357393 -183.40970168 16.71325733 -183.41693801 15.67232507 C-183.40942745 14.75127405 -183.4019169 13.83022302 -183.39417875 12.88126135 C-183.39397547 12.08790297 -183.39377219 11.29454459 -183.39356276 10.47714505 C-182.91229847 7.69217687 -181.97888599 6.3221058 -180.01813126 4.30460739 C-177.23529746 3.88832322 -174.83239578 3.72338359 -172.04547501 3.73038864 C-170.8507029 3.70914177 -170.8507029 3.70914177 -169.63179398 3.68746567 C-167.07293992 3.64554227 -164.5147796 3.63037723 -161.95563126 3.61710739 C-159.45037857 3.58761089 -156.94528418 3.55240976 -154.44014359 3.51461411 C-152.88490804 3.49295151 -151.32958054 3.47665568 -149.77421951 3.46776962 C-144.33062417 3.41669536 -138.91313066 3.14520234 -133.48004532 2.82706833 C-124.54325902 2.30668269 -115.61110493 1.99941563 -106.66266251 1.76945114 C-105.0210761 1.72581498 -103.3794898 1.68217472 -101.73790359 1.63853073 C-96.43563922 1.49965994 -91.13318323 1.36947673 -85.83063126 1.24210739 C-84.92028122 1.22018452 -84.00993118 1.19826164 -83.07199478 1.17567444 C-55.38305477 0.51418505 -27.69703679 0.06649471 0 0 Z " fill="#30A7FE" transform="translate(778.0181312561035,647.6953926086426)"/>
<path d="M0 0 C1.87120262 0.03898787 3.74260682 0.06803013 5.61401367 0.09552002 C34.24994651 0.53916216 65.84473353 3.1862306 93.1237793 12.04425049 C93.96859863 12.31318115 94.81341797 12.58211182 95.68383789 12.85919189 C98.52143046 13.76474327 101.35455061 14.6830341 104.1862793 15.60675049 C105.09168457 15.89968994 105.99708984 16.19262939 106.92993164 16.4944458 C117.84432822 20.12507388 117.84432822 20.12507388 121.1237793 25.04425049 C122.58541953 29.94360159 122.29407325 35.1045574 122.31665039 40.17120361 C122.32482788 41.18802719 122.33300537 42.20485077 122.34143066 43.25248718 C122.36620208 46.61015236 122.38277493 49.96777566 122.3972168 53.32550049 C122.40254047 54.47309341 122.40786415 55.62068634 122.41334915 56.80305481 C122.44003814 62.87123954 122.45943115 68.93940394 122.47387695 75.00762939 C122.48724436 80.03222747 122.51515511 85.05642216 122.5559082 90.08087158 C122.60512436 96.14912185 122.62998361 102.21700482 122.63710403 108.28544617 C122.64382884 110.59795647 122.65908256 112.91045817 122.68299484 115.22285461 C122.71452336 118.45477397 122.71470185 121.68526536 122.70727539 124.91729736 C122.73188339 126.35129128 122.73188339 126.35129128 122.75698853 127.81425476 C122.71429581 132.34673777 122.60453666 134.3994954 119.82559204 138.12640381 C116.80854356 140.26801648 114.64875137 140.93166655 110.94018555 140.72393799 C106.51207318 139.65529506 102.67084633 137.49467079 98.66870117 135.38555908 C76.39923032 123.71793978 51.30964643 118.64520169 26.6862793 114.66925049 C25.89868225 114.54178436 25.11108521 114.41431824 24.29962158 114.2829895 C-3.39524808 109.85101421 -45.31690951 103.80311788 -69.8762207 121.04425049 C-75.59541505 125.92508904 -78.37361341 131.68832063 -79.2277832 139.09112549 C-79.62637446 148.02796101 -77.73587207 154.09645644 -72.25512695 161.12237549 C-54.35543406 180.6773088 -23.5330767 190.25956668 0.77612305 199.10675049 C50.59342967 217.29800167 110.23155571 243.61357516 134.48242188 294.22198486 C135.37815129 296.15621738 136.25323847 298.09857882 137.1237793 300.04425049 C137.82954102 301.5563208 137.82954102 301.5563208 138.54956055 303.09893799 C152.34419452 335.30065321 150.64178195 375.7320753 138.2331543 408.02081299 C132.4435199 422.22613452 125.18801255 435.44004955 115.1237793 447.04425049 C114.68565918 447.55246338 114.24753906 448.06067627 113.79614258 448.58428955 C81.90457402 485.31069799 37.34260554 501.6967288 -9.8762207 508.04425049 C-11.16069092 508.22971436 -12.44516113 508.41517822 -13.76855469 508.60626221 C-26.45406995 510.31648952 -39.11332705 510.34939346 -51.89648438 510.30499268 C-55.54029171 510.29431912 -59.18360058 510.30492084 -62.82739258 510.31768799 C-77.61374127 510.32657251 -92.17684605 509.64236873 -106.8762207 508.04425049 C-108.66080688 507.8557251 -108.66080688 507.8557251 -110.48144531 507.66339111 C-113.15989837 507.36204564 -115.83018577 507.0299539 -118.5012207 506.66925049 C-119.44247803 506.5426001 -120.38373535 506.41594971 -121.35351562 506.28546143 C-145.06274812 502.99168572 -168.31877336 497.71687719 -190.6262207 488.91925049 C-191.66746094 488.51174561 -192.70870117 488.10424072 -193.78149414 487.68438721 C-205.53890291 482.86676467 -205.53890291 482.86676467 -209.01129436 477.18791962 C-209.99991488 474.73768173 -210.13034848 472.93814912 -210.13691711 470.30023193 C-210.14400192 469.34971451 -210.15108673 468.39919708 -210.15838623 467.4198761 C-210.15590881 466.38390793 -210.1534314 465.34793976 -210.15087891 464.28057861 C-210.15598984 463.1842662 -210.16110077 462.0879538 -210.16636658 460.9584198 C-210.18027884 457.33072467 -210.17930473 453.70321914 -210.17700195 450.07550049 C-210.18088761 447.55731129 -210.185222 445.03912275 -210.18998718 442.52093506 C-210.19745264 437.2417438 -210.19729351 431.96260176 -210.19189453 426.68341064 C-210.18585125 420.58259699 -210.19817586 414.48201376 -210.2194646 408.38123941 C-210.23920171 402.50899623 -210.24225485 396.63684342 -210.23872948 390.76457214 C-210.23924373 388.2670589 -210.24450093 385.76954206 -210.2545414 383.27204895 C-210.26684471 379.78382478 -210.26015074 376.2961376 -210.24853516 372.80792236 C-210.25617889 371.77195419 -210.26382263 370.73598602 -210.271698 369.66862488 C-210.26468369 368.71810745 -210.25766937 367.76759003 -210.2504425 366.78826904 C-210.25061025 365.96385063 -210.25077799 365.13943222 -210.25095081 364.29003143 C-209.7915989 361.53710675 -208.68378753 360.1295578 -206.8762207 358.04425049 C-201.35281788 358.54169981 -197.76058783 360.63325428 -193.1262207 363.41925049 C-150.62455524 387.82139806 -101.22775671 397.20235954 -52.7512207 397.41925049 C-51.73902466 397.42728699 -50.72682861 397.43532349 -49.68395996 397.44360352 C-31.71009621 397.55185346 -10.26712663 397.29345737 4.62768555 385.63018799 C10.98759208 378.88835495 13.49529494 371.68784256 13.32299805 362.62237549 C12.63500031 353.7188754 7.45846521 348.01401358 1.1237793 342.04425049 C-18.27501017 326.00716784 -44.20750095 318.09445372 -67.4152832 309.12628174 C-103.07134448 295.33496812 -137.71697752 278.37992822 -165.8762207 252.04425049 C-166.7527832 251.23343018 -167.6293457 250.42260986 -168.5324707 249.58721924 C-184.9264264 233.87634503 -197.67223772 213.98228917 -203.8762207 192.04425049 C-204.16601807 191.0808374 -204.16601807 191.0808374 -204.46166992 190.09796143 C-211.59955839 165.4970103 -210.17982205 135.36031536 -202.8762207 111.04425049 C-202.65691895 110.30561768 -202.43761719 109.56698486 -202.21166992 108.80596924 C-195.74065453 87.90483187 -183.81459514 69.82352679 -168.8762207 54.04425049 C-168.05637695 53.15995361 -167.2365332 52.27565674 -166.3918457 51.36456299 C-154.93616065 39.40048955 -141.53442451 30.61350713 -126.8762207 23.04425049 C-126.20896973 22.69765381 -125.54171875 22.35105713 -124.85424805 21.99395752 C-113.28712604 16.06702545 -101.31870452 11.7556458 -88.8762207 8.04425049 C-88.1975293 7.83816162 -87.51883789 7.63207275 -86.81958008 7.41973877 C-58.82132593 -0.83412349 -28.88830405 -0.62677549 0 0 Z " fill="#30A7FE" transform="translate(1333.876220703125,799.9557495117188)"/>
<path d="M0 0 C2.60324516 -0.01157215 5.20646565 -0.03210523 7.80957031 -0.06152344 C45.86484678 -0.48769301 87.88941564 4.86002315 116.48925781 32.48657227 C133.95356466 50.09784383 142.72323072 73.57469871 142.68457031 98.25610352 C142.67828613 98.92222656 142.67200195 99.58834961 142.66552734 100.2746582 C142.64941378 102.29520082 142.66550914 104.31374476 142.68457031 106.33422852 C142.72596496 131.53651171 134.42693902 154.74512111 116.74316406 172.89282227 C88.15560208 200.09304668 44.44697931 208.72120607 6.13769531 208.52563477 C4.55828387 208.52443811 2.97887171 208.52399082 1.39945984 208.52424622 C-1.87363282 208.5226996 -5.14661326 208.51454443 -8.41967773 208.50097656 C-12.606822 208.48383338 -16.79384564 208.4801677 -20.98102093 208.48092175 C-24.2263961 208.48064982 -27.47174512 208.47516742 -30.71711159 208.4679203 C-32.26203019 208.46475089 -33.80695172 208.46277029 -35.3518734 208.4620266 C-37.50213053 208.45985337 -39.65226055 208.45109251 -41.80249023 208.44042969 C-43.02220016 208.43661789 -44.2419101 208.43280609 -45.49858093 208.42887878 C-48.72558594 208.29516602 -48.72558594 208.29516602 -53.72558594 207.29516602 C-53.72558594 139.31516602 -53.72558594 71.33516602 -53.72558594 1.29516602 C-35.78079144 0.630544 -17.93856139 0.05517132 0 0 Z " fill="#001E36" transform="translate(782.7255859375,768.704833984375)"/>
</svg>
