<?xml version="1.0" encoding="UTF-8"?>
<svg version="1.1" xmlns="http://www.w3.org/2000/svg" width="512" height="512">
<path d="M0 0 C0.89739899 -0.00715027 1.79479797 -0.01430054 2.71939087 -0.02166748 C39.63832381 -0.24887563 74.94192802 3.64488808 109.2421875 18.203125 C110.0554248 18.54456543 110.86866211 18.88600586 111.70654297 19.23779297 C140.55308141 31.46555979 166.65679225 48.4575957 189.2421875 70.203125 C189.81501465 70.75403809 190.3878418 71.30495117 190.97802734 71.87255859 C198.61061918 79.2576738 205.73254855 86.79302098 212.2421875 95.203125 C213.24664825 96.45632873 214.25191364 97.70888779 215.2578125 98.9609375 C227.31609148 114.14409741 237.05354408 130.64771277 245.2421875 148.203125 C245.53931641 148.8307373 245.83644531 149.45834961 246.14257812 150.10498047 C267.63486837 195.81706837 275.29770898 251.48112161 265.2421875 301.203125 C264.95214844 302.70238525 264.95214844 302.70238525 264.65625 304.23193359 C259.48267087 330.40721011 250.47052645 354.53441043 238.2421875 378.203125 C237.84531738 378.97865723 237.44844727 379.75418945 237.03955078 380.55322266 C228.61194074 396.84660207 217.47605918 411.58115607 205.2421875 425.203125 C204.70480957 425.8022168 204.16743164 426.40130859 203.61376953 427.01855469 C159.81782005 475.52522398 99.80077334 506.99964337 34.2421875 512.203125 C30.98905946 512.34732787 27.74043301 512.38906199 24.484375 512.40625 C23.58679474 512.41335495 22.68921448 512.4204599 21.76443481 512.42778015 C-45.05119931 512.83639325 -104.48410988 493.5521359 -155.7578125 450.203125 C-156.5209375 449.57148438 -157.2840625 448.93984375 -158.0703125 448.2890625 C-168.34535401 439.59808989 -177.42783718 429.74309377 -185.7578125 419.203125 C-186.48355469 418.34460938 -187.20929688 417.48609375 -187.95703125 416.6015625 C-194.21365415 409.19843802 -199.55513233 401.36173081 -204.7578125 393.203125 C-205.13405762 392.62111328 -205.51030273 392.03910156 -205.89794922 391.43945312 C-228.97038997 355.54219873 -243.7345649 311.27883383 -243.9609375 268.4453125 C-243.9716629 267.09921402 -243.9716629 267.09921402 -243.98260498 265.72592163 C-244.20981313 228.80698869 -240.31604942 193.50338448 -225.7578125 159.203125 C-225.41637207 158.3898877 -225.07493164 157.57665039 -224.72314453 156.73876953 C-213.1930689 129.53815515 -197.64078999 106.01581954 -177.7578125 84.203125 C-176.23681998 82.4949334 -174.71598612 80.78660051 -173.1953125 79.078125 C-166.40665556 71.5625307 -159.38518301 64.79039157 -151.42138672 58.51611328 C-150.25760729 57.59759174 -149.0981128 56.67362685 -147.94189453 55.74560547 C-123.2033293 35.92596568 -95.17935954 20.37291093 -64.7578125 11.203125 C-63.89414063 10.93951172 -63.03046875 10.67589844 -62.140625 10.40429688 C-41.97628653 4.3403835 -21.11302631 0.11158108 0 0 Z " fill="#FF6C37" transform="translate(243.7578125,-0.203125)"/>
<path d="M0 0 C2.03637695 1.58227539 2.03637695 1.58227539 3.98828125 3.59765625 C5.04692383 4.67563477 5.04692383 4.67563477 6.12695312 5.77539062 C7.20879883 6.90750977 7.20879883 6.90750977 8.3125 8.0625 C9.42334961 9.20041992 9.42334961 9.20041992 10.55664062 10.36132812 C12.38043834 12.23219159 14.19424304 14.11174492 16 16 C6.31121549 36.95857261 -31.65638109 53.76465053 -51 65 C-51.76860352 65.44666016 -52.53720703 65.89332031 -53.32910156 66.35351562 C-66.75972213 74.1349571 -80.34445623 81.62161729 -94 89 C-93.34449227 94.94455538 -92.16798468 100.41205362 -90.5234375 106.16796875 C-89.97297618 109.14621099 -90.20546537 111.10259705 -91 114 C-94.6494431 113.4261691 -96.28748595 112.05791275 -98.828125 109.4296875 C-99.54613281 108.6975 -100.26414063 107.9653125 -101.00390625 107.2109375 C-101.74511719 106.44007813 -102.48632812 105.66921875 -103.25 104.875 C-108.14263514 99.83462988 -113.02412881 94.97130907 -118.45996094 90.51220703 C-120 89 -120 89 -121 86 C-120.50580976 85.58073053 -120.01161951 85.16146107 -119.5024538 84.72948647 C-114.66892718 80.57308071 -110.18620619 76.22315727 -105.8190918 71.58349609 C-104.43200418 70.12352955 -103.04433828 68.66411227 -101.65617371 67.20516968 C-100.56912675 66.06085039 -100.56912675 66.06085039 -99.46011925 64.89341354 C-94.73542075 59.9407753 -89.9585766 55.03830784 -85.1878233 50.1300869 C-81.02437961 45.84106339 -76.88329785 41.53432459 -72.78637695 37.18164062 C-40.14162687 2.55595149 -40.14162687 2.55595149 -21.38493347 1.09823608 C-19.4455834 1.04178124 -17.50456577 1.02292484 -15.56460571 1.05157471 C-13.03878348 1.00077994 -11.00487552 0.60677983 -8.5847168 -0.08447266 C-5.05173237 -0.98678769 -3.36897186 -1.27291773 0 0 Z " fill="#FFFDFD" transform="translate(251,286)"/>
<path d="M0 0 C2.33061573 1.28344968 4.00710671 2.89367842 5.6953125 4.93359375 C5.1384375 5.06894531 4.5815625 5.20429688 4.0078125 5.34375 C3.2446875 5.55902344 2.4815625 5.77429688 1.6953125 5.99609375 C0.9528125 6.19332031 0.2103125 6.39054688 -0.5546875 6.59375 C-8.26324087 10.34947984 -14.37075065 17.88003203 -20.31933594 23.9140625 C-21.18214676 24.78475876 -22.04495758 25.65545502 -22.93391418 26.55253601 C-24.79386714 28.42959593 -26.65291277 30.30751137 -28.51070404 32.18670654 C-31.44830708 35.15717525 -34.39207864 38.12147932 -37.33721924 41.08447266 C-38.34878201 42.1022945 -39.36034436 43.12011677 -40.37190628 44.13793945 C-40.8779497 44.647099 -41.38399312 45.15625854 -41.90537119 45.68084717 C-48.75061195 52.56900913 -55.59109177 59.46180351 -62.41748047 66.36865234 C-67.03896599 71.04451308 -71.66920112 75.71151037 -76.30976319 80.36844158 C-78.76124671 82.82930886 -81.20790862 85.29458482 -83.64385223 87.77084351 C-86.35172501 90.52342013 -89.07869403 93.25656426 -91.80761719 95.98828125 C-92.61288345 96.81309494 -93.41814972 97.63790863 -94.24781799 98.48771667 C-94.99061508 99.2250856 -95.73341217 99.96245453 -96.49871826 100.72216797 C-97.14095715 101.37031464 -97.78319603 102.0184613 -98.4448967 102.68624878 C-100.3046875 103.93359375 -100.3046875 103.93359375 -102.41664505 103.73893738 C-104.976129 102.64719069 -106.47116651 101.10424022 -108.4140625 99.1171875 C-109.16816406 98.35341797 -109.92226562 97.58964844 -110.69921875 96.80273438 C-111.86517578 95.59907227 -111.86517578 95.59907227 -113.0546875 94.37109375 C-114.24384766 93.16163086 -114.24384766 93.16163086 -115.45703125 91.92773438 C-117.41315796 89.93625597 -119.36194469 87.93811654 -121.3046875 85.93359375 C-120.03001707 83.14167009 -118.71314781 81.09277744 -116.54248047 78.9284668 C-115.98785126 78.37076096 -115.43322205 77.81305511 -114.86178589 77.2384491 C-114.2628653 76.64671402 -113.6639447 76.05497894 -113.046875 75.4453125 C-112.11405197 74.5131768 -112.11405197 74.5131768 -111.16238403 73.56221008 C-109.84499536 72.24783959 -108.52517999 70.9358975 -107.203125 69.6262207 C-105.20262604 67.64382471 -103.21009237 65.65369857 -101.21875 63.66210938 C-89.72705787 52.20350905 -89.72705787 52.20350905 -83.85522461 47.27807617 C-82.13696534 45.7881606 -80.56762517 44.19789718 -78.9921875 42.55859375 C-75.36234051 38.87151945 -71.40271876 35.67767667 -67.37109375 32.44140625 C-65.23549155 30.69483731 -63.14861957 28.93692335 -61.08203125 27.11328125 C-20.49958153 -8.67289988 -20.49958153 -8.67289988 0 0 Z " fill="#FFFDFD" transform="translate(335.3046875,157.06640625)"/>
<path d="M0 0 C4.38410756 2.19205378 7.13092657 4.43115383 9 9 C9.70600873 15.35407859 8.92230728 17.77918143 5 23 C3.36957074 24.66213939 1.67840441 26.26645382 -0.0625 27.8125 C-1.03703125 28.67875 -2.0115625 29.545 -3.015625 30.4375 C-5.74434313 32.78048311 -8.51072826 35.05781978 -11.3125 37.3125 C-16.36836567 41.38748445 -21.08187223 45.75231994 -25.80566406 50.20019531 C-30.12191437 54.24239798 -34.60485366 57.995808 -39.22265625 61.69140625 C-42.42442799 64.35279458 -45.46234918 67.15462246 -48.5 70 C-52.39576281 73.64888449 -56.33334284 77.15698438 -60.5 80.5 C-65.89651378 84.83296727 -70.93504995 89.48961444 -75.9921875 94.20703125 C-79.58702076 97.5585461 -83.27980359 100.78888309 -87 104 C-88.50080257 105.31158221 -90.00081067 106.6240741 -91.5 107.9375 C-92.66666667 108.95833333 -93.83333333 109.97916667 -95 111 C-99.56030824 107.19524578 -103.85089392 103.25030379 -108 99 C-106.56754736 95.73383996 -104.81420483 93.5630662 -102.30046082 91.04649353 C-101.53083511 90.27122818 -100.76120941 89.49596283 -99.96826172 88.69720459 C-99.12303955 87.85603088 -98.27781738 87.01485718 -97.40698242 86.14819336 C-96.51739334 85.25509964 -95.62780426 84.36200592 -94.71125793 83.44184875 C-92.27363836 80.99511704 -89.82974103 78.55474763 -87.38439345 76.11574244 C-84.82392875 73.56034534 -82.2683521 71.00006737 -79.71199036 68.44056702 C-75.41729909 64.14223767 -71.11840963 59.84814092 -66.81713867 55.55639648 C-61.84876168 50.5988968 -56.88762131 45.63424271 -51.93019217 40.66579717 C-47.67052481 36.39704418 -43.40696001 32.13221332 -39.14013368 27.87061602 C-36.59319488 25.32679078 -34.04761592 22.7816443 -31.50554466 20.23295403 C-28.66980609 17.39034823 -25.82594063 14.55601023 -22.98120117 11.72241211 C-22.1420517 10.87921417 -21.30290222 10.03601624 -20.43832397 9.16726685 C-19.6602388 8.39482132 -18.88215363 7.62237579 -18.08049011 6.82652283 C-17.40925708 6.15604384 -16.73802404 5.48556486 -16.04645061 4.79476833 C-10.9077865 0.2880817 -6.70152924 -1.0637348 0 0 Z " fill="#FFFCFB" transform="translate(346,167)"/>
<path d="M0 0 C2.51609613 1.51067841 4.77993844 3.15346338 6.92578125 5.15625 C5.58005238 8.15568905 4.09041024 10.23701179 1.76123047 12.54785156 C1.12071747 13.1882135 0.48020447 13.82857544 -0.17971802 14.48834229 C-0.86935638 15.16765808 -1.55899475 15.84697388 -2.26953125 16.546875 C-2.97697479 17.25148865 -3.68441833 17.95610229 -4.41329956 18.68206787 C-6.67061737 20.9282039 -8.93479508 23.16728009 -11.19921875 25.40625 C-12.73222828 26.92922717 -14.2647859 28.45265939 -15.796875 29.9765625 C-19.55076448 33.70841815 -23.31030789 37.43450351 -27.07421875 41.15625 C-25.21698498 45.18695124 -22.54704408 47.93909024 -19.41015625 51.015625 C-18.58204941 51.839487 -18.58204941 51.839487 -17.73721313 52.67999268 C-15.9792006 54.42684293 -14.21434985 56.16659601 -12.44921875 57.90625 C-11.25344795 59.09198591 -10.0581301 60.2781788 -8.86328125 61.46484375 C-5.93881622 64.36730085 -3.00820001 67.2634141 -0.07421875 70.15625 C-8.04929572 75.47296798 -18.54316195 75.29918494 -27.73046875 73.69140625 C-37.68750619 70.72883701 -45.93795185 63.91646121 -51.32421875 55.11328125 C-56.4715764 45.3295169 -57.76608321 34.74817634 -55.01171875 23.96875 C-51.29772967 13.2452604 -43.76457515 5.42213237 -33.82421875 0.34375 C-23.75379966 -4.48817469 -10.20842118 -4.93671491 0 0 Z " fill="#FFFDFC" transform="translate(394.07421875,98.84375)"/>
<path d="M0 0 C1.69314691 4.06355259 0.17605096 7.37256107 -1.3125 11.25 C-1.71529175 12.30356689 -1.71529175 12.30356689 -2.1262207 13.37841797 C-9.11612248 30.75735404 -21.59504425 45.56589066 -34.296875 59.0859375 C-36.28709165 61.23146008 -38.20385368 63.39394014 -40.10668945 65.61376953 C-44.20754617 70.30805086 -48.57571893 74.70207037 -52.99609375 79.09375 C-53.82963882 79.92588013 -54.6631839 80.75801025 -55.52198792 81.61535645 C-58.15813262 84.24594935 -60.79775105 86.87302441 -63.4375 89.5 C-65.23655979 91.29403855 -67.0353902 93.08830715 -68.83398438 94.8828125 C-73.22000812 99.25787125 -77.60888142 103.63005512 -82 108 C-85.79462061 106.24173726 -88.10247913 104.03779419 -91 101 C-91.88300781 100.11699219 -92.76601563 99.23398437 -93.67578125 98.32421875 C-97.33789062 94.66210938 -97.33789062 94.66210938 -101 91 C-96.84691003 85.72445328 -92.31280378 81.70562359 -87.0703125 77.52734375 C-83.70232858 74.75497021 -80.50107404 71.84955406 -77.3125 68.875 C-76.75546387 68.35591064 -76.19842773 67.83682129 -75.62451172 67.30200195 C-74.55497242 66.30521935 -73.48547186 65.30839516 -72.41601562 64.31152344 C-68.31094624 60.50937987 -64.04618115 56.89120104 -59.7890625 53.26171875 C-53.24344569 47.67681067 -46.77960493 42.03446039 -40.43359375 36.22265625 C-35.962935 32.13950243 -31.38858111 28.18157621 -26.78125 24.25390625 C-17.60636602 16.4289397 -8.48770193 8.5784795 0 0 Z " fill="#FFFDFC" transform="translate(355,191)"/>
<path d="M0 0 C1.53515625 1.94140625 1.53515625 1.94140625 3.0625 4.5625 C3.56910156 5.40941406 4.07570313 6.25632812 4.59765625 7.12890625 C9.15281095 16.45491936 9.78260979 28.27542287 7.125 38.30078125 C4.07654187 45.39045197 -0.5160225 52.67734833 -7 57 C-11.23845195 56.87517502 -13.65217299 53.72968686 -16.421875 50.87109375 C-16.92672424 50.36199966 -17.43157349 49.85290558 -17.95172119 49.3283844 C-19.55833979 47.7050088 -21.15419822 46.071503 -22.75 44.4375 C-23.83914984 43.3332995 -24.92898605 42.22977555 -26.01953125 41.12695312 C-28.6877076 38.4257471 -31.34628291 35.71540937 -34 33 C-32.70858201 30.16523963 -31.34796296 28.09341262 -29.15844727 25.88378906 C-28.30229576 25.01333954 -28.30229576 25.01333954 -27.42884827 24.12530518 C-26.8142424 23.51161072 -26.19963654 22.89791626 -25.56640625 22.265625 C-24.93266586 21.62759949 -24.29892548 20.98957397 -23.64598083 20.33221436 C-22.30779859 18.98829918 -20.96700125 17.64698355 -19.6237793 16.30810547 C-17.56472839 14.25222496 -15.51937858 12.18335518 -13.47460938 10.11328125 C-12.17268591 8.80908584 -10.86997801 7.50567291 -9.56640625 6.203125 C-8.95382462 5.58133362 -8.34124298 4.95954224 -7.71009827 4.31890869 C-3.34380187 0 -3.34380187 0 0 0 Z " fill="#FFFBFA" transform="translate(407,109)"/>
<path d="M0 0 C3.90851199 1.58431453 6.52367356 4.26635095 9.421875 7.2265625 C9.92672424 7.73424164 10.43157349 8.24192078 10.95172119 8.76498413 C12.55592096 10.38033842 14.15300856 12.00252209 15.75 13.625 C16.83938107 14.72441698 17.9292199 15.82338059 19.01953125 16.921875 C21.68501885 19.6093602 24.34415143 22.30299021 27 25 C23.34564648 26.21811784 20.68774925 25.93938984 16.83984375 25.6953125 C16.13533585 25.65187714 15.43082794 25.60844177 14.70497131 25.56369019 C13.21109904 25.47050425 11.71740065 25.37449419 10.22387695 25.27587891 C7.97054926 25.12718093 5.71683883 24.98659657 3.46289062 24.84765625 C-4.04154298 24.37662101 -11.52376431 23.81505047 -19 23 C-19 19 -19 19 -17.25585938 16.80175781 C-16.45986328 16.02670898 -15.66386719 15.25166016 -14.84375 14.453125 C-13.55791016 13.18662109 -13.55791016 13.18662109 -12.24609375 11.89453125 C-11.33988281 11.02183594 -10.43367188 10.14914062 -9.5 9.25 C-8.59378906 8.36183594 -7.68757813 7.47367187 -6.75390625 6.55859375 C-4.51128384 4.36318444 -2.25987232 2.17762613 0 0 Z " fill="#FFF9F7" transform="translate(125,377)"/>
<path d="M0 0 C3.1195572 1.38685223 5.25855799 3.00189491 7.671875 5.40625 C8.33574219 6.06753906 8.99960938 6.72882813 9.68359375 7.41015625 C10.36550781 8.09980469 11.04742187 8.78945312 11.75 9.5 C12.44738281 10.18964844 13.14476562 10.87929688 13.86328125 11.58984375 C14.52199219 12.25113281 15.18070313 12.91242188 15.859375 13.59375 C16.46233398 14.19896484 17.06529297 14.80417969 17.68652344 15.42773438 C19 17 19 17 19 19 C18.16339844 19.17128418 17.32679688 19.34256836 16.46484375 19.51904297 C13.32605157 20.16253013 10.1875826 20.80756617 7.04931641 21.45361328 C5.69755364 21.73156688 4.34566804 22.00892387 2.99365234 22.28564453 C-5.88294524 24.07845783 -5.88294524 24.07845783 -14.6875 26.1875 C-18.33044787 27.08105325 -21.27232409 27.15531983 -25 27 C-23.41568547 23.09148801 -20.73364905 20.47632644 -17.7734375 17.578125 C-17.26575836 17.07327576 -16.75807922 16.56842651 -16.23501587 16.04827881 C-14.61966158 14.44407904 -12.99747791 12.84699144 -11.375 11.25 C-10.27558302 10.16061893 -9.17661941 9.0707801 -8.078125 7.98046875 C-5.3906398 5.31498115 -2.69700979 2.65584857 0 0 Z " fill="#FFFBF9" transform="translate(209,246)"/>
<path d="M0 0 C3.82246588 0.55959523 5.58971741 2.21317357 8.25 4.9375 C8.95640625 5.64777344 9.6628125 6.35804688 10.390625 7.08984375 C12 9 12 9 12 11 C9.12666819 11.67466072 6.25168518 12.3399234 3.375 13 C2.56675781 13.19078125 1.75851563 13.3815625 0.92578125 13.578125 C-3.47204169 14.57925543 -7.45561039 15.2353082 -12 15 C-10.4744094 11.34858644 -8.27519091 9.09881888 -5.4375 6.375 C-2.30957946 3.48929319 -2.30957946 3.48929319 0 0 Z " fill="#FFFAF8" transform="translate(232,270)"/>
<path d="M0 0 C1.32 0 2.64 0 4 0 C6.35930537 3.68641465 6.43072427 6.69275735 6 11 C4.87429501 13.79468501 3.51411212 16.3976198 2 19 C0.68 19 -0.64 19 -2 19 C-1.85820962 16.77057252 -1.71140302 14.54146372 -1.5625 12.3125 C-1.48128906 11.07113281 -1.40007812 9.82976562 -1.31640625 8.55078125 C-1.05508683 5.61819663 -0.65201621 2.86558383 0 0 Z " fill="#FF723F" transform="translate(402,128)"/>
</svg>
