<?xml version="1.0" encoding="UTF-8"?>
<svg version="1.1" xmlns="http://www.w3.org/2000/svg" width="2500" height="2455">
<path d="M0 0 C8.65829918 4.89153832 17.64774655 9.04520702 26.63891602 13.28173828 C32.58400945 16.10402812 38.4997326 18.98680291 44.41818237 21.86444092 C54.45367202 26.74336781 64.49528381 31.6081871 74.56811523 36.40966797 C83.92167348 40.8682883 93.24701525 45.38372629 102.56811523 49.90966797 C112.87817764 54.91560715 123.19789396 59.89938944 133.54223633 64.83422852 C141.10259476 68.44273381 148.64976483 72.07827848 156.19311523 75.72216797 C156.8009082 76.01575195 157.40870117 76.30933594 158.03491211 76.61181641 C161.75675169 78.40972092 165.4783229 80.20818045 169.1998291 82.0067749 C174.73882925 84.68362656 180.2783364 87.35942822 185.81811523 90.03466797 C186.72614899 90.47321609 186.72614899 90.47321609 187.65252686 90.92062378 C195.86826139 94.8881308 204.09052411 98.84180759 212.31811523 102.78466797 C222.12422219 107.48425546 231.91085995 112.22321458 241.69311523 116.97216797 C251.96174817 121.95717341 262.24029013 126.91958366 272.54272461 131.83447266 C280.10293068 135.44287477 287.6499287 139.07835764 295.19311523 142.72216797 C296.10480469 143.16254395 296.10480469 143.16254395 297.03491211 143.61181641 C300.75675169 145.40972092 304.4783229 147.20818045 308.1998291 149.0067749 C313.73882925 151.68362656 319.2783364 154.35942822 324.81811523 157.03466797 C325.42347107 157.32703339 326.0288269 157.6193988 326.65252686 157.92062378 C334.86826139 161.8881308 343.09052411 165.84180759 351.31811523 169.78466797 C361.12422219 174.48425546 370.91085995 179.22321458 380.69311523 183.97216797 C390.96174817 188.95717341 401.24029013 193.91958366 411.54272461 198.83447266 C419.10293286 202.44287581 426.64973016 206.07876599 434.19311523 209.72216797 C435.42447723 210.31665441 436.65584116 210.91113682 437.88720703 211.50561523 C443.44656078 214.19020903 449.00453454 216.87758117 454.5582428 219.57383728 C457.58164678 221.04143449 460.60604106 222.50698428 463.63061523 223.97216797 C464.8180835 224.54765381 466.00555176 225.12313965 467.22900391 225.71606445 C474.56857013 229.25956099 481.94332433 232.71119127 489.3515625 236.10791016 C503.97989707 242.81561021 517.83804124 249.25376191 530.06811523 259.90966797 C530.91116211 260.63154297 531.75420898 261.35341797 532.62280273 262.09716797 C551.71534484 278.81039632 564.5632951 300.29304976 567.06811523 325.90966797 C567.21299449 329.78032927 567.2067761 333.64815883 567.2010271 337.52118254 C567.20324807 338.69351473 567.20546905 339.86584691 567.20775732 341.07370432 C567.21292354 344.33458146 567.21362573 347.59542463 567.2124642 350.85630454 C567.21229792 354.4145514 567.21791805 357.97278993 567.22279558 361.5310328 C567.23057807 367.79364396 567.23464318 374.05624911 567.2363108 380.31886476 C567.23882434 389.69436574 567.24705637 399.06985573 567.25640806 408.44535207 C567.27217359 424.42295746 567.28318081 440.40056302 567.29161263 456.37817383 C567.30017434 472.5749992 567.31088031 488.77182101 567.32421112 504.96864319 C567.32505071 505.99081756 567.32589031 507.01299192 567.32675534 508.06614127 C567.33018103 512.22916369 567.33362071 516.39218609 567.33707849 520.55520848 C567.373158 564.01148124 567.40216763 607.46775694 567.42871245 650.92403644 C567.43157246 655.603514 567.43443558 660.28299155 567.4373014 664.9624691 C567.43801198 666.12365884 567.43872257 667.28484859 567.43945468 668.4812259 C567.45522423 694.19978484 567.47276203 719.91834248 567.49061345 745.63690005 C567.49795786 756.22311041 567.50526383 766.8093208 567.51257735 777.39553118 C567.51338574 778.56517999 567.51419412 779.73482881 567.515027 780.93992153 C567.56134692 847.97977974 567.60546792 915.01963909 567.64502239 982.05950165 C567.64650445 984.56909673 567.64798655 987.0786918 567.6494687 989.58828688 C567.65615818 1000.91919357 567.66283305 1012.25010027 567.66950393 1023.58100697 C567.67247878 1028.63386364 567.67545462 1033.68672031 567.67843057 1038.73957698 C567.67991974 1041.26862503 567.68140827 1043.79767307 567.68289618 1046.32672111 C567.72995022 1126.29903792 567.78501856 1206.2713455 567.84667969 1286.24365234 C567.86221271 1306.39186344 567.87771397 1326.54007457 567.89303875 1346.68828583 C567.89398238 1347.9288495 567.894926 1349.16941318 567.89589823 1350.44756969 C567.92493888 1388.67655465 567.95152132 1426.9055407 567.97559071 1465.13452911 C567.97672453 1466.93462482 567.97672453 1466.93462482 567.97788126 1468.7710861 C567.99445019 1495.11417484 568.01042491 1521.45726391 568.02585137 1547.80035334 C568.03137663 1557.22622247 568.03694664 1566.65209157 568.0425387 1576.07796066 C568.0439295 1578.42293047 568.045318 1580.76790027 568.04670419 1583.11287007 C568.06882467 1620.49399836 568.09685308 1657.8751193 568.12782589 1695.25624121 C568.15897457 1732.90301981 568.18364848 1770.54979698 568.19948029 1808.1965853 C568.20166778 1813.39755164 568.20392463 1818.59851796 568.20622253 1823.79948425 C568.20667019 1824.81902667 568.20711785 1825.83856909 568.20757907 1826.88900673 C568.21485322 1843.03961278 568.22887244 1859.19020567 568.24569276 1875.34080431 C568.2620872 1891.21775829 568.2713239 1907.09470301 568.27292258 1922.97166552 C568.27407455 1932.28212775 568.28072085 1941.59254689 568.29548629 1950.9029977 C568.30474502 1957.08744482 568.30670926 1963.27186659 568.30276026 1969.4563193 C568.30072559 1972.96144628 568.30176174 1976.4664931 568.31179946 1979.97160807 C568.4114584 2021.26841935 558.75422597 2052.83839173 529.50561523 2082.84716797 C528.91184082 2083.46720703 528.31806641 2084.08724609 527.70629883 2084.72607422 C515.80781921 2096.66447132 502.24753355 2104.87481604 487.06811523 2111.90966797 C484.50745197 2113.121865 481.94999343 2114.34066015 479.39257812 2115.55969238 C477.62969976 2116.3995119 475.86585755 2117.23731107 474.10107422 2118.07312012 C463.53881984 2123.08282586 453.10907223 2128.3547844 442.67163086 2133.61816406 C433.43311339 2138.27408358 424.16123536 2142.84185163 414.81811523 2147.28466797 C403.15345598 2152.83332587 391.60463229 2158.60026358 380.06811523 2164.40966797 C367.66583069 2170.65504393 355.23486232 2176.81517209 342.69311523 2182.77612305 C332.07521283 2187.8353155 321.57255891 2193.11998123 311.06811523 2198.40966797 C298.66583069 2204.65504393 286.23486232 2210.81517209 273.69311523 2216.77612305 C263.07521283 2221.8353155 252.57255891 2227.11998123 242.06811523 2232.40966797 C229.66583069 2238.65504393 217.23486232 2244.81517209 204.69311523 2250.77612305 C194.07521283 2255.8353155 183.57255891 2261.11998123 173.06811523 2266.40966797 C160.66583069 2272.65504393 148.23486232 2278.81517209 135.69311523 2284.77612305 C125.07521283 2289.8353155 114.57255891 2295.11998123 104.06811523 2300.40966797 C91.66583069 2306.65504393 79.23486232 2312.81517209 66.69311523 2318.77612305 C56.07521283 2323.8353155 45.57255891 2329.11998123 35.06811523 2334.40966797 C23.61407317 2340.17754071 12.1489828 2345.90414229 0.56420898 2351.40576172 C-7.1809016 2355.08414284 -14.87169388 2358.85376054 -22.52172852 2362.72607422 C-23.93163559 2363.43870926 -23.93163559 2363.43870926 -25.37002563 2364.16574097 C-29.18025852 2366.09332655 -32.98926562 2368.02317859 -36.79296875 2369.96362305 C-39.63641622 2371.41258469 -42.48484906 2372.85132095 -45.33422852 2374.28857422 C-46.18323227 2374.72496719 -47.03223602 2375.16136017 -47.90696716 2375.61097717 C-66.51563572 2384.95605544 -89.49164698 2383.41884379 -108.91943359 2377.14257812 C-129.65510287 2369.96396715 -145.09303477 2356.87037125 -160.35375977 2341.46044922 C-163.04824846 2338.79453843 -165.83323566 2336.30415911 -168.71313477 2333.84326172 C-171.63274641 2331.29888185 -174.46768803 2328.66811395 -177.30688477 2326.03466797 C-181.968354 2321.71441214 -186.66295449 2317.43597786 -191.39672852 2313.19482422 C-194.30101742 2310.57693668 -197.17959252 2307.93213593 -200.05688477 2305.28466797 C-203.29399505 2302.30741978 -206.54326396 2299.35013776 -209.86938477 2296.47216797 C-214.00099377 2292.89029488 -218.00118403 2289.17128839 -222.01147461 2285.45507812 C-226.10882405 2281.66079758 -230.2459925 2277.9142035 -234.40454102 2274.18701172 C-237.2627068 2271.61157022 -240.09898738 2269.01281033 -242.93188477 2266.40966797 C-246.58115648 2263.0567368 -250.24358074 2259.7196844 -253.93188477 2256.40966797 C-258.13872804 2252.6342958 -262.30863329 2248.81986348 -266.47094727 2244.99560547 C-270.41018047 2241.3795914 -274.38131856 2237.80069038 -278.36157227 2234.22998047 C-281.27616923 2231.59887014 -284.16727701 2228.94314322 -287.05688477 2226.28466797 C-290.29401567 2223.30744157 -293.54326333 2220.35013831 -296.86938477 2217.47216797 C-301.00099377 2213.89029488 -305.00118403 2210.17128839 -309.01147461 2206.45507812 C-313.10882405 2202.66079758 -317.2459925 2198.9142035 -321.40454102 2195.18701172 C-324.2627068 2192.61157022 -327.09898738 2190.01281033 -329.93188477 2187.40966797 C-333.58115648 2184.0567368 -337.24358074 2180.7196844 -340.93188477 2177.40966797 C-345.13872804 2173.6342958 -349.30863329 2169.81986348 -353.47094727 2165.99560547 C-357.41018047 2162.3795914 -361.38131856 2158.80069038 -365.36157227 2155.22998047 C-368.27616923 2152.59887014 -371.16727701 2149.94314322 -374.05688477 2147.28466797 C-377.29401567 2144.30744157 -380.54326333 2141.35013831 -383.86938477 2138.47216797 C-388.00099377 2134.89029488 -392.00118403 2131.17128839 -396.01147461 2127.45507812 C-400.10882405 2123.66079758 -404.2459925 2119.9142035 -408.40454102 2116.18701172 C-411.2627068 2113.61157022 -414.09898738 2111.01281033 -416.93188477 2108.40966797 C-420.58115648 2105.0567368 -424.24358074 2101.7196844 -427.93188477 2098.40966797 C-432.13872804 2094.6342958 -436.30863329 2090.81986348 -440.47094727 2086.99560547 C-444.41018047 2083.3795914 -448.38131856 2079.80069038 -452.36157227 2076.22998047 C-455.27616923 2073.59887014 -458.16727701 2070.94314322 -461.05688477 2068.28466797 C-464.29401567 2065.30744157 -467.54326333 2062.35013831 -470.86938477 2059.47216797 C-475.00099377 2055.89029488 -479.00118403 2052.17128839 -483.01147461 2048.45507812 C-487.10882405 2044.66079758 -491.2459925 2040.9142035 -495.40454102 2037.18701172 C-498.2627068 2034.61157022 -501.09898738 2032.01281033 -503.93188477 2029.40966797 C-507.58115648 2026.0567368 -511.24358074 2022.7196844 -514.93188477 2019.40966797 C-519.13872804 2015.6342958 -523.30863329 2011.81986348 -527.47094727 2007.99560547 C-531.41018047 2004.3795914 -535.38131856 2000.80069038 -539.36157227 1997.22998047 C-542.27616923 1994.59887014 -545.16727701 1991.94314322 -548.05688477 1989.28466797 C-551.29401567 1986.30744157 -554.54326333 1983.35013831 -557.86938477 1980.47216797 C-562.00099377 1976.89029488 -566.00118403 1973.17128839 -570.01147461 1969.45507812 C-574.10882405 1965.66079758 -578.2459925 1961.9142035 -582.40454102 1958.18701172 C-585.2627068 1955.61157022 -588.09898738 1953.01281033 -590.93188477 1950.40966797 C-594.58115648 1947.0567368 -598.24358074 1943.7196844 -601.93188477 1940.40966797 C-606.13872804 1936.6342958 -610.30863329 1932.81986348 -614.47094727 1928.99560547 C-618.41018047 1925.3795914 -622.38131856 1921.80069038 -626.36157227 1918.22998047 C-629.27616923 1915.59887014 -632.16727701 1912.94314322 -635.05688477 1910.28466797 C-638.29401567 1907.30744157 -641.54326333 1904.35013831 -644.86938477 1901.47216797 C-649.00099377 1897.89029488 -653.00118403 1894.17128839 -657.01147461 1890.45507812 C-661.10882405 1886.66079758 -665.2459925 1882.9142035 -669.40454102 1879.18701172 C-672.2627068 1876.61157022 -675.09898738 1874.01281033 -677.93188477 1871.40966797 C-681.58115648 1868.0567368 -685.24358074 1864.7196844 -688.93188477 1861.40966797 C-692.62018966 1858.09965075 -696.28254242 1854.76252297 -699.93188477 1851.40966797 C-705.23310399 1846.54023752 -710.57293287 1841.71543773 -715.93188477 1836.90966797 C-721.80942919 1831.63883781 -727.65688304 1826.33735125 -733.47045898 1820.99609375 C-736.6081959 1818.11572968 -739.76192295 1815.2545055 -742.93188477 1812.40966797 C-747.13872804 1808.6342958 -751.30863329 1804.81986348 -755.47094727 1800.99560547 C-758.60855562 1798.1154419 -761.76209418 1795.25435183 -764.93188477 1792.40966797 C-769.13872804 1788.6342958 -773.30863329 1784.81986348 -777.47094727 1780.99560547 C-781.41018047 1777.3795914 -785.38131856 1773.80069038 -789.36157227 1770.22998047 C-792.27616923 1767.59887014 -795.16727701 1764.94314322 -798.05688477 1762.28466797 C-801.29401567 1759.30744157 -804.54326333 1756.35013831 -807.86938477 1753.47216797 C-812.00099377 1749.89029488 -816.00118403 1746.17128839 -820.01147461 1742.45507812 C-824.10882405 1738.66079758 -828.2459925 1734.9142035 -832.40454102 1731.18701172 C-835.2627068 1728.61157022 -838.09898738 1726.01281033 -840.93188477 1723.40966797 C-844.58115648 1720.0567368 -848.24358074 1716.7196844 -851.93188477 1713.40966797 C-856.13872804 1709.6342958 -860.30863329 1705.81986348 -864.47094727 1701.99560547 C-868.41018047 1698.3795914 -872.38131856 1694.80069038 -876.36157227 1691.22998047 C-879.27616923 1688.59887014 -882.16727701 1685.94314322 -885.05688477 1683.28466797 C-888.29401567 1680.30744157 -891.54326333 1677.35013831 -894.86938477 1674.47216797 C-899.00099377 1670.89029488 -903.00118403 1667.17128839 -907.01147461 1663.45507812 C-911.10882405 1659.66079758 -915.2459925 1655.9142035 -919.40454102 1652.18701172 C-922.2627068 1649.61157022 -925.09898738 1647.01281033 -927.93188477 1644.40966797 C-931.58115648 1641.0567368 -935.24358074 1637.7196844 -938.93188477 1634.40966797 C-943.13872804 1630.6342958 -947.30863329 1626.81986348 -951.47094727 1622.99560547 C-955.41018047 1619.3795914 -959.38131856 1615.80069038 -963.36157227 1612.22998047 C-966.27616923 1609.59887014 -969.16727701 1606.94314322 -972.05688477 1604.28466797 C-975.29401567 1601.30744157 -978.54326333 1598.35013831 -981.86938477 1595.47216797 C-986.00099377 1591.89029488 -990.00118403 1588.17128839 -994.01147461 1584.45507812 C-998.10882405 1580.66079758 -1002.2459925 1576.9142035 -1006.40454102 1573.18701172 C-1009.2627068 1570.61157022 -1012.09898738 1568.01281033 -1014.93188477 1565.40966797 C-1018.58115648 1562.0567368 -1022.24358074 1558.7196844 -1025.93188477 1555.40966797 C-1030.13872804 1551.6342958 -1034.30863329 1547.81986348 -1038.47094727 1543.99560547 C-1042.41018047 1540.3795914 -1046.38131856 1536.80069038 -1050.36157227 1533.22998047 C-1053.27616923 1530.59887014 -1056.16727701 1527.94314322 -1059.05688477 1525.28466797 C-1062.29401567 1522.30744157 -1065.54326333 1519.35013831 -1068.86938477 1516.47216797 C-1073.00099377 1512.89029488 -1077.00118403 1509.17128839 -1081.01147461 1505.45507812 C-1085.10882405 1501.66079758 -1089.2459925 1497.9142035 -1093.40454102 1494.18701172 C-1096.2627068 1491.61157022 -1099.09898738 1489.01281033 -1101.93188477 1486.40966797 C-1106.3751954 1482.32717812 -1110.84203988 1478.27294391 -1115.34594727 1474.25732422 C-1117.28531802 1472.49665681 -1119.18943457 1470.71714749 -1121.08032227 1468.90576172 C-1121.61657227 1468.39787109 -1122.15282227 1467.88998047 -1122.70532227 1467.36669922 C-1123.75213564 1466.37350311 -1124.79158 1465.37246646 -1125.82250977 1464.36279297 C-1128.85685289 1461.50066932 -1129.56392131 1460.90966797 -1133.93188477 1460.90966797 C-1135.91817416 1461.95612782 -1135.91817416 1461.95612782 -1137.84594727 1463.47998047 C-1138.5977124 1464.03959473 -1139.34947754 1464.59920898 -1140.12402344 1465.17578125 C-1140.92686768 1465.78921387 -1141.72971191 1466.40264648 -1142.55688477 1467.03466797 C-1143.39646729 1467.6648584 -1144.2360498 1468.29504883 -1145.10107422 1468.94433594 C-1151.580048 1473.82646071 -1157.98821992 1478.80123273 -1164.37646484 1483.80126953 C-1169.76093415 1488.01474174 -1175.20243184 1492.14259148 -1180.68261719 1496.23046875 C-1186.29408149 1500.41993934 -1191.86590096 1504.66000806 -1197.43188477 1508.90966797 C-1203.57953157 1513.6021493 -1209.73714954 1518.27950863 -1215.93188477 1522.90966797 C-1222.04317873 1527.47752451 -1228.11764855 1532.09204167 -1234.18188477 1536.72216797 C-1241.23969119 1542.11089855 -1248.32162771 1547.46533778 -1255.43188477 1552.78466797 C-1261.79253558 1557.54432203 -1268.12147583 1562.33817919 -1274.40844727 1567.19482422 C-1285.81680076 1575.99990655 -1297.29950454 1584.70969455 -1308.84228516 1593.33764648 C-1314.31396787 1597.43301216 -1319.74969235 1601.57461565 -1325.18188477 1605.72216797 C-1332.23969119 1611.11089855 -1339.32162771 1616.46533778 -1346.43188477 1621.78466797 C-1352.79253558 1626.54432203 -1359.12147583 1631.33817919 -1365.40844727 1636.19482422 C-1376.81680076 1644.99990655 -1388.29950454 1653.70969455 -1399.84228516 1662.33764648 C-1405.31396787 1666.43301216 -1410.74969235 1670.57461565 -1416.18188477 1674.72216797 C-1423.23969119 1680.11089855 -1430.32162771 1685.46533778 -1437.43188477 1690.78466797 C-1443.79253558 1695.54432203 -1450.12147583 1700.33817919 -1456.40844727 1705.19482422 C-1467.81680076 1713.99990655 -1479.29950454 1722.70969455 -1490.84228516 1731.33764648 C-1496.31396787 1735.43301216 -1501.74969235 1739.57461565 -1507.18188477 1743.72216797 C-1515.076296 1749.74965763 -1523.00578168 1755.72792513 -1530.96069336 1761.67529297 C-1535.07381346 1764.75377424 -1539.17127167 1767.84863595 -1543.22998047 1770.99853516 C-1545.78687662 1772.98261373 -1548.35823822 1774.94738574 -1550.93188477 1776.90966797 C-1551.74568604 1777.53349365 -1551.74568604 1777.53349365 -1552.57592773 1778.16992188 C-1572.79949442 1793.56032981 -1595.33009672 1802.78270159 -1621.1340332 1799.64160156 C-1637.75769216 1796.87099174 -1650.1551032 1788.51119981 -1661.93188477 1776.90966797 C-1663.2332757 1775.75123286 -1664.54458985 1774.60376362 -1665.86938477 1773.47216797 C-1670.00099377 1769.89029488 -1674.00118403 1766.17128839 -1678.01147461 1762.45507812 C-1682.10882405 1758.66079758 -1686.2459925 1754.9142035 -1690.40454102 1751.18701172 C-1693.2627068 1748.61157022 -1696.09898738 1746.01281033 -1698.93188477 1743.40966797 C-1702.58115648 1740.0567368 -1706.24358074 1736.7196844 -1709.93188477 1733.40966797 C-1714.13949738 1729.63360537 -1718.31030848 1725.8186279 -1722.47314453 1721.9934082 C-1725.58821601 1719.13364592 -1728.72040151 1716.29451438 -1731.86938477 1713.47216797 C-1736.32398387 1709.47518419 -1740.72106955 1705.41892387 -1745.11303711 1701.35351562 C-1749.17800288 1697.59488817 -1753.28173383 1693.88216954 -1757.40454102 1690.18701172 C-1760.2627068 1687.61157022 -1763.09898738 1685.01281033 -1765.93188477 1682.40966797 C-1769.58115648 1679.0567368 -1773.24358074 1675.7196844 -1776.93188477 1672.40966797 C-1781.13872804 1668.6342958 -1785.30863329 1664.81986348 -1789.47094727 1660.99560547 C-1792.60855562 1658.1154419 -1795.76209418 1655.25435183 -1798.93188477 1652.40966797 C-1803.13872804 1648.6342958 -1807.30863329 1644.81986348 -1811.47094727 1640.99560547 C-1814.60855562 1638.1154419 -1817.76209418 1635.25435183 -1820.93188477 1632.40966797 C-1821.73239258 1631.68908203 -1822.53290039 1630.96849609 -1823.35766602 1630.22607422 C-1824.70962469 1629.00951656 -1826.06195374 1627.79336246 -1827.41772461 1626.58105469 C-1830.96743622 1623.40312222 -1834.46827283 1620.18140367 -1837.93188477 1616.90966797 C-1838.59188477 1616.28962891 -1839.25188477 1615.66958984 -1839.93188477 1615.03076172 C-1851.60045864 1602.95702903 -1857.89698781 1585.2117306 -1858.36938477 1568.65966797 C-1857.84870953 1553.86241382 -1852.45755667 1541.34556869 -1841.93188477 1530.90966797 C-1840.06458008 1529.18818317 -1838.16081949 1527.52621022 -1836.22485352 1525.88232422 C-1833.44688048 1523.49241556 -1830.75082571 1521.01813812 -1828.05688477 1518.53466797 C-1824.36678421 1515.13885221 -1820.66482458 1511.75851108 -1816.93188477 1508.40966797 C-1813.24358045 1505.09965127 -1809.58118002 1501.76257376 -1805.93188477 1498.40966797 C-1801.4785299 1494.3180069 -1796.99528622 1490.26143851 -1792.49438477 1486.22216797 C-1789.62588068 1483.63351794 -1786.77711826 1481.02381651 -1783.93188477 1478.40966797 C-1779.4785299 1474.3180069 -1774.99528622 1470.26143851 -1770.49438477 1466.22216797 C-1767.62588068 1463.63351794 -1764.77711826 1461.02381651 -1761.93188477 1458.40966797 C-1757.4785299 1454.3180069 -1752.99528622 1450.26143851 -1748.49438477 1446.22216797 C-1745.62588068 1443.63351794 -1742.77711826 1441.02381651 -1739.93188477 1438.40966797 C-1735.4785299 1434.3180069 -1730.99528622 1430.26143851 -1726.49438477 1426.22216797 C-1723.62588068 1423.63351794 -1720.77711826 1421.02381651 -1717.93188477 1418.40966797 C-1713.4785299 1414.3180069 -1708.99528622 1410.26143851 -1704.49438477 1406.22216797 C-1701.62588068 1403.63351794 -1698.77711826 1401.02381651 -1695.93188477 1398.40966797 C-1691.4785299 1394.3180069 -1686.99528622 1390.26143851 -1682.49438477 1386.22216797 C-1679.62588068 1383.63351794 -1676.77711826 1381.02381651 -1673.93188477 1378.40966797 C-1669.4785299 1374.3180069 -1664.99528622 1370.26143851 -1660.49438477 1366.22216797 C-1657.62588068 1363.63351794 -1654.77711826 1361.02381651 -1651.93188477 1358.40966797 C-1647.4785299 1354.3180069 -1642.99528622 1350.26143851 -1638.49438477 1346.22216797 C-1635.62588068 1343.63351794 -1632.77711826 1341.02381651 -1629.93188477 1338.40966797 C-1625.4785299 1334.3180069 -1620.99528622 1330.26143851 -1616.49438477 1326.22216797 C-1613.62588068 1323.63351794 -1610.77711826 1321.02381651 -1607.93188477 1318.40966797 C-1603.4785299 1314.3180069 -1598.99528622 1310.26143851 -1594.49438477 1306.22216797 C-1591.62588068 1303.63351794 -1588.77711826 1301.02381651 -1585.93188477 1298.40966797 C-1581.4785299 1294.3180069 -1576.99528622 1290.26143851 -1572.49438477 1286.22216797 C-1569.62588068 1283.63351794 -1566.77711826 1281.02381651 -1563.93188477 1278.40966797 C-1559.4785299 1274.3180069 -1554.99528622 1270.26143851 -1550.49438477 1266.22216797 C-1547.62588068 1263.63351794 -1544.77711826 1261.02381651 -1541.93188477 1258.40966797 C-1537.4785299 1254.3180069 -1532.99528622 1250.26143851 -1528.49438477 1246.22216797 C-1525.62588068 1243.63351794 -1522.77711826 1241.02381651 -1519.93188477 1238.40966797 C-1515.4785299 1234.3180069 -1510.99528622 1230.26143851 -1506.49438477 1226.22216797 C-1503.62588068 1223.63351794 -1500.77711826 1221.02381651 -1497.93188477 1218.40966797 C-1493.4785299 1214.3180069 -1488.99528622 1210.26143851 -1484.49438477 1206.22216797 C-1481.6258805 1203.63351777 -1478.7771366 1201.0237967 -1475.93188477 1198.40966797 C-1471.468197 1194.30903154 -1466.97785616 1190.23964961 -1462.46704102 1186.19091797 C-1457.93839048 1182.11583027 -1453.43625606 1178.01155742 -1448.93188477 1173.90966797 C-1450.33867283 1170.68418644 -1451.99467032 1168.65349922 -1454.56469727 1166.26513672 C-1455.28915039 1165.58773438 -1456.01360352 1164.91033203 -1456.76000977 1164.21240234 C-1457.51797852 1163.514375 -1458.27594727 1162.81634766 -1459.05688477 1162.09716797 C-1459.79165039 1161.41074219 -1460.52641602 1160.72431641 -1461.28344727 1160.01708984 C-1465.47764073 1156.11457004 -1469.74159487 1152.30481248 -1474.06518555 1148.54663086 C-1476.86121354 1146.09471251 -1479.58530998 1143.56857735 -1482.30688477 1141.03466797 C-1487.8023179 1135.94058221 -1493.348932 1130.90782699 -1498.93188477 1125.90966797 C-1504.80991415 1120.63938314 -1510.65688861 1115.33734612 -1516.47045898 1109.99609375 C-1519.6081959 1107.11572968 -1522.76192295 1104.2545055 -1525.93188477 1101.40966797 C-1530.13872804 1097.6342958 -1534.30863329 1093.81986348 -1538.47094727 1089.99560547 C-1541.60855562 1087.1154419 -1544.76209418 1084.25435183 -1547.93188477 1081.40966797 C-1552.13872804 1077.6342958 -1556.30863329 1073.81986348 -1560.47094727 1069.99560547 C-1564.41018047 1066.3795914 -1568.38131856 1062.80069038 -1572.36157227 1059.22998047 C-1575.27616923 1056.59887014 -1578.16727701 1053.94314322 -1581.05688477 1051.28466797 C-1584.29401567 1048.30744157 -1587.54326333 1045.35013831 -1590.86938477 1042.47216797 C-1595.00099377 1038.89029488 -1599.00118403 1035.17128839 -1603.01147461 1031.45507812 C-1607.10882405 1027.66079758 -1611.2459925 1023.9142035 -1615.40454102 1020.18701172 C-1618.2627068 1017.61157022 -1621.09898738 1015.01281033 -1623.93188477 1012.40966797 C-1627.58115648 1009.0567368 -1631.24358074 1005.7196844 -1634.93188477 1002.40966797 C-1639.13872804 998.6342958 -1643.30863329 994.81986348 -1647.47094727 990.99560547 C-1651.41018047 987.3795914 -1655.38131856 983.80069038 -1659.36157227 980.22998047 C-1662.27616923 977.59887014 -1665.16727701 974.94314322 -1668.05688477 972.28466797 C-1671.29401567 969.30744157 -1674.54326333 966.35013831 -1677.86938477 963.47216797 C-1682.00099377 959.89029488 -1686.00118403 956.17128839 -1690.01147461 952.45507812 C-1694.10882405 948.66079758 -1698.2459925 944.9142035 -1702.40454102 941.18701172 C-1705.2627068 938.61157022 -1708.09898738 936.01281033 -1710.93188477 933.40966797 C-1714.58115648 930.0567368 -1718.24358074 926.7196844 -1721.93188477 923.40966797 C-1726.13872804 919.6342958 -1730.30863329 915.81986348 -1734.47094727 911.99560547 C-1738.41018047 908.3795914 -1742.38131856 904.80069038 -1746.36157227 901.22998047 C-1749.27616923 898.59887014 -1752.16727701 895.94314322 -1755.05688477 893.28466797 C-1758.29401567 890.30744157 -1761.54326333 887.35013831 -1764.86938477 884.47216797 C-1769.00099377 880.89029488 -1773.00118403 877.17128839 -1777.01147461 873.45507812 C-1781.10882405 869.66079758 -1785.2459925 865.9142035 -1789.40454102 862.18701172 C-1792.2627068 859.61157022 -1795.09898738 857.01281033 -1797.93188477 854.40966797 C-1801.58115648 851.0567368 -1805.24358074 847.7196844 -1808.93188477 844.40966797 C-1813.13872804 840.6342958 -1817.30863329 836.81986348 -1821.47094727 832.99560547 C-1824.60855562 830.1154419 -1827.76209418 827.25435183 -1830.93188477 824.40966797 C-1832.59855143 822.90966797 -1834.2652181 821.40966797 -1835.93188477 819.90966797 C-1836.4275293 819.4659082 -1836.92317383 819.02214844 -1837.43383789 818.56494141 C-1850.20902859 807.1115951 -1861.57277484 795.10163685 -1863.30297852 777.03466797 C-1863.86415406 758.20915947 -1856.90410551 743.97354524 -1844.14282227 730.19873047 C-1839.4370291 725.32665486 -1834.57387636 720.65102841 -1829.61938477 716.03466797 C-1828.61645386 715.09941284 -1828.61645386 715.09941284 -1827.59326172 714.14526367 C-1823.72044116 710.54405454 -1819.81723194 706.99120905 -1815.81079102 703.53857422 C-1811.79612307 700.05808247 -1807.87515383 696.47055943 -1803.93188477 692.90966797 C-1794.44316435 684.3410659 -1794.44316435 684.3410659 -1789.99438477 680.47216797 C-1785.79885255 676.8190884 -1781.69814923 673.06461248 -1777.58813477 669.31591797 C-1774.76465808 666.75818026 -1771.90132474 664.25196828 -1769.02563477 661.75341797 C-1766.4676945 659.5009034 -1763.95009496 657.20649705 -1761.43188477 654.90966797 C-1757.64254351 651.45391383 -1753.82104779 648.04443907 -1749.95141602 644.67919922 C-1745.90523387 641.13389842 -1741.92445289 637.51507798 -1737.93188477 633.90966797 C-1728.44316435 625.3410659 -1728.44316435 625.3410659 -1723.99438477 621.47216797 C-1719.79885255 617.8190884 -1715.69814923 614.06461248 -1711.58813477 610.31591797 C-1708.76465808 607.75818026 -1705.90132474 605.25196828 -1703.02563477 602.75341797 C-1700.4676945 600.5009034 -1697.95009496 598.20649705 -1695.43188477 595.90966797 C-1691.66837956 592.47702036 -1687.87059126 589.09411787 -1684.02563477 585.75341797 C-1681.4676945 583.5009034 -1678.95009496 581.20649705 -1676.43188477 578.90966797 C-1668.84217614 571.99668234 -1668.84217614 571.99668234 -1665.05688477 568.74560547 C-1663.47409342 567.3781203 -1661.91520295 565.9828757 -1660.36938477 564.57373047 C-1644.36376646 550.43833387 -1625.41131272 542.48475347 -1603.93188477 542.90966797 C-1585.76852551 544.10350379 -1571.91012221 554.42976838 -1558.10913086 565.30200195 C-1552.62810447 569.61676824 -1547.06640697 573.79778627 -1541.43188477 577.90966797 C-1534.41866933 583.03432468 -1527.53481711 588.29826045 -1520.70141602 593.65966797 C-1515.34964609 597.84394882 -1509.91638104 601.90131506 -1504.43188477 605.90966797 C-1497.35006941 611.08653943 -1490.3904429 616.39670259 -1483.48388672 621.8046875 C-1478.09981602 626.01605447 -1472.66005609 630.14354748 -1467.18115234 634.23046875 C-1461.56968804 638.41993934 -1455.99786857 642.66000806 -1450.43188477 646.90966797 C-1443.65771166 652.08037504 -1436.86439613 657.22300366 -1430.03833008 662.32495117 C-1423.46988296 667.24133934 -1416.95030187 672.22141137 -1410.42797852 677.19873047 C-1405.94241518 680.6203681 -1401.45136937 684.03296733 -1396.93188477 687.40966797 C-1391.48737907 691.47749151 -1386.08469587 695.59917169 -1380.68188477 699.72216797 C-1374.45070521 704.47684799 -1368.21007351 709.21721566 -1361.93188477 713.90966797 C-1354.82263502 719.22334834 -1347.76448993 724.60271539 -1340.70922852 729.98779297 C-1334.8410828 734.4636421 -1328.94981412 738.90658178 -1323.03833008 743.32495117 C-1316.46988296 748.24133934 -1309.95030187 753.22141137 -1303.42797852 758.19873047 C-1298.94241518 761.6203681 -1294.45136937 765.03296733 -1289.93188477 768.40966797 C-1284.48737907 772.47749151 -1279.08469587 776.59917169 -1273.68188477 780.72216797 C-1267.45070526 785.47684795 -1261.21007751 790.21722102 -1254.93188477 794.90966797 C-1247.72875473 800.29343157 -1240.576887 805.74325137 -1233.42797852 811.19873047 C-1228.94241518 814.6203681 -1224.45136937 818.03296733 -1219.93188477 821.40966797 C-1214.48737907 825.47749151 -1209.08469587 829.59917169 -1203.68188477 833.72216797 C-1197.45070526 838.47684795 -1191.21007751 843.21722102 -1184.93188477 847.90966797 C-1178.65369066 852.60211594 -1172.41316306 857.34261576 -1166.18188477 862.09716797 C-1156.41571992 869.56170105 -1156.41571992 869.56170105 -1146.57641602 876.92919922 C-1144.6747452 878.3533456 -1142.79999436 879.8137007 -1140.94360352 881.29638672 C-1139.97036133 882.05564453 -1138.99711914 882.81490234 -1137.99438477 883.59716797 C-1137.13973633 884.28166016 -1136.28508789 884.96615234 -1135.40454102 885.67138672 C-1132.98894827 887.20484739 -1132.98894827 887.20484739 -1130.35375977 886.34716797 C-1127.84057415 884.8554707 -1126.10979875 883.35505369 -1124.11938477 881.22216797 C-1121.57604386 878.57955167 -1119.02716822 876.04910439 -1116.24438477 873.65966797 C-1112.60661104 870.52932437 -1109.07548884 867.29729029 -1105.55688477 864.03466797 C-1100.89264641 859.7119925 -1096.19494139 855.43149992 -1091.45922852 851.18701172 C-1088.60106273 848.61157022 -1085.76478215 846.01281033 -1082.93188477 843.40966797 C-1079.28261305 840.0567368 -1075.62018879 836.7196844 -1071.93188477 833.40966797 C-1066.22526782 828.28647512 -1060.57873123 823.09846858 -1054.93188477 817.90966797 C-1048.48091669 811.98197233 -1042.0146976 806.07373077 -1035.49438477 800.22216797 C-1032.62588068 797.63351794 -1029.77711826 795.02381651 -1026.93188477 792.40966797 C-1022.4785299 788.3180069 -1017.99528622 784.26143851 -1013.49438477 780.22216797 C-1010.62588068 777.63351794 -1007.77711826 775.02381651 -1004.93188477 772.40966797 C-1000.4785299 768.3180069 -995.99528622 764.26143851 -991.49438477 760.22216797 C-988.10790155 757.16607336 -984.74943662 754.07981185 -981.390625 750.9934082 C-978.27555352 748.13364592 -975.14336802 745.29451438 -971.99438477 742.47216797 C-968.10817879 738.985187 -964.2634567 735.45634811 -960.43188477 731.90966797 C-955.80835865 727.62991841 -951.15096142 723.39208189 -946.45922852 719.18701172 C-943.60106273 716.61157022 -940.76478215 714.01281033 -937.93188477 711.40966797 C-933.47855859 707.3179759 -928.99528588 703.2614382 -924.49438477 699.22216797 C-921.62588068 696.63351794 -918.77711826 694.02381651 -915.93188477 691.40966797 C-911.4785299 687.3180069 -906.99528622 683.26143851 -902.49438477 679.22216797 C-899.10790155 676.16607336 -895.74943662 673.07981185 -892.390625 669.9934082 C-889.27555352 667.13364592 -886.14336802 664.29451438 -882.99438477 661.47216797 C-879.10817879 657.985187 -875.2634567 654.45634811 -871.43188477 650.90966797 C-866.80835865 646.62991841 -862.15096142 642.39208189 -857.45922852 638.18701172 C-854.60106273 635.61157022 -851.76478215 633.01281033 -848.93188477 630.40966797 C-844.47855859 626.3179759 -839.99528588 622.2614382 -835.49438477 618.22216797 C-832.62588068 615.63351794 -829.77711826 613.02381651 -826.93188477 610.40966797 C-823.28258952 607.05676218 -819.62018908 603.71968466 -815.93188477 600.40966797 C-810.22526782 595.28647512 -804.57873123 590.09846858 -798.93188477 584.90966797 C-792.48091669 578.98197233 -786.0146976 573.07373077 -779.49438477 567.22216797 C-776.62588068 564.63351794 -773.77711826 562.02381651 -770.93188477 559.40966797 C-766.4785299 555.3180069 -761.99528622 551.26143851 -757.49438477 547.22216797 C-754.62588068 544.63351794 -751.77711826 542.02381651 -748.93188477 539.40966797 C-744.4785299 535.3180069 -739.99528622 531.26143851 -735.49438477 527.22216797 C-732.10790155 524.16607336 -728.74943662 521.07981185 -725.390625 517.9934082 C-722.27555352 515.13364592 -719.14336802 512.29451438 -715.99438477 509.47216797 C-712.10817879 505.985187 -708.2634567 502.45634811 -704.43188477 498.90966797 C-699.80835865 494.62991841 -695.15096142 490.39208189 -690.45922852 486.18701172 C-687.60106273 483.61157022 -684.76478215 481.01281033 -681.93188477 478.40966797 C-677.47855859 474.3179759 -672.99528588 470.2614382 -668.49438477 466.22216797 C-665.62588068 463.63351794 -662.77711826 461.02381651 -659.93188477 458.40966797 C-655.4785299 454.3180069 -650.99528622 450.26143851 -646.49438477 446.22216797 C-643.10790155 443.16607336 -639.74943662 440.07981185 -636.390625 436.9934082 C-633.27555352 434.13364592 -630.14336802 431.29451438 -626.99438477 428.47216797 C-623.10817879 424.985187 -619.2634567 421.45634811 -615.43188477 417.90966797 C-610.80835865 413.62991841 -606.15096142 409.39208189 -601.45922852 405.18701172 C-598.60106273 402.61157022 -595.76478215 400.01281033 -592.93188477 397.40966797 C-588.47855859 393.3179759 -583.99528588 389.2614382 -579.49438477 385.22216797 C-576.62588068 382.63351794 -573.77711826 380.02381651 -570.93188477 377.40966797 C-566.4785299 373.3180069 -561.99528622 369.26143851 -557.49438477 365.22216797 C-554.10790155 362.16607336 -550.74943662 359.07981185 -547.390625 355.9934082 C-544.27555352 353.13364592 -541.14336802 350.29451438 -537.99438477 347.47216797 C-534.10817879 343.985187 -530.2634567 340.45634811 -526.43188477 336.90966797 C-521.80835865 332.62991841 -517.15096142 328.39208189 -512.45922852 324.18701172 C-509.60106273 321.61157022 -506.76478215 319.01281033 -503.93188477 316.40966797 C-499.47855859 312.3179759 -494.99528588 308.2614382 -490.49438477 304.22216797 C-487.62588068 301.63351794 -484.77711826 299.02381651 -481.93188477 296.40966797 C-478.28258952 293.05676218 -474.62018908 289.71968466 -470.93188477 286.40966797 C-465.22526782 281.28647512 -459.57873123 276.09846858 -453.93188477 270.90966797 C-447.48091669 264.98197233 -441.0146976 259.07373077 -434.49438477 253.22216797 C-431.62588068 250.63351794 -428.77711826 248.02381651 -425.93188477 245.40966797 C-421.4785299 241.3180069 -416.99528622 237.26143851 -412.49438477 233.22216797 C-409.62588068 230.63351794 -406.77711826 228.02381651 -403.93188477 225.40966797 C-399.4785299 221.3180069 -394.99528622 217.26143851 -390.49438477 213.22216797 C-387.10790155 210.16607336 -383.74943662 207.07981185 -380.390625 203.9934082 C-377.27555352 201.13364592 -374.14336802 198.29451438 -370.99438477 195.47216797 C-367.10817879 191.985187 -363.2634567 188.45634811 -359.43188477 184.90966797 C-354.80835865 180.62991841 -350.15096142 176.39208189 -345.45922852 172.18701172 C-342.60106273 169.61157022 -339.76478215 167.01281033 -336.93188477 164.40966797 C-332.47855859 160.3179759 -327.99528588 156.2614382 -323.49438477 152.22216797 C-320.62588068 149.63351794 -317.77711826 147.02381651 -314.93188477 144.40966797 C-310.4785299 140.3180069 -305.99528622 136.26143851 -301.49438477 132.22216797 C-298.10790155 129.16607336 -294.74943662 126.07981185 -291.390625 122.9934082 C-288.27555352 120.13364592 -285.14336802 117.29451438 -281.99438477 114.47216797 C-278.10817879 110.985187 -274.2634567 107.45634811 -270.43188477 103.90966797 C-265.80835865 99.62991841 -261.15096142 95.39208189 -256.45922852 91.18701172 C-253.60106273 88.61157022 -250.76478215 86.01281033 -247.93188477 83.40966797 C-243.47855859 79.3179759 -238.99528588 75.2614382 -234.49438477 71.22216797 C-231.62588068 68.63351794 -228.77711826 66.02381651 -225.93188477 63.40966797 C-222.28258952 60.05676218 -218.62018908 56.71968466 -214.93188477 53.40966797 C-209.22526782 48.28647512 -203.57873123 43.09846858 -197.93188477 37.90966797 C-191.47746986 31.97880509 -185.01600409 26.05806118 -178.47875977 20.21826172 C-176.67795274 18.58593511 -174.89860596 16.92978485 -173.13500977 15.25732422 C-152.36818301 -4.41596351 -128.11695893 -17.06251188 -99.93188477 -22.09033203 C-98.85938477 -22.28369141 -97.78688477 -22.47705078 -96.68188477 -22.67626953 C-61.93363564 -26.51305537 -29.9586755 -17.0568593 0 0 Z M-43.49438477 632.65966797 C-48.07009719 636.43934795 -52.73147675 640.05711326 -57.49438477 643.59716797 C-63.44835076 648.02487984 -69.33513813 652.52878197 -75.18188477 657.09716797 C-81.02019581 661.65681013 -86.89025266 666.15903372 -92.83032227 670.58544922 C-98.83762808 675.08714564 -104.78513146 679.66776152 -110.74389648 684.23339844 C-114.2219367 686.89800724 -117.70170893 689.5603493 -121.18188477 692.22216797 C-121.87241943 692.75036133 -122.5629541 693.27855469 -123.27441406 693.82275391 C-129.8849191 698.87726978 -136.50511878 703.91903275 -143.12524414 708.9609375 C-151.40266772 715.26602993 -159.66872419 721.5859012 -167.93188477 727.90966797 C-177.98743949 735.60514747 -188.0517568 743.28894324 -198.12524414 750.9609375 C-206.40266772 757.26602993 -214.66872419 763.5859012 -222.93188477 769.90966797 C-232.98743949 777.60514747 -243.0517568 785.28894324 -253.12524414 792.9609375 C-261.40266772 799.26602993 -269.66872419 805.5859012 -277.93188477 811.90966797 C-287.99034739 819.60737288 -298.05744923 827.29355691 -308.1340332 834.9675293 C-313.5712046 839.10897726 -319.00408281 843.25594929 -324.43188477 847.40966797 C-330.75879928 852.25144797 -337.09366261 857.08270063 -343.43188477 861.90966797 C-352.60759734 868.89787604 -361.77252649 875.90004436 -370.93188477 882.90966797 C-380.98743949 890.60514747 -391.0517568 898.28894324 -401.12524414 905.9609375 C-409.40266772 912.26602993 -417.66872419 918.5859012 -425.93188477 924.90966797 C-435.98743949 932.60514747 -446.0517568 940.28894324 -456.12524414 947.9609375 C-464.40266772 954.26602993 -472.66872419 960.5859012 -480.93188477 966.90966797 C-490.98743949 974.60514747 -501.0517568 982.28894324 -511.12524414 989.9609375 C-519.40266772 996.26602993 -527.66872419 1002.5859012 -535.93188477 1008.90966797 C-545.98743949 1016.60514747 -556.0517568 1024.28894324 -566.12524414 1031.9609375 C-574.40266772 1038.26602993 -582.66872419 1044.5859012 -590.93188477 1050.90966797 C-600.99034739 1058.60737288 -611.05744923 1066.29355691 -621.1340332 1073.9675293 C-626.5712046 1078.10897726 -632.00408281 1082.25594929 -637.43188477 1086.40966797 C-643.75879928 1091.25144797 -650.09366261 1096.08270063 -656.43188477 1100.90966797 C-665.60759734 1107.89787604 -674.77252649 1114.90004436 -683.93188477 1121.90966797 C-693.09124317 1128.91929168 -702.25620933 1135.92141099 -711.43188477 1142.90966797 C-722.22891049 1151.12840592 -722.22891049 1151.12840592 -733.00390625 1159.37597656 C-736.27496958 1161.88755163 -739.55686197 1164.38008904 -742.87329102 1166.83154297 C-743.48624023 1167.28932129 -744.09918945 1167.74709961 -744.73071289 1168.21875 C-746.37768516 1169.44759559 -748.03148861 1170.6672708 -749.68579102 1171.88623047 C-750.42700195 1172.55396484 -751.16821289 1173.22169922 -751.93188477 1173.90966797 C-751.93188477 1174.89966797 -751.93188477 1175.88966797 -751.93188477 1176.90966797 C-750.36290381 1178.4765372 -750.36290381 1178.4765372 -748.23266602 1179.91357422 C-747.44263184 1180.48382324 -746.65259766 1181.05407227 -745.83862305 1181.64160156 C-744.98252441 1182.24568848 -744.12642578 1182.84977539 -743.24438477 1183.47216797 C-741.47671037 1184.74587105 -739.70978413 1186.02061309 -737.94360352 1187.29638672 C-737.07783691 1187.91819824 -736.21207031 1188.54000977 -735.32006836 1189.18066406 C-732.35365238 1191.32829829 -729.45100234 1193.54048433 -726.55688477 1195.78466797 C-720.84784821 1200.20716108 -715.11380207 1204.59570856 -709.36938477 1208.97216797 C-708.44915527 1209.67325684 -707.52892578 1210.3743457 -706.58081055 1211.09667969 C-701.13767804 1215.23995966 -695.67751619 1219.35828906 -690.19750977 1223.45263672 C-685.67092052 1226.84757866 -681.1799526 1230.28959989 -676.68188477 1233.72216797 C-670.45070526 1238.47684795 -664.21007751 1243.21722102 -657.93188477 1247.90966797 C-650.72875473 1253.29343157 -643.576887 1258.74325137 -636.42797852 1264.19873047 C-631.94241518 1267.6203681 -627.45136937 1271.03296733 -622.93188477 1274.40966797 C-617.48737907 1278.47749151 -612.08469587 1282.59917169 -606.68188477 1286.72216797 C-600.45070526 1291.47684795 -594.21007751 1296.21722102 -587.93188477 1300.90966797 C-580.72875473 1306.29343157 -573.576887 1311.74325137 -566.42797852 1317.19873047 C-561.94241518 1320.6203681 -557.45136937 1324.03296733 -552.93188477 1327.40966797 C-547.48737907 1331.47749151 -542.08469587 1335.59917169 -536.68188477 1339.72216797 C-530.45070521 1344.47684799 -524.21007351 1349.21721566 -517.93188477 1353.90966797 C-510.82263502 1359.22334834 -503.76448993 1364.60271539 -496.70922852 1369.98779297 C-490.8410828 1374.4636421 -484.94981412 1378.90658178 -479.03833008 1383.32495117 C-472.46988296 1388.24133934 -465.95030187 1393.22141137 -459.42797852 1398.19873047 C-454.94241518 1401.6203681 -450.45136937 1405.03296733 -445.93188477 1408.40966797 C-440.48737907 1412.47749151 -435.08469587 1416.59917169 -429.68188477 1420.72216797 C-423.45070526 1425.47684795 -417.21007751 1430.21722102 -410.93188477 1434.90966797 C-403.72875473 1440.29343157 -396.576887 1445.74325137 -389.42797852 1451.19873047 C-384.94241518 1454.6203681 -380.45136937 1458.03296733 -375.93188477 1461.40966797 C-370.48737907 1465.47749151 -365.08469587 1469.59917169 -359.68188477 1473.72216797 C-353.45070526 1478.47684795 -347.21007751 1483.21722102 -340.93188477 1487.90966797 C-333.72875473 1493.29343157 -326.576887 1498.74325137 -319.42797852 1504.19873047 C-314.94241518 1507.6203681 -310.45136937 1511.03296733 -305.93188477 1514.40966797 C-300.48737907 1518.47749151 -295.08469587 1522.59917169 -289.68188477 1526.72216797 C-283.45070526 1531.47684795 -277.21007751 1536.21722102 -270.93188477 1540.90966797 C-263.72875473 1546.29343157 -256.576887 1551.74325137 -249.42797852 1557.19873047 C-244.94241518 1560.6203681 -240.45136937 1564.03296733 -235.93188477 1567.40966797 C-230.48737907 1571.47749151 -225.08469587 1575.59917169 -219.68188477 1579.72216797 C-213.45070526 1584.47684795 -207.21007751 1589.21722102 -200.93188477 1593.90966797 C-193.72875473 1599.29343157 -186.576887 1604.74325137 -179.42797852 1610.19873047 C-174.94241518 1613.6203681 -170.45136937 1617.03296733 -165.93188477 1620.40966797 C-160.48737907 1624.47749151 -155.08469587 1628.59917169 -149.68188477 1632.72216797 C-143.45070521 1637.47684799 -137.21007351 1642.21721566 -130.93188477 1646.90966797 C-123.82263502 1652.22334834 -116.76448993 1657.60271539 -109.70922852 1662.98779297 C-103.8410828 1667.4636421 -97.94981412 1671.90658178 -92.03833008 1676.32495117 C-85.4757476 1681.23694974 -78.96179241 1686.21232411 -72.44555664 1691.18554688 C-66.89253132 1695.42182281 -61.32203372 1699.63163193 -55.72094727 1703.80419922 C-53.59546156 1705.40873255 -51.48951436 1707.02993453 -49.39282227 1708.67138672 C-48.7953418 1709.13754395 -48.19786133 1709.60370117 -47.58227539 1710.08398438 C-46.42403318 1710.98961765 -45.26892163 1711.89927338 -44.11743164 1712.81347656 C-41.35430905 1715.18727481 -41.35430905 1715.18727481 -37.93188477 1715.90966797 C-37.93188477 1357.19966797 -37.93188477 998.48966797 -37.93188477 628.90966797 C-39.99543396 628.90966797 -42.03694523 631.43463682 -43.49438477 632.65966797 Z " fill="#2389CA" transform="translate(1910.931884765625,62.09033203125)"/>
<path d="M0 0 C8.65829918 4.89153832 17.64774655 9.04520702 26.63891602 13.28173828 C32.58400945 16.10402812 38.4997326 18.98680291 44.41818237 21.86444092 C54.45367202 26.74336781 64.49528381 31.6081871 74.56811523 36.40966797 C83.92167348 40.8682883 93.24701525 45.38372629 102.56811523 49.90966797 C112.87817764 54.91560715 123.19789396 59.89938944 133.54223633 64.83422852 C141.10259476 68.44273381 148.64976483 72.07827848 156.19311523 75.72216797 C156.8009082 76.01575195 157.40870117 76.30933594 158.03491211 76.61181641 C161.75675169 78.40972092 165.4783229 80.20818045 169.1998291 82.0067749 C174.73882925 84.68362656 180.2783364 87.35942822 185.81811523 90.03466797 C186.42347107 90.32703339 187.0288269 90.6193988 187.65252686 90.92062378 C195.86826139 94.8881308 204.09052411 98.84180759 212.31811523 102.78466797 C222.12422219 107.48425546 231.91085995 112.22321458 241.69311523 116.97216797 C251.96174817 121.95717341 262.24029013 126.91958366 272.54272461 131.83447266 C280.10293068 135.44287477 287.6499287 139.07835764 295.19311523 142.72216797 C296.10480469 143.16254395 296.10480469 143.16254395 297.03491211 143.61181641 C300.75675169 145.40972092 304.4783229 147.20818045 308.1998291 149.0067749 C313.73882925 151.68362656 319.2783364 154.35942822 324.81811523 157.03466797 C325.42347107 157.32703339 326.0288269 157.6193988 326.65252686 157.92062378 C334.86826139 161.8881308 343.09052411 165.84180759 351.31811523 169.78466797 C361.12422219 174.48425546 370.91085995 179.22321458 380.69311523 183.97216797 C390.96174817 188.95717341 401.24029013 193.91958366 411.54272461 198.83447266 C419.10293286 202.44287581 426.64973016 206.07876599 434.19311523 209.72216797 C435.42447723 210.31665441 436.65584116 210.91113682 437.88720703 211.50561523 C443.44656078 214.19020903 449.00453454 216.87758117 454.5582428 219.57383728 C457.58164678 221.04143449 460.60604106 222.50698428 463.63061523 223.97216797 C464.8180835 224.54765381 466.00555176 225.12313965 467.22900391 225.71606445 C474.56857013 229.25956099 481.94332433 232.71119127 489.3515625 236.10791016 C503.97989707 242.81561021 517.83804124 249.25376191 530.06811523 259.90966797 C530.91116211 260.63154297 531.75420898 261.35341797 532.62280273 262.09716797 C551.71534484 278.81039632 564.5632951 300.29304976 567.06811523 325.90966797 C567.21299449 329.78032927 567.2067761 333.64815883 567.2010271 337.52118254 C567.20324807 338.69351473 567.20546905 339.86584691 567.20775732 341.07370432 C567.21292354 344.33458146 567.21362573 347.59542463 567.2124642 350.85630454 C567.21229792 354.4145514 567.21791805 357.97278993 567.22279558 361.5310328 C567.23057807 367.79364396 567.23464318 374.05624911 567.2363108 380.31886476 C567.23882434 389.69436574 567.24705637 399.06985573 567.25640806 408.44535207 C567.27217359 424.42295746 567.28318081 440.40056302 567.29161263 456.37817383 C567.30017434 472.5749992 567.31088031 488.77182101 567.32421112 504.96864319 C567.32505071 505.99081756 567.32589031 507.01299192 567.32675534 508.06614127 C567.33018103 512.22916369 567.33362071 516.39218609 567.33707849 520.55520848 C567.373158 564.01148124 567.40216763 607.46775694 567.42871245 650.92403644 C567.43157246 655.603514 567.43443558 660.28299155 567.4373014 664.9624691 C567.43801198 666.12365884 567.43872257 667.28484859 567.43945468 668.4812259 C567.45522423 694.19978484 567.47276203 719.91834248 567.49061345 745.63690005 C567.49795786 756.22311041 567.50526383 766.8093208 567.51257735 777.39553118 C567.51338574 778.56517999 567.51419412 779.73482881 567.515027 780.93992153 C567.56134692 847.97977974 567.60546792 915.01963909 567.64502239 982.05950165 C567.64650445 984.56909673 567.64798655 987.0786918 567.6494687 989.58828688 C567.65615818 1000.91919357 567.66283305 1012.25010027 567.66950393 1023.58100697 C567.67247878 1028.63386364 567.67545462 1033.68672031 567.67843057 1038.73957698 C567.67991974 1041.26862503 567.68140827 1043.79767307 567.68289618 1046.32672111 C567.72995022 1126.29903792 567.78501856 1206.2713455 567.84667969 1286.24365234 C567.86221271 1306.39186344 567.87771397 1326.54007457 567.89303875 1346.68828583 C567.89398238 1347.9288495 567.894926 1349.16941318 567.89589823 1350.44756969 C567.92493888 1388.67655465 567.95152132 1426.9055407 567.97559071 1465.13452911 C567.97634659 1466.33459292 567.97710247 1467.53465673 567.97788126 1468.7710861 C567.99445019 1495.11417484 568.01042491 1521.45726391 568.02585137 1547.80035334 C568.03137663 1557.22622247 568.03694664 1566.65209157 568.0425387 1576.07796066 C568.0439295 1578.42293047 568.045318 1580.76790027 568.04670419 1583.11287007 C568.06882467 1620.49399836 568.09685308 1657.8751193 568.12782589 1695.25624121 C568.15897457 1732.90301981 568.18364848 1770.54979698 568.19948029 1808.1965853 C568.20166778 1813.39755164 568.20392463 1818.59851796 568.20622253 1823.79948425 C568.20667019 1824.81902667 568.20711785 1825.83856909 568.20757907 1826.88900673 C568.21485322 1843.03961278 568.22887244 1859.19020567 568.24569276 1875.34080431 C568.2620872 1891.21775829 568.2713239 1907.09470301 568.27292258 1922.97166552 C568.27407455 1932.28212775 568.28072085 1941.59254689 568.29548629 1950.9029977 C568.30474502 1957.08744482 568.30670926 1963.27186659 568.30276026 1969.4563193 C568.30072559 1972.96144628 568.30176174 1976.4664931 568.31179946 1979.97160807 C568.4114584 2021.26841935 558.75422597 2052.83839173 529.50561523 2082.84716797 C528.61495361 2083.77722656 528.61495361 2083.77722656 527.70629883 2084.72607422 C515.80781921 2096.66447132 502.24753355 2104.87481604 487.06811523 2111.90966797 C484.50745197 2113.121865 481.94999343 2114.34066015 479.39257812 2115.55969238 C477.62969976 2116.3995119 475.86585755 2117.23731107 474.10107422 2118.07312012 C463.53881984 2123.08282586 453.10907223 2128.3547844 442.67163086 2133.61816406 C433.43311339 2138.27408358 424.16123536 2142.84185163 414.81811523 2147.28466797 C403.15345598 2152.83332587 391.60463229 2158.60026358 380.06811523 2164.40966797 C367.66583069 2170.65504393 355.23486232 2176.81517209 342.69311523 2182.77612305 C332.07521283 2187.8353155 321.57255891 2193.11998123 311.06811523 2198.40966797 C298.66583069 2204.65504393 286.23486232 2210.81517209 273.69311523 2216.77612305 C263.07521283 2221.8353155 252.57255891 2227.11998123 242.06811523 2232.40966797 C229.66583069 2238.65504393 217.23486232 2244.81517209 204.69311523 2250.77612305 C194.07521283 2255.8353155 183.57255891 2261.11998123 173.06811523 2266.40966797 C160.66583069 2272.65504393 148.23486232 2278.81517209 135.69311523 2284.77612305 C125.07521283 2289.8353155 114.57255891 2295.11998123 104.06811523 2300.40966797 C91.66583069 2306.65504393 79.23486232 2312.81517209 66.69311523 2318.77612305 C56.07521283 2323.8353155 45.57255891 2329.11998123 35.06811523 2334.40966797 C23.61407317 2340.17754071 12.1489828 2345.90414229 0.56420898 2351.40576172 C-7.1809016 2355.08414284 -14.87169388 2358.85376054 -22.52172852 2362.72607422 C-23.46166656 2363.20116425 -24.40160461 2363.67625427 -25.37002563 2364.16574097 C-29.18025852 2366.09332655 -32.98926562 2368.02317859 -36.79296875 2369.96362305 C-39.63641622 2371.41258469 -42.48484906 2372.85132095 -45.33422852 2374.28857422 C-46.18323227 2374.72496719 -47.03223602 2375.16136017 -47.90696716 2375.61097717 C-66.51563572 2384.95605544 -89.49164698 2383.41884379 -108.91943359 2377.14257812 C-125.57489834 2371.37651867 -139.16826712 2361.98271674 -151.93188477 2349.90966797 C-152.51969727 2349.36955078 -153.10750977 2348.82943359 -153.71313477 2348.27294922 C-154.93188477 2346.90966797 -154.93188477 2346.90966797 -154.93188477 2344.90966797 C-154.07852539 2344.98185547 -153.22516602 2345.05404297 -152.34594727 2345.12841797 C-121.79439281 2347.39616222 -89.47391497 2348.02950273 -64.93188477 2326.90966797 C-62.24420899 2324.47216772 -62.24420899 2324.47216772 -59.93188477 2321.90966797 C-59.46266602 2321.41080078 -58.99344727 2320.91193359 -58.51000977 2320.39794922 C-43.31348307 2303.59560398 -38.27872654 2279.75875314 -38.42473477 2257.70316911 C-38.42012654 2256.13927679 -38.41377056 2254.57538884 -38.4058547 2253.01150977 C-38.38923662 2248.74111381 -38.39718631 2244.47107551 -38.40939409 2240.20067801 C-38.41827985 2235.52730504 -38.40379231 2230.85399151 -38.39239684 2226.180632 C-38.37556667 2217.96751993 -38.37354202 2209.75450795 -38.38124301 2201.54138377 C-38.39270438 2189.24598421 -38.38112035 2176.95067903 -38.36513212 2164.65528836 C-38.33856932 2143.698567 -38.33105138 2122.74187725 -38.3339386 2101.78514099 C-38.33680954 2080.5484236 -38.33108712 2059.31173019 -38.31481361 2038.07501984 C-38.3137841 2036.72000225 -38.31275471 2035.36498467 -38.31172545 2034.00996709 C-38.30755862 2028.54634765 -38.30332643 2023.08272826 -38.29901978 2017.61910893 C-38.2868984 2002.21891397 -38.27625693 1986.81871814 -38.26664031 1971.4185214 C-38.26597903 1970.36004363 -38.26597903 1970.36004363 -38.2653044 1969.28018246 C-38.24041633 1929.16312399 -38.23639774 1889.04606252 -38.23215142 1848.9289976 C-38.23150223 1842.79741022 -38.23084497 1836.66582285 -38.23017567 1830.53423547 C-38.23000845 1828.99737198 -38.22984266 1827.46050848 -38.22967829 1825.92364498 C-38.22605902 1792.19035463 -38.21596871 1758.45706758 -38.20431165 1724.72377916 C-38.19951621 1710.84168861 -38.19489623 1696.959598 -38.19027199 1683.07750739 C-38.18975575 1681.52801445 -38.18923907 1679.9785215 -38.18872195 1678.42902856 C-38.17640335 1641.50991548 -38.16557743 1604.59080208 -38.1564455 1567.67168808 C-38.15615303 1566.49043426 -38.15615303 1566.49043426 -38.15585464 1565.28531672 C-38.14347194 1515.10770201 -38.13794938 1464.93008896 -38.13709272 1414.75247279 C-38.1370353 1411.46245306 -38.1369711 1408.17243334 -38.13690701 1404.88241361 C-38.13661857 1390.02793986 -38.13638579 1375.1734661 -38.13616532 1360.31899235 C-38.13606696 1353.69443958 -38.13596425 1347.06988681 -38.13585852 1340.44533404 C-38.13579269 1336.30011887 -38.13572998 1332.15490369 -38.13567395 1328.00968852 C-38.13460387 1249.71453791 -38.12501623 1171.41940713 -38.08074951 1093.12426758 C-38.08028364 1092.29992518 -38.07981777 1091.47558277 -38.07933779 1090.6262603 C-38.06475277 1064.86949206 -38.04907903 1039.1127245 -38.03320312 1013.35595703 C-38.01691769 986.92699327 -38.00077565 960.49802944 -37.98545361 934.06906509 C-37.98474503 932.84839484 -37.98474503 932.84839484 -37.98402213 931.60306459 C-37.95447916 880.6336507 -37.93585382 829.66424242 -37.92901325 778.6948204 C-37.92890636 777.9075527 -37.92879946 777.120285 -37.92868933 776.3091607 C-37.92401261 741.73356749 -37.92180932 707.15797451 -37.92231593 672.582381 C-37.92251551 658.67249529 -37.92244505 644.76260958 -37.92226184 630.85272386 C-37.92223551 628.54643741 -37.92222109 626.24015096 -37.92220917 623.93386451 C-37.92197261 588.66488848 -37.91498518 553.39593195 -37.88761306 518.12696552 C-37.88702367 517.36661561 -37.88643429 516.60626569 -37.88582704 515.82287487 C-37.8763115 503.59215288 -37.86626639 491.36143133 -37.85617021 479.1307098 C-37.827524 444.40383831 -37.80362013 409.67699226 -37.81192839 374.9501071 C-37.81209527 374.24519845 -37.81226215 373.54028979 -37.81243408 372.81402027 C-37.81617107 357.43374286 -37.82243106 342.05346753 -37.83116386 326.67319216 C-37.83460947 320.53876835 -37.83772704 314.40434438 -37.84074211 308.26992035 C-37.84107995 307.60076874 -37.8414178 306.93161713 -37.84176588 306.2421882 C-37.85263931 284.38896066 -37.83319591 262.53585442 -37.79915518 240.68264946 C-37.76735177 219.86102214 -37.76763228 199.03960053 -37.80210178 178.21797522 C-37.82135166 166.00936332 -37.81601131 153.801362 -37.77424945 141.59280294 C-37.74896624 133.48162482 -37.75640957 125.37089966 -37.79029651 117.25975406 C-37.80858843 112.66343314 -37.81318387 108.06831095 -37.77735958 103.47206603 C-37.63722856 84.23957682 -38.04117551 68.04197979 -47.93188477 50.90966797 C-48.65072576 49.55109176 -49.36366427 48.18937132 -50.0698492 46.8241737 C-61.20069406 25.70409449 -77.51206416 8.93650885 -100.55688477 1.78466797 C-115.35142942 -2.05095472 -131.67212396 -1.56190495 -145.93188477 3.90966797 C-147.23266001 4.38494483 -148.53344151 4.86020457 -149.83422852 5.33544922 C-155.39458428 7.42313356 -160.74283636 9.59118709 -165.74438477 12.84716797 C-167.32219727 13.86810547 -167.32219727 13.86810547 -168.93188477 14.90966797 C-169.59188477 14.57966797 -170.25188477 14.24966797 -170.93188477 13.90966797 C-152.7814854 -6.21479296 -126.14085229 -17.41502147 -99.93188477 -22.09033203 C-98.85938477 -22.28369141 -97.78688477 -22.47705078 -96.68188477 -22.67626953 C-61.93363564 -26.51305537 -29.9586755 -17.0568593 0 0 Z " fill="#3B99D4" transform="translate(1910.931884765625,62.09033203125)"/>
<path d="M0 0 C1.62269778 1.37424645 3.22738599 2.77006747 4.8125 4.1875 C5.56144531 4.85394531 6.31039063 5.52039063 7.08203125 6.20703125 C16.04903064 14.67150178 22.76133566 24.81735137 28.5625 35.625 C28.9028125 36.25535156 29.243125 36.88570312 29.59375 37.53515625 C30.28282539 38.86560181 30.9446843 40.21043033 31.58133686 41.5667429 C32.45868846 43.43434709 33.37347121 45.28455885 34.31289017 47.12172604 C39.67919035 58.69830864 39.66245438 69.49576974 39.58786011 82.09008789 C39.5962166 84.3955692 39.60717702 86.70104228 39.62049973 89.00650024 C39.6493159 95.30993788 39.64094913 101.61285046 39.62616611 107.91631627 C39.61765992 114.02575089 39.63734661 120.13504045 39.65598135 126.24444156 C39.69522276 139.50113459 39.70002845 152.75767084 39.68959094 166.0144081 C39.68046539 177.6107823 39.68168904 189.20709458 39.69327164 200.8034668 C39.69478538 202.36086356 39.69629734 203.91826033 39.69780753 205.47565711 C39.70009796 207.82262904 39.70239773 210.16960097 39.70472601 212.51657287 C39.72611975 234.32043037 39.73560222 256.1242673 39.71978569 277.9281311 C39.71889417 279.1597607 39.71889417 279.1597607 39.71798464 280.4162717 C39.71308705 287.08355653 39.70786375 293.7508411 39.70261637 300.41812566 C39.6823932 326.44795642 39.69916327 352.47752937 39.74560547 378.50732422 C39.79772705 407.76744499 39.8234547 437.02741061 39.80922997 466.28757954 C39.80779786 469.40573944 39.80644908 472.52389937 39.80514908 475.64205933 C39.80480946 476.40980468 39.80446984 477.17755003 39.80411993 477.96856039 C39.79951197 489.56301223 39.81547625 501.15731998 39.84173203 512.7517395 C39.87151867 525.92869551 39.87328807 539.1053134 39.8375902 552.28226203 C39.82012179 559.00735518 39.81641189 565.73176291 39.84689331 572.45683098 C39.87443415 578.60906332 39.86526236 584.76009104 39.82641484 590.91225231 C39.818847 593.14138522 39.82487578 595.37061288 39.84563814 597.59966195 C39.87181504 600.62430223 39.84897561 603.6447335 39.8136425 606.66918945 C39.84259404 607.97560486 39.84259404 607.97560486 39.87213045 609.30841249 C39.78129111 613.08010538 39.55093543 615.31556747 37.06351246 618.25267601 C35.05035488 620.03464059 33.0041358 621.63280391 30.8125 623.1875 C29.88566406 623.91195312 28.95882813 624.63640625 28.00390625 625.3828125 C27.13636719 626.01960937 26.26882813 626.65640625 25.375 627.3125 C20.51009402 630.91861156 15.68095504 634.56567688 10.875 638.25 C4.36168433 643.23908 -2.15991612 648.21710164 -8.6875 653.1875 C-17.86327088 660.1756313 -27.02814192 667.17787654 -36.1875 674.1875 C-46.24305472 681.8829795 -56.30737203 689.56677527 -66.38085938 697.23876953 C-74.65828295 703.54386196 -82.92433943 709.86373323 -91.1875 716.1875 C-101.24305472 723.8829795 -111.30737203 731.56677527 -121.38085938 739.23876953 C-129.65828295 745.54386196 -137.92433943 751.86373323 -146.1875 758.1875 C-156.24305472 765.8829795 -166.30737203 773.56677527 -176.38085938 781.23876953 C-184.65828295 787.54386196 -192.92433943 793.86373323 -201.1875 800.1875 C-211.24596263 807.88520491 -221.31306446 815.57138894 -231.38964844 823.24536133 C-236.82681983 827.38680929 -242.25969804 831.53378133 -247.6875 835.6875 C-254.01441452 840.52928 -260.34927785 845.36053266 -266.6875 850.1875 C-275.86321258 857.17570807 -285.02814173 864.17787639 -294.1875 871.1875 C-304.24305472 878.8829795 -314.30737203 886.56677527 -324.38085938 894.23876953 C-332.65828295 900.54386196 -340.92433943 906.86373323 -349.1875 913.1875 C-359.24305472 920.8829795 -369.30737203 928.56677527 -379.38085938 936.23876953 C-387.65828295 942.54386196 -395.92433943 948.86373323 -404.1875 955.1875 C-414.24305472 962.8829795 -424.30737203 970.56677527 -434.38085938 978.23876953 C-442.65828295 984.54386196 -450.92433943 990.86373323 -459.1875 997.1875 C-469.24305472 1004.8829795 -479.30737203 1012.56677527 -489.38085938 1020.23876953 C-497.65828295 1026.54386196 -505.92433943 1032.86373323 -514.1875 1039.1875 C-524.24596263 1046.88520491 -534.31306446 1054.57138894 -544.38964844 1062.24536133 C-549.82681983 1066.38680929 -555.25969804 1070.53378133 -560.6875 1074.6875 C-567.01441452 1079.52928 -573.34927785 1084.36053266 -579.6875 1089.1875 C-588.86321258 1096.17570807 -598.02814173 1103.17787639 -607.1875 1110.1875 C-616.3468584 1117.19712371 -625.51182457 1124.19924302 -634.6875 1131.1875 C-640.47777217 1135.59760635 -646.26781184 1140.00799574 -652.04980469 1144.42895508 C-653.45557469 1145.5031907 -654.86244578 1146.57598723 -656.27050781 1147.6472168 C-659.53060369 1150.13156697 -662.76462259 1152.63906355 -665.953125 1155.21484375 C-666.54351563 1155.68615723 -667.13390625 1156.1574707 -667.7421875 1156.64306641 C-669.31956846 1157.90560722 -670.88677968 1159.18082502 -672.453125 1160.45703125 C-675.52418123 1162.40057112 -676.64424785 1162.57184141 -680.1875 1162.1875 C-682.21704102 1161.04516602 -682.21704102 1161.04516602 -684.19140625 1159.44140625 C-684.92528564 1158.85633301 -685.65916504 1158.27125977 -686.4152832 1157.66845703 C-687.18573975 1157.03536621 -687.95619629 1156.40227539 -688.75 1155.75 C-690.37960512 1154.44586048 -692.009813 1153.14247377 -693.640625 1151.83984375 C-694.42759766 1151.20546387 -695.21457031 1150.57108398 -696.02539062 1149.91748047 C-698.64166432 1147.82410701 -701.30838838 1145.80787104 -704 1143.8125 C-709.51094306 1139.70795572 -714.97550477 1135.54442495 -720.4375 1131.375 C-726.66860402 1126.62021875 -732.90941351 1121.88008855 -739.1875 1117.1875 C-749.82114866 1109.23635993 -760.36099827 1101.16175767 -770.91503906 1093.10546875 C-784.01868567 1083.10341901 -784.01868567 1083.10341901 -797.1875 1073.1875 C-807.82097513 1065.23612304 -818.36099473 1057.16176038 -828.91503906 1049.10546875 C-842.01868567 1039.10341901 -842.01868567 1039.10341901 -855.1875 1029.1875 C-865.82097513 1021.23612304 -876.36099473 1013.16176038 -886.91503906 1005.10546875 C-896.37824142 997.88310374 -905.84971135 990.67418073 -915.38330078 983.54492188 C-922.24029091 978.41127228 -929.03559082 973.19783827 -935.83496094 967.98828125 C-946.49588858 959.82773722 -957.16652261 951.68031597 -967.921875 943.64453125 C-972.44846411 940.24958942 -976.93944238 936.80758122 -981.4375 933.375 C-987.75137832 928.55695472 -994.0761534 923.75521257 -1000.4375 919 C-1007.19670526 913.94566651 -1013.90668841 908.82936406 -1020.60546875 903.6953125 C-1026.65658838 899.05865375 -1032.72514784 894.44486067 -1038.79370117 889.83105469 C-1044.28568 885.65125263 -1049.74844281 881.43594232 -1055.1875 877.1875 C-1054.10431133 873.93793399 -1053.48533983 873.35357364 -1050.9375 871.25 C-1047.13734007 868.02871748 -1043.46100174 864.70271487 -1039.8125 861.3125 C-1035.14876143 856.98929262 -1030.45054622 852.70932262 -1025.71484375 848.46484375 C-1022.85667797 845.88940225 -1020.02039739 843.29064236 -1017.1875 840.6875 C-1012.73417383 836.59580793 -1008.25090112 832.53927023 -1003.75 828.5 C-1000.36351679 825.44390539 -997.00505186 822.35764388 -993.64624023 819.27124023 C-990.53116875 816.41147796 -987.39898325 813.57234641 -984.25 810.75 C-980.36379402 807.26301903 -976.51907193 803.73418015 -972.6875 800.1875 C-968.06397389 795.90775045 -963.40657665 791.66991392 -958.71484375 787.46484375 C-955.85667797 784.88940225 -953.02039739 782.29064236 -950.1875 779.6875 C-945.73417383 775.59580793 -941.25090112 771.53927023 -936.75 767.5 C-933.88149591 764.91134997 -931.0327335 762.30164854 -928.1875 759.6875 C-923.73414513 755.59583893 -919.25090146 751.53927054 -914.75 747.5 C-911.36351679 744.44390539 -908.00505186 741.35764388 -904.64624023 738.27124023 C-901.53116875 735.41147796 -898.39898325 732.57234641 -895.25 729.75 C-891.36379402 726.26301903 -887.51907193 722.73418015 -883.6875 719.1875 C-879.06397389 714.90775045 -874.40657665 710.66991392 -869.71484375 706.46484375 C-866.85667797 703.88940225 -864.02039739 701.29064236 -861.1875 698.6875 C-856.73417383 694.59580793 -852.25090112 690.53927023 -847.75 686.5 C-844.88149591 683.91134997 -842.0327335 681.30164854 -839.1875 678.6875 C-834.73414513 674.59583893 -830.25090146 670.53927054 -825.75 666.5 C-822.36351679 663.44390539 -819.00505186 660.35764388 -815.64624023 657.27124023 C-812.53116875 654.41147796 -809.39898325 651.57234641 -806.25 648.75 C-802.36379402 645.26301903 -798.51907193 641.73418015 -794.6875 638.1875 C-790.06397389 633.90775045 -785.40657665 629.66991392 -780.71484375 625.46484375 C-777.85667797 622.88940225 -775.02039739 620.29064236 -772.1875 617.6875 C-767.73417383 613.59580793 -763.25090112 609.53927023 -758.75 605.5 C-755.88149591 602.91134997 -753.0327335 600.30164854 -750.1875 597.6875 C-746.53820475 594.33459421 -742.87580432 590.99751669 -739.1875 587.6875 C-733.48088306 582.56430716 -727.83434646 577.37630061 -722.1875 572.1875 C-715.73653192 566.25980436 -709.27031284 560.3515628 -702.75 554.5 C-699.88149591 551.91134997 -697.0327335 549.30164854 -694.1875 546.6875 C-689.73414513 542.59583893 -685.25090146 538.53927054 -680.75 534.5 C-677.88149591 531.91134997 -675.0327335 529.30164854 -672.1875 526.6875 C-667.73414513 522.59583893 -663.25090146 518.53927054 -658.75 514.5 C-655.36351679 511.44390539 -652.00505186 508.35764388 -648.64624023 505.27124023 C-645.53116875 502.41147796 -642.39898325 499.57234641 -639.25 496.75 C-635.36379402 493.26301903 -631.51907193 489.73418015 -627.6875 486.1875 C-623.06397389 481.90775045 -618.40657665 477.66991392 -613.71484375 473.46484375 C-610.85667797 470.88940225 -608.02039739 468.29064236 -605.1875 465.6875 C-600.73417383 461.59580793 -596.25090112 457.53927023 -591.75 453.5 C-588.88149591 450.91134997 -586.0327335 448.30164854 -583.1875 445.6875 C-578.73414513 441.59583893 -574.25090146 437.53927054 -569.75 433.5 C-566.36351679 430.44390539 -563.00505186 427.35764388 -559.64624023 424.27124023 C-556.53116875 421.41147796 -553.39898325 418.57234641 -550.25 415.75 C-546.36379402 412.26301903 -542.51907193 408.73418015 -538.6875 405.1875 C-534.06397389 400.90775045 -529.40657665 396.66991392 -524.71484375 392.46484375 C-521.85667797 389.88940225 -519.02039739 387.29064236 -516.1875 384.6875 C-511.73417383 380.59580793 -507.25090112 376.53927023 -502.75 372.5 C-499.88149591 369.91134997 -497.0327335 367.30164854 -494.1875 364.6875 C-489.73414513 360.59583893 -485.25090146 356.53927054 -480.75 352.5 C-477.36351679 349.44390539 -474.00505186 346.35764388 -470.64624023 343.27124023 C-467.53116875 340.41147796 -464.39898325 337.57234641 -461.25 334.75 C-457.36379402 331.26301903 -453.51907193 327.73418015 -449.6875 324.1875 C-445.06397389 319.90775045 -440.40657665 315.66991392 -435.71484375 311.46484375 C-432.85667797 308.88940225 -430.02039739 306.29064236 -427.1875 303.6875 C-422.73417383 299.59580793 -418.25090112 295.53927023 -413.75 291.5 C-410.88149591 288.91134997 -408.0327335 286.30164854 -405.1875 283.6875 C-401.53820475 280.33459421 -397.87580432 276.99751669 -394.1875 273.6875 C-388.48088306 268.56430716 -382.83434646 263.37630061 -377.1875 258.1875 C-370.73653192 252.25980436 -364.27031284 246.3515628 -357.75 240.5 C-354.88149591 237.91134997 -352.0327335 235.30164854 -349.1875 232.6875 C-344.73414513 228.59583893 -340.25090146 224.53927054 -335.75 220.5 C-332.88149591 217.91134997 -330.0327335 215.30164854 -327.1875 212.6875 C-322.73414513 208.59583893 -318.25090146 204.53927054 -313.75 200.5 C-310.36351679 197.44390539 -307.00505186 194.35764388 -303.64624023 191.27124023 C-300.53116875 188.41147796 -297.39898325 185.57234641 -294.25 182.75 C-290.36379402 179.26301903 -286.51907193 175.73418015 -282.6875 172.1875 C-278.06397389 167.90775045 -273.40657665 163.66991392 -268.71484375 159.46484375 C-265.85667797 156.88940225 -263.02039739 154.29064236 -260.1875 151.6875 C-255.73417383 147.59580793 -251.25090112 143.53927023 -246.75 139.5 C-243.88149591 136.91134997 -241.0327335 134.30164854 -238.1875 131.6875 C-233.73414513 127.59583893 -229.25090146 123.53927054 -224.75 119.5 C-221.36351679 116.44390539 -218.00505186 113.35764388 -214.64624023 110.27124023 C-211.53116875 107.41147796 -208.39898325 104.57234641 -205.25 101.75 C-201.36379402 98.26301903 -197.51907193 94.73418015 -193.6875 91.1875 C-189.06397389 86.90775045 -184.40657665 82.66991392 -179.71484375 78.46484375 C-176.85667797 75.88940225 -174.02039739 73.29064236 -171.1875 70.6875 C-166.73417383 66.59580793 -162.25090112 62.53927023 -157.75 58.5 C-154.88149591 55.91134997 -152.0327335 53.30164854 -149.1875 50.6875 C-145.53820475 47.33459421 -141.87580432 43.99751669 -138.1875 40.6875 C-132.48088306 35.56430716 -126.83434646 30.37630061 -121.1875 25.1875 C-115.36747701 19.83957013 -109.54454759 14.49491262 -103.6875 9.1875 C-102.9140625 8.48625 -102.140625 7.785 -101.34375 7.0625 C-73.99730299 -16.71701914 -29.51463668 -22.80470391 0 0 Z " fill="#0776B9" transform="translate(1834.1875,74.8125)"/>
<path d="M0 0 C2.98833954 1.17039485 5.08620484 2.8110442 7.390625 5.01171875 C8.01332275 5.60090088 8.63602051 6.19008301 9.27758789 6.79711914 C9.92848389 7.42094482 10.57937988 8.04477051 11.25 8.6875 C12.60721925 9.97225658 13.96528201 11.25612271 15.32421875 12.5390625 C15.96794434 13.14782227 16.61166992 13.75658203 17.27490234 14.38378906 C19.1664638 16.15595675 21.09574012 17.87425732 23.0625 19.5625 C26.80061802 22.7771179 30.39596508 26.13698727 34 29.5 C38.23654176 33.45262692 42.49971766 37.35093408 46.88671875 41.13671875 C50.34043289 44.18186042 53.70295721 47.32553537 57.08007812 50.45507812 C61.17730209 54.24915489 65.31427913 57.99561809 69.47265625 61.72265625 C72.33082203 64.29809775 75.16710261 66.89685764 78 69.5 C81.64927171 72.85293117 85.31169598 76.18998357 89 79.5 C92.6883049 82.81001722 96.35065765 86.147145 100 89.5 C105.30121923 94.36943045 110.64104811 99.19423024 116 104 C124.44114763 111.56980336 132.80712812 119.21905472 141.1484375 126.8984375 C147.48528508 132.73211905 147.48528508 132.73211905 153.9375 138.4375 C158.069109 142.01937309 162.06929927 145.73837958 166.07958984 149.45458984 C170.17693929 153.24887039 174.31410773 156.99546447 178.47265625 160.72265625 C181.33082203 163.29809775 184.16710261 165.89685764 187 168.5 C190.64927171 171.85293117 194.31169598 175.18998357 198 178.5 C201.6883049 181.81001722 205.35065765 185.147145 209 188.5 C214.30121923 193.36943045 219.64104811 198.19423024 225 203 C230.87754442 208.27083016 236.72499827 213.57231672 242.53857422 218.91357422 C245.67631113 221.79393829 248.83003818 224.65516247 252 227.5 C255.6883049 230.81001722 259.35065765 234.147145 263 237.5 C269.08766279 243.09181752 275.22812466 248.62321472 281.38671875 254.13671875 C286.73924793 258.93761851 292.03632398 263.79381214 297.3059082 268.68530273 C300.86868545 271.98385614 304.48517731 275.19903385 308.21875 278.3046875 C310.72103687 280.68625 312.82040024 283.3202866 315 286 C305.81046514 293.19376298 296.59613895 300.34619273 287.24291992 307.32617188 C281.74112357 311.43489594 276.27241645 315.58581005 270.8125 319.75 C269.93078125 320.42240723 269.0490625 321.09481445 268.140625 321.78759766 C265.42672517 323.85792958 262.71327874 325.92885418 260 328 C249.72225873 335.8453793 239.44413852 343.68818703 229.08764648 351.42944336 C223.61661142 355.52431588 218.18154538 359.6654417 212.75 363.8125 C205.69219358 369.20123058 198.61025705 374.55566981 191.5 379.875 C185.13934919 384.63465407 178.81040893 389.42851122 172.5234375 394.28515625 C161.11508401 403.09023858 149.63238023 411.80002659 138.08959961 420.42797852 C132.6179169 424.52334419 127.18219242 428.66494768 121.75 432.8125 C114.69219358 438.20123058 107.61025705 443.55566981 100.5 448.875 C94.13934919 453.63465407 87.81040893 458.42851122 81.5234375 463.28515625 C70.11508401 472.09023858 58.63238023 480.80002659 47.08959961 489.42797852 C41.6179169 493.52334419 36.18219242 497.66494768 30.75 501.8125 C23.69219358 507.20123058 16.61025705 512.55566981 9.5 517.875 C3.13934919 522.63465407 -3.18959107 527.42851122 -9.4765625 532.28515625 C-20.88491599 541.09023858 -32.36761977 549.80002659 -43.91040039 558.42797852 C-49.3820831 562.52334419 -54.81780758 566.66494768 -60.25 570.8125 C-68.14441124 576.83998966 -76.07389692 582.81825717 -84.02880859 588.765625 C-88.14192869 591.84410627 -92.23938691 594.93896798 -96.2980957 598.08886719 C-98.85499185 600.07294576 -101.42635346 602.03771777 -104 604 C-104.81380127 604.62382568 -104.81380127 604.62382568 -105.64404297 605.26025391 C-125.86760966 620.65066184 -148.39821195 629.87303362 -174.20214844 626.73193359 C-190.8258074 623.96132377 -203.22321843 615.60153184 -215 604 C-216.30139094 602.84156489 -217.61270509 601.69409565 -218.9375 600.5625 C-223.069109 596.98062691 -227.06929927 593.26162042 -231.07958984 589.54541016 C-235.17693929 585.75112961 -239.31410773 582.00453553 -243.47265625 578.27734375 C-246.33082203 575.70190225 -249.16710261 573.10314236 -252 570.5 C-255.64927171 567.14706883 -259.31169598 563.81001643 -263 560.5 C-267.20761261 556.7239374 -271.37842372 552.90895993 -275.54125977 549.08374023 C-278.65633125 546.22397796 -281.78851675 543.38484641 -284.9375 540.5625 C-289.3920991 536.56551622 -293.78918479 532.50925591 -298.18115234 528.44384766 C-302.24611811 524.6852202 -306.34984906 520.97250157 -310.47265625 517.27734375 C-313.33082203 514.70190225 -316.16710261 512.10314236 -319 509.5 C-322.64927171 506.14706883 -326.31169598 502.81001643 -330 499.5 C-334.20684327 495.72462783 -338.37674853 491.91019552 -342.5390625 488.0859375 C-345.67667086 485.20577393 -348.83020941 482.34468386 -352 479.5 C-356.20684327 475.72462783 -360.37674853 471.91019552 -364.5390625 468.0859375 C-367.67667086 465.20577393 -370.83020941 462.34468386 -374 459.5 C-375.20076172 458.41912109 -375.20076172 458.41912109 -376.42578125 457.31640625 C-377.77773993 456.09984859 -379.13006897 454.88369449 -380.48583984 453.67138672 C-384.03555145 450.49345425 -387.53638806 447.27173571 -391 444 C-391.66 443.37996094 -392.32 442.75992187 -393 442.12109375 C-404.66857388 430.04736106 -410.96510304 412.30206263 -411.4375 395.75 C-410.91682477 380.95274585 -405.52567191 368.43590072 -395 358 C-393.13269531 356.2785152 -391.22893473 354.61654226 -389.29296875 352.97265625 C-386.51499571 350.58274759 -383.81894095 348.10847015 -381.125 345.625 C-377.43489944 342.22918424 -373.73293981 338.84884311 -370 335.5 C-366.31169568 332.18998331 -362.64929525 328.85290579 -359 325.5 C-354.54664513 321.40833893 -350.06340146 317.35177054 -345.5625 313.3125 C-342.69399591 310.72384997 -339.8452335 308.11414854 -337 305.5 C-332.54664513 301.40833893 -328.06340146 297.35177054 -323.5625 293.3125 C-320.69399591 290.72384997 -317.8452335 288.11414854 -315 285.5 C-310.54664513 281.40833893 -306.06340146 277.35177054 -301.5625 273.3125 C-298.69399591 270.72384997 -295.8452335 268.11414854 -293 265.5 C-288.54664513 261.40833893 -284.06340146 257.35177054 -279.5625 253.3125 C-276.69399591 250.72384997 -273.8452335 248.11414854 -271 245.5 C-266.54664513 241.40833893 -262.06340146 237.35177054 -257.5625 233.3125 C-254.69399591 230.72384997 -251.8452335 228.11414854 -249 225.5 C-244.54664513 221.40833893 -240.06340146 217.35177054 -235.5625 213.3125 C-232.69399591 210.72384997 -229.8452335 208.11414854 -227 205.5 C-222.54664513 201.40833893 -218.06340146 197.35177054 -213.5625 193.3125 C-210.69399591 190.72384997 -207.8452335 188.11414854 -205 185.5 C-200.54664513 181.40833893 -196.06340146 177.35177054 -191.5625 173.3125 C-188.69399591 170.72384997 -185.8452335 168.11414854 -183 165.5 C-178.54664513 161.40833893 -174.06340146 157.35177054 -169.5625 153.3125 C-166.69399591 150.72384997 -163.8452335 148.11414854 -161 145.5 C-156.54664513 141.40833893 -152.06340146 137.35177054 -147.5625 133.3125 C-144.69399591 130.72384997 -141.8452335 128.11414854 -139 125.5 C-134.54664513 121.40833893 -130.06340146 117.35177054 -125.5625 113.3125 C-122.69399591 110.72384997 -119.8452335 108.11414854 -117 105.5 C-112.54664513 101.40833893 -108.06340146 97.35177054 -103.5625 93.3125 C-100.69399591 90.72384997 -97.8452335 88.11414854 -95 85.5 C-90.54664513 81.40833893 -86.06340146 77.35177054 -81.5625 73.3125 C-78.69399591 70.72384997 -75.8452335 68.11414854 -73 65.5 C-68.54664513 61.40833893 -64.06340146 57.35177054 -59.5625 53.3125 C-56.69399591 50.72384997 -53.8452335 48.11414854 -51 45.5 C-46.54664513 41.40833893 -42.06340146 37.35177054 -37.5625 33.3125 C-34.69399573 30.72384981 -31.84525184 28.11412873 -29 25.5 C-24.53423777 21.39745782 -20.04315818 17.32474307 -15.52734375 13.27734375 C-13.6780661 11.6109931 -11.83742538 9.9374155 -10.00390625 8.25390625 C-9.25282593 7.56566772 -9.25282593 7.56566772 -8.48657227 6.86352539 C-7.07290717 5.56687248 -5.66139429 4.26787429 -4.25 2.96875 C-2 1 -2 1 0 0 Z " fill="#0F6FB3" transform="translate(464,1235)"/>
</svg>
